<svg width="180" height="170" viewBox="0 0 180 170" fill="none" xmlns="http://www.w3.org/2000/svg">
<rect width="180" height="170" rx="16" fill="url(#paint0_linear)"/>
<path d="M21.632 66.472C31.808 59.208 36.896 53.432 36.896 49.144C36.896 46.52 35.76 45.208 33.488 45.208C32.208 45.208 31.264 45.656 30.656 46.552C30.08 47.448 29.76 48.84 29.696 50.728H21.68C21.872 46.6 23.12 43.496 25.424 41.416C27.728 39.336 30.64 38.296 34.16 38.296C37.84 38.296 40.608 39.224 42.464 41.08C44.352 42.936 45.296 45.352 45.296 48.328C45.296 51.624 44.032 54.856 41.504 58.024C38.976 61.16 35.952 63.816 32.432 65.992H45.824V72.616H21.632V66.472ZM49.2035 55.672C49.2035 60.984 50.2755 65.192 52.4195 68.296C54.5635 71.4 57.9875 72.952 62.6915 72.952C67.3635 72.952 70.7715 71.4 72.9155 68.296C75.0915 65.192 76.1795 60.984 76.1795 55.672C76.1795 50.392 75.0915 46.216 72.9155 43.144C70.7715 40.04 67.3635 38.488 62.6915 38.488C57.9875 38.488 54.5635 40.04 52.4195 43.144C50.2755 46.216 49.2035 50.392 49.2035 55.672ZM68.0195 55.672C68.0195 58.712 67.6515 61.064 66.9155 62.728C66.2115 64.36 64.8035 65.176 62.6915 65.176C60.5475 65.176 59.1075 64.36 58.3715 62.728C57.6355 61.064 57.2675 58.712 57.2675 55.672C57.2675 52.664 57.6355 50.344 58.3715 48.712C59.1075 47.08 60.5475 46.264 62.6915 46.264C64.8035 46.264 66.2115 47.08 66.9155 48.712C67.6515 50.312 68.0195 52.632 68.0195 55.672ZM79.7101 66.472C89.8861 59.208 94.9741 53.432 94.9741 49.144C94.9741 46.52 93.8381 45.208 91.5661 45.208C90.2861 45.208 89.3421 45.656 88.7341 46.552C88.1581 47.448 87.8381 48.84 87.7741 50.728H79.7581C79.9501 46.6 81.1981 43.496 83.5021 41.416C85.8061 39.336 88.7181 38.296 92.2381 38.296C95.9181 38.296 98.6861 39.224 100.542 41.08C102.43 42.936 103.374 45.352 103.374 48.328C103.374 51.624 102.11 54.856 99.5821 58.024C97.0541 61.16 94.0301 63.816 90.5101 65.992H103.902V72.616H79.7101V66.472ZM107.282 55.672C107.282 60.984 108.354 65.192 110.498 68.296C112.642 71.4 116.066 72.952 120.77 72.952C125.442 72.952 128.85 71.4 130.994 68.296C133.17 65.192 134.258 60.984 134.258 55.672C134.258 50.392 133.17 46.216 130.994 43.144C128.85 40.04 125.442 38.488 120.77 38.488C116.066 38.488 112.642 40.04 110.498 43.144C108.354 46.216 107.282 50.392 107.282 55.672ZM126.098 55.672C126.098 58.712 125.73 61.064 124.994 62.728C124.29 64.36 122.882 65.176 120.77 65.176C118.626 65.176 117.186 64.36 116.45 62.728C115.714 61.064 115.346 58.712 115.346 55.672C115.346 52.664 115.714 50.344 116.45 48.712C117.186 47.08 118.626 46.264 120.77 46.264C122.882 46.264 124.29 47.08 124.994 48.712C125.73 50.312 126.098 52.632 126.098 55.672Z" fill="white"/>
<path d="M24.692 110.18C24.068 110.18 23.508 110.084 23.012 109.892C22.516 109.7 22.096 109.42 21.752 109.052C21.408 108.676 21.144 108.22 20.96 107.684C20.776 107.148 20.684 106.532 20.684 105.836C20.684 105.14 20.788 104.524 20.996 103.988C21.212 103.452 21.504 103 21.872 102.632C22.24 102.256 22.672 101.972 23.168 101.78C23.664 101.588 24.196 101.492 24.764 101.492C25.108 101.492 25.42 101.52 25.7 101.576C25.98 101.624 26.224 101.68 26.432 101.744C26.64 101.808 26.812 101.876 26.948 101.948C27.084 102.02 27.18 102.072 27.236 102.104L26.792 103.34C26.6 103.22 26.324 103.108 25.964 103.004C25.612 102.892 25.228 102.836 24.812 102.836C24.452 102.836 24.116 102.9 23.804 103.028C23.492 103.148 23.22 103.332 22.988 103.58C22.764 103.828 22.588 104.14 22.46 104.516C22.332 104.892 22.268 105.328 22.268 105.824C22.268 106.264 22.316 106.668 22.412 107.036C22.516 107.404 22.672 107.724 22.88 107.996C23.088 108.26 23.352 108.468 23.672 108.62C23.992 108.764 24.376 108.836 24.824 108.836C25.36 108.836 25.796 108.784 26.132 108.68C26.468 108.568 26.728 108.464 26.912 108.368L27.32 109.604C27.224 109.668 27.092 109.732 26.924 109.796C26.764 109.86 26.572 109.924 26.348 109.988C26.124 110.044 25.872 110.088 25.592 110.12C25.312 110.16 25.012 110.18 24.692 110.18ZM32.0038 102.98C31.9798 103.524 31.9518 104.08 31.9198 104.648C31.8878 105.208 31.8278 105.752 31.7398 106.28C31.6598 106.8 31.5398 107.292 31.3798 107.756C31.2198 108.22 30.9998 108.628 30.7198 108.98C30.4398 109.324 30.0878 109.6 29.6638 109.808C29.2478 110.016 28.7358 110.128 28.1278 110.144L27.9598 108.824C28.2478 108.792 28.4998 108.736 28.7158 108.656C28.9318 108.576 29.1198 108.472 29.2798 108.344C29.4398 108.208 29.5798 108.044 29.6998 107.852C29.8198 107.652 29.9238 107.42 30.0118 107.156C30.2278 106.532 30.3718 105.752 30.4438 104.816C30.5158 103.88 30.5518 102.836 30.5518 101.684H35.7478V110H34.2238V102.98H32.0038ZM37.7421 110V101.684H43.0821V102.968H39.2541V105.02H42.6621V106.28H39.2541V108.716H43.3701V110H37.7421ZM43.9333 108.716H44.9653C45.3253 108.22 45.6013 107.7 45.7933 107.156C45.9933 106.604 46.1373 106.036 46.2253 105.452C46.3213 104.86 46.3773 104.252 46.3933 103.628C46.4093 102.996 46.4173 102.348 46.4173 101.684H51.5173V108.716H52.7533V112.22H51.3013V110H45.3853V112.22H43.9333V108.716ZM47.8693 102.98C47.8453 103.46 47.8173 103.952 47.7853 104.456C47.7533 104.96 47.6933 105.46 47.6053 105.956C47.5253 106.444 47.4093 106.924 47.2573 107.396C47.1053 107.86 46.8973 108.3 46.6333 108.716H50.0293V102.98H47.8693ZM53.9491 110V101.684H55.4491V107.204C55.7211 106.772 56.0291 106.308 56.3731 105.812C56.7251 105.308 57.0851 104.808 57.4531 104.312C57.8291 103.816 58.2011 103.34 58.5691 102.884C58.9371 102.42 59.2811 102.02 59.6011 101.684H60.8371V110H59.3491V104.048C59.0131 104.448 58.6571 104.9 58.2811 105.404C57.9131 105.9 57.5491 106.416 57.1891 106.952C56.8291 107.48 56.4811 108.008 56.1451 108.536C55.8091 109.056 55.5051 109.544 55.2331 110H53.9491ZM67.2887 105.032C67.5207 105.032 67.7527 105.016 67.9847 104.984C68.2167 104.944 68.4247 104.88 68.6087 104.792C68.7927 104.696 68.9407 104.572 69.0527 104.42C69.1647 104.26 69.2207 104.06 69.2207 103.82C69.2207 103.508 69.0887 103.26 68.8247 103.076C68.5687 102.892 68.2127 102.8 67.7567 102.8C67.3167 102.8 66.9247 102.852 66.5807 102.956C66.2447 103.052 65.9607 103.168 65.7287 103.304L65.2367 102.092C65.4927 101.932 65.8407 101.796 66.2807 101.684C66.7287 101.564 67.2247 101.504 67.7687 101.504C68.2007 101.504 68.6007 101.552 68.9687 101.648C69.3367 101.736 69.6527 101.876 69.9167 102.068C70.1807 102.26 70.3887 102.5 70.5407 102.788C70.6927 103.076 70.7687 103.412 70.7687 103.796C70.7687 104.148 70.6687 104.484 70.4687 104.804C70.2687 105.116 69.9647 105.36 69.5567 105.536C69.7727 105.616 69.9767 105.716 70.1687 105.836C70.3607 105.956 70.5287 106.104 70.6727 106.28C70.8167 106.456 70.9287 106.66 71.0087 106.892C71.0967 107.116 71.1407 107.372 71.1407 107.66C71.1407 108.108 71.0607 108.492 70.9007 108.812C70.7407 109.124 70.5127 109.384 70.2167 109.592C69.9207 109.792 69.5567 109.94 69.1247 110.036C68.7007 110.132 68.2247 110.18 67.6967 110.18C67.4007 110.18 67.1167 110.16 66.8447 110.12C66.5727 110.08 66.3167 110.028 66.0767 109.964C65.8367 109.9 65.6207 109.832 65.4287 109.76C65.2367 109.68 65.0767 109.608 64.9487 109.544L65.3927 108.332C65.4967 108.38 65.6247 108.436 65.7767 108.5C65.9287 108.556 66.1007 108.612 66.2927 108.668C66.4847 108.724 66.6927 108.772 66.9167 108.812C67.1407 108.852 67.3687 108.872 67.6007 108.872C68.2247 108.872 68.7047 108.78 69.0407 108.596C69.3847 108.404 69.5567 108.076 69.5567 107.612C69.5567 107.34 69.4967 107.116 69.3767 106.94C69.2647 106.764 69.1047 106.628 68.8967 106.532C68.6967 106.436 68.4567 106.372 68.1767 106.34C67.8967 106.3 67.5967 106.28 67.2767 106.28H66.3407V105.032H67.2887ZM78.2308 110C78.1188 109.672 78.0028 109.348 77.8828 109.028C77.7628 108.708 77.6468 108.38 77.5348 108.044H74.0308C73.9188 108.38 73.8028 108.712 73.6828 109.04C73.5708 109.36 73.4588 109.68 73.3468 110H71.7748C72.0868 109.112 72.3828 108.292 72.6628 107.54C72.9428 106.788 73.2148 106.076 73.4788 105.404C73.7508 104.732 74.0188 104.092 74.2828 103.484C74.5468 102.876 74.8188 102.276 75.0988 101.684H76.5268C76.8068 102.276 77.0788 102.876 77.3428 103.484C77.6068 104.092 77.8708 104.732 78.1348 105.404C78.4068 106.076 78.6828 106.788 78.9628 107.54C79.2508 108.292 79.5508 109.112 79.8628 110H78.2308ZM75.7828 103.292C75.5988 103.716 75.3868 104.232 75.1468 104.84C74.9148 105.448 74.6708 106.108 74.4148 106.82H77.1508C76.8948 106.108 76.6468 105.444 76.4068 104.828C76.1668 104.212 75.9588 103.7 75.7828 103.292ZM88.8388 101.684H90.3508V110H88.8388V106.316H85.2268V110H83.7148V101.684H85.2268V105.008H88.8388V101.684ZM97.8598 110C97.7478 109.672 97.6318 109.348 97.5117 109.028C97.3918 108.708 97.2758 108.38 97.1638 108.044H93.6598C93.5478 108.38 93.4318 108.712 93.3118 109.04C93.1998 109.36 93.0878 109.68 92.9758 110H91.4038C91.7158 109.112 92.0118 108.292 92.2918 107.54C92.5718 106.788 92.8438 106.076 93.1077 105.404C93.3798 104.732 93.6478 104.092 93.9118 103.484C94.1758 102.876 94.4478 102.276 94.7278 101.684H96.1558C96.4358 102.276 96.7078 102.876 96.9718 103.484C97.2358 104.092 97.4998 104.732 97.7638 105.404C98.0358 106.076 98.3118 106.788 98.5918 107.54C98.8798 108.292 99.1798 109.112 99.4918 110H97.8598ZM95.4118 103.292C95.2278 103.716 95.0158 104.232 94.7758 104.84C94.5438 105.448 94.2998 106.108 94.0438 106.82H96.7798C96.5238 106.108 96.2758 105.444 96.0358 104.828C95.7958 104.212 95.5878 103.7 95.4118 103.292ZM102.355 101.684C102.531 101.988 102.727 102.36 102.943 102.8C103.159 103.24 103.379 103.704 103.603 104.192C103.827 104.672 104.047 105.164 104.263 105.668C104.487 106.164 104.691 106.624 104.875 107.048C105.059 106.624 105.259 106.164 105.475 105.668C105.691 105.164 105.911 104.672 106.135 104.192C106.359 103.704 106.579 103.24 106.795 102.8C107.011 102.36 107.207 101.988 107.383 101.684H108.751C108.823 102.292 108.891 102.94 108.955 103.628C109.019 104.308 109.075 105.008 109.123 105.728C109.179 106.44 109.227 107.16 109.267 107.888C109.315 108.608 109.355 109.312 109.387 110H107.899C107.867 109.032 107.827 108.036 107.779 107.012C107.739 105.988 107.675 104.996 107.587 104.036C107.499 104.22 107.395 104.44 107.275 104.696C107.155 104.952 107.027 105.232 106.891 105.536C106.755 105.832 106.615 106.14 106.471 106.46C106.335 106.78 106.199 107.092 106.063 107.396C105.935 107.692 105.815 107.972 105.703 108.236C105.591 108.492 105.495 108.712 105.415 108.896H104.287C104.207 108.712 104.111 108.488 103.999 108.224C103.887 107.96 103.763 107.68 103.627 107.384C103.499 107.08 103.363 106.768 103.219 106.448C103.083 106.128 102.947 105.82 102.811 105.524C102.675 105.228 102.547 104.952 102.427 104.696C102.307 104.432 102.203 104.212 102.115 104.036C102.027 104.996 101.959 105.988 101.911 107.012C101.871 108.036 101.835 109.032 101.803 110H100.315C100.347 109.312 100.383 108.6 100.423 107.864C100.471 107.128 100.519 106.4 100.567 105.68C100.623 104.952 100.683 104.248 100.747 103.568C100.811 102.888 100.879 102.26 100.951 101.684H102.355ZM111.148 110V101.684H112.648V107.204C112.92 106.772 113.228 106.308 113.572 105.812C113.924 105.308 114.284 104.808 114.652 104.312C115.028 103.816 115.4 103.34 115.768 102.884C116.136 102.42 116.48 102.02 116.8 101.684H118.036V110H116.548V104.048C116.212 104.448 115.856 104.9 115.48 105.404C115.112 105.9 114.748 106.416 114.388 106.952C114.028 107.48 113.68 108.008 113.344 108.536C113.008 109.056 112.704 109.544 112.432 110H111.148ZM22.172 120.108C22.172 120.772 22.316 121.24 22.604 121.512C22.892 121.776 23.352 121.908 23.984 121.908C24.24 121.908 24.496 121.892 24.752 121.86C25.016 121.828 25.24 121.796 25.424 121.764V117.684H26.936V126H25.424V123.06C25.216 123.1 24.968 123.136 24.68 123.168C24.392 123.192 24.1 123.204 23.804 123.204C23.244 123.204 22.764 123.148 22.364 123.036C21.972 122.916 21.648 122.732 21.392 122.484C21.144 122.236 20.96 121.92 20.84 121.536C20.72 121.152 20.66 120.692 20.66 120.156V117.684H22.172V120.108ZM34.7256 117.684V118.992H32.1696V126H30.6456V118.992H28.0896V117.684H34.7256ZM36.8218 121.836C36.8218 122.292 36.8778 122.708 36.9898 123.084C37.1018 123.452 37.2618 123.768 37.4698 124.032C37.6858 124.288 37.9458 124.488 38.2498 124.632C38.5538 124.776 38.8978 124.848 39.2818 124.848C39.6578 124.848 39.9978 124.776 40.3018 124.632C40.6058 124.488 40.8618 124.288 41.0698 124.032C41.2858 123.768 41.4498 123.452 41.5618 123.084C41.6738 122.708 41.7298 122.292 41.7298 121.836C41.7298 121.38 41.6738 120.968 41.5618 120.6C41.4498 120.224 41.2858 119.908 41.0698 119.652C40.8618 119.388 40.6058 119.184 40.3018 119.04C39.9978 118.896 39.6578 118.824 39.2818 118.824C38.8978 118.824 38.5538 118.896 38.2498 119.04C37.9458 119.184 37.6858 119.388 37.4698 119.652C37.2618 119.916 37.1018 120.232 36.9898 120.6C36.8778 120.968 36.8218 121.38 36.8218 121.836ZM43.3138 121.836C43.3138 122.548 43.2058 123.176 42.9898 123.72C42.7818 124.264 42.4938 124.72 42.1258 125.088C41.7658 125.448 41.3418 125.72 40.8538 125.904C40.3658 126.088 39.8458 126.18 39.2938 126.18C38.7418 126.18 38.2178 126.088 37.7218 125.904C37.2338 125.72 36.8058 125.448 36.4378 125.088C36.0778 124.72 35.7898 124.264 35.5738 123.72C35.3578 123.176 35.2498 122.548 35.2498 121.836C35.2498 121.124 35.3578 120.5 35.5738 119.964C35.7898 119.42 36.0818 118.964 36.4498 118.596C36.8258 118.228 37.2578 117.952 37.7458 117.768C38.2338 117.584 38.7498 117.492 39.2938 117.492C39.8378 117.492 40.3538 117.584 40.8418 117.768C41.3298 117.952 41.7538 118.228 42.1138 118.596C42.4818 118.964 42.7738 119.42 42.9898 119.964C43.2058 120.5 43.3138 121.124 43.3138 121.836ZM46.4486 118.968V120.72H47.2646C47.8646 120.72 48.4006 120.768 48.8726 120.864C49.3446 120.96 49.7446 121.116 50.0726 121.332C50.4006 121.54 50.6486 121.816 50.8166 122.16C50.9926 122.496 51.0806 122.908 51.0806 123.396C51.0806 124.3 50.7526 124.976 50.0966 125.424C49.4486 125.864 48.5206 126.084 47.3126 126.084C46.9766 126.084 46.5966 126.064 46.1726 126.024C45.7486 125.992 45.3486 125.932 44.9726 125.844V117.684H50.3006V118.968H46.4486ZM46.9766 124.776C47.0646 124.776 47.1646 124.776 47.2766 124.776C47.3886 124.776 47.5126 124.772 47.6486 124.764C47.8966 124.756 48.1326 124.728 48.3566 124.68C48.5886 124.632 48.7886 124.556 48.9566 124.452C49.1326 124.348 49.2686 124.212 49.3646 124.044C49.4686 123.876 49.5206 123.664 49.5206 123.408C49.5206 123.12 49.4686 122.884 49.3646 122.7C49.2606 122.516 49.1086 122.372 48.9086 122.268C48.7086 122.156 48.4646 122.08 48.1766 122.04C47.8966 121.992 47.5766 121.968 47.2166 121.968H46.4486V124.752C46.5206 124.76 46.5966 124.768 46.6766 124.776C46.7646 124.776 46.8646 124.776 46.9766 124.776ZM58.5554 123.384C58.5554 123.832 58.4674 124.224 58.2914 124.56C58.1234 124.896 57.8754 125.18 57.5474 125.412C57.2274 125.636 56.8354 125.808 56.3714 125.928C55.9154 126.04 55.3994 126.096 54.8234 126.096C54.4874 126.096 54.1154 126.076 53.7074 126.036C53.2994 125.996 52.9034 125.932 52.5194 125.844V117.684H54.0314V120.672C54.1514 120.656 54.2714 120.648 54.3914 120.648C54.5114 120.648 54.6274 120.648 54.7394 120.648C56.0034 120.648 56.9554 120.876 57.5954 121.332C58.2354 121.78 58.5554 122.464 58.5554 123.384ZM59.7074 117.684H61.2194V126H59.7074V117.684ZM54.6674 121.944C54.5794 121.944 54.4754 121.944 54.3554 121.944C54.2434 121.944 54.1354 121.952 54.0314 121.968V124.776C54.1434 124.792 54.2634 124.8 54.3914 124.8C54.5274 124.8 54.7074 124.8 54.9314 124.8C55.2034 124.8 55.4634 124.78 55.7114 124.74C55.9674 124.692 56.1874 124.616 56.3714 124.512C56.5554 124.4 56.7034 124.256 56.8154 124.08C56.9274 123.896 56.9834 123.664 56.9834 123.384C56.9834 123.104 56.9274 122.872 56.8154 122.688C56.7114 122.504 56.5594 122.356 56.3594 122.244C56.1594 122.132 55.9154 122.056 55.6274 122.016C55.3474 121.968 55.0274 121.944 54.6674 121.944ZM70.0757 123.516C69.8757 123.964 69.6677 124.356 69.4517 124.692C69.2437 125.02 69.0117 125.292 68.7557 125.508C68.5077 125.724 68.2277 125.884 67.9157 125.988C67.6117 126.092 67.2677 126.144 66.8837 126.144C66.6517 126.144 66.4077 126.12 66.1517 126.072C65.9037 126.024 65.6997 125.964 65.5397 125.892L65.8157 124.644C65.9677 124.708 66.1277 124.76 66.2957 124.8C66.4637 124.832 66.6357 124.848 66.8117 124.848C67.1797 124.848 67.4837 124.764 67.7237 124.596C67.9717 124.428 68.1997 124.152 68.4077 123.768C68.0717 123.224 67.7477 122.676 67.4357 122.124C67.1317 121.572 66.8477 121.036 66.5837 120.516C66.3197 119.988 66.0757 119.484 65.8517 119.004C65.6357 118.524 65.4397 118.084 65.2637 117.684H66.9557C67.0837 118.012 67.2277 118.364 67.3877 118.74C67.5557 119.116 67.7317 119.504 67.9157 119.904C68.1077 120.304 68.3077 120.712 68.5157 121.128C68.7237 121.544 68.9317 121.96 69.1397 122.376C69.4277 121.664 69.7037 120.904 69.9677 120.096C70.2317 119.288 70.4797 118.484 70.7117 117.684H72.3437C72.1517 118.276 71.9597 118.836 71.7677 119.364C71.5757 119.884 71.3837 120.384 71.1917 120.864C71.0077 121.336 70.8197 121.792 70.6277 122.232C70.4437 122.664 70.2597 123.092 70.0757 123.516ZM75.0583 121.032C75.2903 121.032 75.5223 121.016 75.7543 120.984C75.9863 120.944 76.1943 120.88 76.3783 120.792C76.5623 120.696 76.7103 120.572 76.8223 120.42C76.9343 120.26 76.9903 120.06 76.9903 119.82C76.9903 119.508 76.8583 119.26 76.5943 119.076C76.3383 118.892 75.9823 118.8 75.5263 118.8C75.0863 118.8 74.6943 118.852 74.3503 118.956C74.0143 119.052 73.7303 119.168 73.4983 119.304L73.0063 118.092C73.2623 117.932 73.6103 117.796 74.0503 117.684C74.4983 117.564 74.9943 117.504 75.5383 117.504C75.9703 117.504 76.3703 117.552 76.7383 117.648C77.1063 117.736 77.4223 117.876 77.6863 118.068C77.9503 118.26 78.1583 118.5 78.3103 118.788C78.4623 119.076 78.5383 119.412 78.5383 119.796C78.5383 120.148 78.4383 120.484 78.2383 120.804C78.0383 121.116 77.7343 121.36 77.3263 121.536C77.5423 121.616 77.7463 121.716 77.9383 121.836C78.1303 121.956 78.2983 122.104 78.4423 122.28C78.5863 122.456 78.6983 122.66 78.7783 122.892C78.8663 123.116 78.9103 123.372 78.9103 123.66C78.9103 124.108 78.8303 124.492 78.6703 124.812C78.5103 125.124 78.2823 125.384 77.9863 125.592C77.6903 125.792 77.3263 125.94 76.8943 126.036C76.4703 126.132 75.9943 126.18 75.4663 126.18C75.1703 126.18 74.8863 126.16 74.6143 126.12C74.3423 126.08 74.0863 126.028 73.8463 125.964C73.6063 125.9 73.3903 125.832 73.1982 125.76C73.0063 125.68 72.8463 125.608 72.7183 125.544L73.1623 124.332C73.2663 124.38 73.3943 124.436 73.5463 124.5C73.6983 124.556 73.8703 124.612 74.0623 124.668C74.2543 124.724 74.4623 124.772 74.6863 124.812C74.9103 124.852 75.1383 124.872 75.3703 124.872C75.9943 124.872 76.4743 124.78 76.8103 124.596C77.1543 124.404 77.3263 124.076 77.3263 123.612C77.3263 123.34 77.2663 123.116 77.1463 122.94C77.0343 122.764 76.8743 122.628 76.6663 122.532C76.4663 122.436 76.2263 122.372 75.9463 122.34C75.6663 122.3 75.3663 122.28 75.0463 122.28H74.1103V121.032H75.0583ZM85.6044 117.684H87.1164V126H85.6044V122.316H81.9924V126H80.4804V117.684H81.9924V121.008H85.6044V117.684ZM94.6254 126C94.5134 125.672 94.3974 125.348 94.2774 125.028C94.1574 124.708 94.0414 124.38 93.9294 124.044H90.4254C90.3134 124.38 90.1974 124.712 90.0774 125.04C89.9654 125.36 89.8534 125.68 89.7414 126H88.1694C88.4814 125.112 88.7774 124.292 89.0574 123.54C89.3374 122.788 89.6094 122.076 89.8734 121.404C90.1454 120.732 90.4134 120.092 90.6774 119.484C90.9414 118.876 91.2134 118.276 91.4934 117.684H92.9214C93.2014 118.276 93.4734 118.876 93.7374 119.484C94.0014 120.092 94.2654 120.732 94.5294 121.404C94.8014 122.076 95.0774 122.788 95.3574 123.54C95.6454 124.292 95.9454 125.112 96.2574 126H94.6254ZM92.1774 119.292C91.9934 119.716 91.7814 120.232 91.5414 120.84C91.3094 121.448 91.0654 122.108 90.8094 122.82H93.5454C93.2894 122.108 93.0414 121.444 92.8014 120.828C92.5614 120.212 92.3534 119.7 92.1774 119.292ZM102.425 117.684V118.992H99.8688V126H98.3448V118.992H95.7888V117.684H102.425ZM109.734 123.384C109.734 124.272 109.398 124.948 108.726 125.412C108.062 125.868 107.126 126.096 105.918 126.096C105.582 126.096 105.202 126.076 104.778 126.036C104.362 125.996 103.962 125.932 103.578 125.844V117.684H105.09V120.672C105.226 120.656 105.354 120.648 105.474 120.648C105.594 120.648 105.718 120.648 105.846 120.648C108.438 120.648 109.734 121.56 109.734 123.384ZM105.738 121.944C105.642 121.944 105.538 121.944 105.426 121.944C105.314 121.944 105.202 121.952 105.09 121.968V124.776C105.202 124.784 105.33 124.792 105.474 124.8C105.626 124.8 105.806 124.8 106.014 124.8C106.294 124.8 106.562 124.78 106.818 124.74C107.082 124.692 107.31 124.616 107.502 124.512C107.702 124.4 107.862 124.256 107.982 124.08C108.102 123.896 108.162 123.664 108.162 123.384C108.162 123.104 108.102 122.872 107.982 122.688C107.87 122.504 107.706 122.356 107.49 122.244C107.282 122.132 107.03 122.056 106.734 122.016C106.438 121.968 106.106 121.944 105.738 121.944ZM112.588 124.404C112.604 124.54 112.612 124.64 112.612 124.704C112.612 124.768 112.612 124.832 112.612 124.896C112.612 125.392 112.532 125.904 112.372 126.432C112.22 126.96 112.004 127.46 111.724 127.932L110.584 127.62C110.776 127.156 110.904 126.7 110.968 126.252C111.04 125.812 111.076 125.424 111.076 125.088C111.076 124.992 111.072 124.872 111.064 124.728C111.064 124.584 111.06 124.476 111.052 124.404H112.588ZM22.172 136.108C22.172 136.772 22.316 137.24 22.604 137.512C22.892 137.776 23.352 137.908 23.984 137.908C24.24 137.908 24.496 137.892 24.752 137.86C25.016 137.828 25.24 137.796 25.424 137.764V133.684H26.936V142H25.424V139.06C25.216 139.1 24.968 139.136 24.68 139.168C24.392 139.192 24.1 139.204 23.804 139.204C23.244 139.204 22.764 139.148 22.364 139.036C21.972 138.916 21.648 138.732 21.392 138.484C21.144 138.236 20.96 137.92 20.84 137.536C20.72 137.152 20.66 136.692 20.66 136.156V133.684H22.172V136.108ZM34.7256 133.684V134.992H32.1696V142H30.6456V134.992H28.0896V133.684H34.7256ZM36.8218 137.836C36.8218 138.292 36.8778 138.708 36.9898 139.084C37.1018 139.452 37.2618 139.768 37.4698 140.032C37.6858 140.288 37.9458 140.488 38.2498 140.632C38.5538 140.776 38.8978 140.848 39.2818 140.848C39.6578 140.848 39.9978 140.776 40.3018 140.632C40.6058 140.488 40.8618 140.288 41.0698 140.032C41.2858 139.768 41.4498 139.452 41.5618 139.084C41.6738 138.708 41.7298 138.292 41.7298 137.836C41.7298 137.38 41.6738 136.968 41.5618 136.6C41.4498 136.224 41.2858 135.908 41.0698 135.652C40.8618 135.388 40.6058 135.184 40.3018 135.04C39.9978 134.896 39.6578 134.824 39.2818 134.824C38.8978 134.824 38.5538 134.896 38.2498 135.04C37.9458 135.184 37.6858 135.388 37.4698 135.652C37.2618 135.916 37.1018 136.232 36.9898 136.6C36.8778 136.968 36.8218 137.38 36.8218 137.836ZM43.3138 137.836C43.3138 138.548 43.2058 139.176 42.9898 139.72C42.7818 140.264 42.4938 140.72 42.1258 141.088C41.7658 141.448 41.3418 141.72 40.8538 141.904C40.3658 142.088 39.8458 142.18 39.2938 142.18C38.7418 142.18 38.2178 142.088 37.7218 141.904C37.2338 141.72 36.8058 141.448 36.4378 141.088C36.0778 140.72 35.7898 140.264 35.5738 139.72C35.3578 139.176 35.2498 138.548 35.2498 137.836C35.2498 137.124 35.3578 136.5 35.5738 135.964C35.7898 135.42 36.0818 134.964 36.4498 134.596C36.8258 134.228 37.2578 133.952 37.7458 133.768C38.2338 133.584 38.7498 133.492 39.2938 133.492C39.8378 133.492 40.3538 133.584 40.8418 133.768C41.3298 133.952 41.7538 134.228 42.1138 134.596C42.4818 134.964 42.7738 135.42 42.9898 135.964C43.2058 136.5 43.3138 137.124 43.3138 137.836ZM49.2493 134.968V136.72H50.0653C50.6653 136.72 51.2013 136.768 51.6733 136.864C52.1453 136.96 52.5453 137.116 52.8733 137.332C53.2013 137.54 53.4493 137.816 53.6173 138.16C53.7933 138.496 53.8813 138.908 53.8813 139.396C53.8813 140.3 53.5533 140.976 52.8973 141.424C52.2493 141.864 51.3213 142.084 50.1133 142.084C49.7773 142.084 49.3973 142.064 48.9733 142.024C48.5493 141.992 48.1493 141.932 47.7733 141.844V133.684H53.1013V134.968H49.2493ZM49.7773 140.776C49.8653 140.776 49.9653 140.776 50.0773 140.776C50.1893 140.776 50.3133 140.772 50.4493 140.764C50.6973 140.756 50.9333 140.728 51.1573 140.68C51.3893 140.632 51.5893 140.556 51.7573 140.452C51.9333 140.348 52.0693 140.212 52.1653 140.044C52.2693 139.876 52.3213 139.664 52.3213 139.408C52.3213 139.12 52.2693 138.884 52.1653 138.7C52.0613 138.516 51.9093 138.372 51.7093 138.268C51.5093 138.156 51.2653 138.08 50.9773 138.04C50.6973 137.992 50.3773 137.968 50.0173 137.968H49.2493V140.752C49.3213 140.76 49.3973 140.768 49.4773 140.776C49.5653 140.776 49.6653 140.776 49.7773 140.776ZM59.2828 139.516C59.0828 139.964 58.8748 140.356 58.6588 140.692C58.4508 141.02 58.2188 141.292 57.9628 141.508C57.7148 141.724 57.4348 141.884 57.1228 141.988C56.8188 142.092 56.4748 142.144 56.0908 142.144C55.8588 142.144 55.6148 142.12 55.3588 142.072C55.1108 142.024 54.9068 141.964 54.7468 141.892L55.0228 140.644C55.1748 140.708 55.3348 140.76 55.5028 140.8C55.6708 140.832 55.8428 140.848 56.0188 140.848C56.3868 140.848 56.6908 140.764 56.9308 140.596C57.1788 140.428 57.4068 140.152 57.6148 139.768C57.2788 139.224 56.9548 138.676 56.6428 138.124C56.3388 137.572 56.0548 137.036 55.7908 136.516C55.5268 135.988 55.2828 135.484 55.0588 135.004C54.8428 134.524 54.6468 134.084 54.4708 133.684H56.1628C56.2908 134.012 56.4348 134.364 56.5948 134.74C56.7628 135.116 56.9388 135.504 57.1228 135.904C57.3148 136.304 57.5148 136.712 57.7228 137.128C57.9308 137.544 58.1388 137.96 58.3468 138.376C58.6348 137.664 58.9108 136.904 59.1748 136.096C59.4388 135.288 59.6868 134.484 59.9188 133.684H61.5508C61.3588 134.276 61.1668 134.836 60.9748 135.364C60.7828 135.884 60.5908 136.384 60.3988 136.864C60.2148 137.336 60.0268 137.792 59.8348 138.232C59.6508 138.664 59.4668 139.092 59.2828 139.516ZM61.1248 140.716H62.1568C62.5168 140.22 62.7928 139.7 62.9848 139.156C63.1848 138.604 63.3288 138.036 63.4168 137.452C63.5128 136.86 63.5688 136.252 63.5848 135.628C63.6008 134.996 63.6088 134.348 63.6088 133.684H68.7088V140.716H69.9448V144.22H68.4928V142H62.5768V144.22H61.1248V140.716ZM65.0608 134.98C65.0368 135.46 65.0088 135.952 64.9768 136.456C64.9448 136.96 64.8848 137.46 64.7968 137.956C64.7168 138.444 64.6008 138.924 64.4488 139.396C64.2968 139.86 64.0888 140.3 63.8248 140.716H67.2208V134.98H65.0608ZM71.1405 142V133.684H76.4805V134.968H72.6525V137.02H76.0605V138.28H72.6525V140.716H76.7685V142H71.1405ZM83.9678 133.684V134.992H81.4118V142H79.8878V134.992H77.3318V133.684H83.9678ZM87.0818 140.716H88.1138C88.4738 140.22 88.7498 139.7 88.9418 139.156C89.1418 138.604 89.2858 138.036 89.3738 137.452C89.4698 136.86 89.5258 136.252 89.5418 135.628C89.5578 134.996 89.5658 134.348 89.5658 133.684H94.6658V140.716H95.9018V144.22H94.4498V142H88.5338V144.22H87.0818V140.716ZM91.0178 134.98C90.9938 135.46 90.9658 135.952 90.9338 136.456C90.9018 136.96 90.8418 137.46 90.7538 137.956C90.6738 138.444 90.5578 138.924 90.4058 139.396C90.2538 139.86 90.0458 140.3 89.7818 140.716H93.1778V134.98H91.0178ZM102.887 142C102.775 141.672 102.659 141.348 102.539 141.028C102.419 140.708 102.303 140.38 102.191 140.044H98.6871C98.5751 140.38 98.4591 140.712 98.3391 141.04C98.2271 141.36 98.1151 141.68 98.0031 142H96.4311C96.7431 141.112 97.0391 140.292 97.3191 139.54C97.5991 138.788 97.8711 138.076 98.1351 137.404C98.4071 136.732 98.6751 136.092 98.9391 135.484C99.2031 134.876 99.4751 134.276 99.7551 133.684H101.183C101.463 134.276 101.735 134.876 101.999 135.484C102.263 136.092 102.527 136.732 102.791 137.404C103.063 138.076 103.339 138.788 103.619 139.54C103.907 140.292 104.207 141.112 104.519 142H102.887ZM100.439 135.292C100.255 135.716 100.043 136.232 99.8031 136.84C99.5711 137.448 99.3271 138.108 99.0711 138.82H101.807C101.551 138.108 101.303 137.444 101.063 136.828C100.823 136.212 100.615 135.7 100.439 135.292ZM108.996 134.98C108.972 135.524 108.944 136.08 108.912 136.648C108.88 137.208 108.82 137.752 108.732 138.28C108.652 138.8 108.532 139.292 108.372 139.756C108.212 140.22 107.992 140.628 107.712 140.98C107.432 141.324 107.08 141.6 106.656 141.808C106.24 142.016 105.728 142.128 105.12 142.144L104.952 140.824C105.24 140.792 105.492 140.736 105.708 140.656C105.924 140.576 106.112 140.472 106.272 140.344C106.432 140.208 106.572 140.044 106.692 139.852C106.812 139.652 106.916 139.42 107.004 139.156C107.22 138.532 107.364 137.752 107.436 136.816C107.508 135.88 107.544 134.836 107.544 133.684H112.74V142H111.216V134.98H108.996ZM120.89 139.384C120.89 140.272 120.554 140.948 119.882 141.412C119.218 141.868 118.282 142.096 117.074 142.096C116.738 142.096 116.358 142.076 115.934 142.036C115.518 141.996 115.118 141.932 114.734 141.844V133.684H116.246V136.672C116.382 136.656 116.51 136.648 116.63 136.648C116.75 136.648 116.874 136.648 117.002 136.648C119.594 136.648 120.89 137.56 120.89 139.384ZM116.894 137.944C116.798 137.944 116.694 137.944 116.582 137.944C116.47 137.944 116.358 137.952 116.246 137.968V140.776C116.358 140.784 116.486 140.792 116.63 140.8C116.782 140.8 116.962 140.8 117.17 140.8C117.45 140.8 117.718 140.78 117.974 140.74C118.238 140.692 118.466 140.616 118.658 140.512C118.858 140.4 119.018 140.256 119.138 140.08C119.258 139.896 119.318 139.664 119.318 139.384C119.318 139.104 119.258 138.872 119.138 138.688C119.026 138.504 118.862 138.356 118.646 138.244C118.438 138.132 118.186 138.056 117.89 138.016C117.594 137.968 117.262 137.944 116.894 137.944ZM122.316 142V133.684H123.828V140.716H126.564V133.684H128.088V140.716H130.824V133.684H132.336V142H122.316ZM134.328 142V133.684H139.668V134.968H135.84V137.02H139.248V138.28H135.84V140.716H139.956V142H134.328Z" fill="white"/>
<defs>
<linearGradient id="paint0_linear" x1="90" y1="0" x2="90" y2="170" gradientUnits="userSpaceOnUse">
<stop stop-color="#FF2F01"/>
<stop offset="1" stop-color="#FF055F"/>
</linearGradient>
</defs>
</svg>
