<svg width="180" height="170" viewBox="0 0 180 170" fill="none" xmlns="http://www.w3.org/2000/svg">
<rect width="180" height="170" rx="16" fill="url(#paint0_linear)"/>
<path d="M21.632 66.472C31.808 59.208 36.896 53.432 36.896 49.144C36.896 46.52 35.76 45.208 33.488 45.208C32.208 45.208 31.264 45.656 30.656 46.552C30.08 47.448 29.76 48.84 29.696 50.728H21.68C21.872 46.6 23.12 43.496 25.424 41.416C27.728 39.336 30.64 38.296 34.16 38.296C37.84 38.296 40.608 39.224 42.464 41.08C44.352 42.936 45.296 45.352 45.296 48.328C45.296 51.624 44.032 54.856 41.504 58.024C38.976 61.16 35.952 63.816 32.432 65.992H45.824V72.616H21.632V66.472ZM49.2035 55.672C49.2035 60.984 50.2755 65.192 52.4195 68.296C54.5635 71.4 57.9875 72.952 62.6915 72.952C67.3635 72.952 70.7715 71.4 72.9155 68.296C75.0915 65.192 76.1795 60.984 76.1795 55.672C76.1795 50.392 75.0915 46.216 72.9155 43.144C70.7715 40.04 67.3635 38.488 62.6915 38.488C57.9875 38.488 54.5635 40.04 52.4195 43.144C50.2755 46.216 49.2035 50.392 49.2035 55.672ZM68.0195 55.672C68.0195 58.712 67.6515 61.064 66.9155 62.728C66.2115 64.36 64.8035 65.176 62.6915 65.176C60.5475 65.176 59.1075 64.36 58.3715 62.728C57.6355 61.064 57.2675 58.712 57.2675 55.672C57.2675 52.664 57.6355 50.344 58.3715 48.712C59.1075 47.08 60.5475 46.264 62.6915 46.264C64.8035 46.264 66.2115 47.08 66.9155 48.712C67.6515 50.312 68.0195 52.632 68.0195 55.672ZM78.6061 46.744V39.064H92.3341V73H83.6941V46.744H78.6061ZM105.652 62.584C106.1 65.368 107.508 66.76 109.876 66.76C111.732 66.76 113.028 65.912 113.764 64.216C114.532 62.52 114.884 59.88 114.82 56.296C114.276 57.608 113.332 58.648 111.988 59.416C110.676 60.152 109.14 60.52 107.38 60.52C104.18 60.52 101.652 59.56 99.7955 57.64C97.9395 55.688 97.0115 52.904 97.0115 49.288C97.0115 47.016 97.4755 45 98.4035 43.24C99.3315 41.48 100.692 40.12 102.484 39.16C104.308 38.168 106.484 37.672 109.012 37.672C112.436 37.672 115.108 38.392 117.028 39.832C118.948 41.272 120.276 43.24 121.012 45.736C121.748 48.2 122.116 51.176 122.116 54.664C122.116 60.808 121.172 65.464 119.284 68.632C117.428 71.768 114.292 73.336 109.876 73.336C107.444 73.336 105.348 72.856 103.588 71.896C101.86 70.904 100.516 69.592 99.5555 67.96C98.6275 66.328 98.0995 64.536 97.9715 62.584H105.652ZM114.196 49.672C114.196 48.2 113.78 47.016 112.948 46.12C112.116 45.192 110.9 44.728 109.299 44.728C107.86 44.728 106.724 45.128 105.892 45.928C105.092 46.728 104.692 47.896 104.692 49.432C104.692 50.968 105.108 52.152 105.94 52.984C106.772 53.784 107.908 54.184 109.348 54.184C110.724 54.184 111.876 53.8 112.804 53.032C113.732 52.232 114.196 51.112 114.196 49.672Z" fill="white"/>
<path d="M22.232 105.836C22.232 106.292 22.288 106.708 22.4 107.084C22.512 107.452 22.672 107.768 22.88 108.032C23.096 108.288 23.356 108.488 23.66 108.632C23.964 108.776 24.308 108.848 24.692 108.848C25.068 108.848 25.408 108.776 25.712 108.632C26.016 108.488 26.272 108.288 26.48 108.032C26.696 107.768 26.86 107.452 26.972 107.084C27.084 106.708 27.14 106.292 27.14 105.836C27.14 105.38 27.084 104.968 26.972 104.6C26.86 104.224 26.696 103.908 26.48 103.652C26.272 103.388 26.016 103.184 25.712 103.04C25.408 102.896 25.068 102.824 24.692 102.824C24.308 102.824 23.964 102.896 23.66 103.04C23.356 103.184 23.096 103.388 22.88 103.652C22.672 103.916 22.512 104.232 22.4 104.6C22.288 104.968 22.232 105.38 22.232 105.836ZM28.724 105.836C28.724 106.548 28.616 107.176 28.4 107.72C28.192 108.264 27.904 108.72 27.536 109.088C27.176 109.448 26.752 109.72 26.264 109.904C25.776 110.088 25.256 110.18 24.704 110.18C24.152 110.18 23.628 110.088 23.132 109.904C22.644 109.72 22.216 109.448 21.848 109.088C21.488 108.72 21.2 108.264 20.984 107.72C20.768 107.176 20.66 106.548 20.66 105.836C20.66 105.124 20.768 104.5 20.984 103.964C21.2 103.42 21.492 102.964 21.86 102.596C22.236 102.228 22.668 101.952 23.156 101.768C23.644 101.584 24.16 101.492 24.704 101.492C25.248 101.492 25.764 101.584 26.252 101.768C26.74 101.952 27.164 102.228 27.524 102.596C27.892 102.964 28.184 103.42 28.4 103.964C28.616 104.5 28.724 105.124 28.724 105.836ZM38.4395 108.692V110H33.1835V101.684H34.6955V108.692H38.4395ZM40.3492 105.836C40.3492 106.292 40.4052 106.708 40.5172 107.084C40.6292 107.452 40.7892 107.768 40.9972 108.032C41.2132 108.288 41.4732 108.488 41.7772 108.632C42.0812 108.776 42.4252 108.848 42.8092 108.848C43.1852 108.848 43.5252 108.776 43.8292 108.632C44.1332 108.488 44.3892 108.288 44.5972 108.032C44.8132 107.768 44.9772 107.452 45.0892 107.084C45.2012 106.708 45.2572 106.292 45.2572 105.836C45.2572 105.38 45.2012 104.968 45.0892 104.6C44.9772 104.224 44.8132 103.908 44.5972 103.652C44.3892 103.388 44.1332 103.184 43.8292 103.04C43.5252 102.896 43.1852 102.824 42.8092 102.824C42.4252 102.824 42.0812 102.896 41.7772 103.04C41.4732 103.184 41.2132 103.388 40.9972 103.652C40.7892 103.916 40.6292 104.232 40.5172 104.6C40.4052 104.968 40.3492 105.38 40.3492 105.836ZM46.8412 105.836C46.8412 106.548 46.7332 107.176 46.5172 107.72C46.3092 108.264 46.0212 108.72 45.6532 109.088C45.2932 109.448 44.8692 109.72 44.3812 109.904C43.8932 110.088 43.3732 110.18 42.8212 110.18C42.2692 110.18 41.7452 110.088 41.2492 109.904C40.7612 109.72 40.3332 109.448 39.9652 109.088C39.6052 108.72 39.3172 108.264 39.1012 107.72C38.8852 107.176 38.7772 106.548 38.7772 105.836C38.7772 105.124 38.8852 104.5 39.1012 103.964C39.3172 103.42 39.6092 102.964 39.9772 102.596C40.3532 102.228 40.7852 101.952 41.2732 101.768C41.7612 101.584 42.2772 101.492 42.8212 101.492C43.3652 101.492 43.8812 101.584 44.3692 101.768C44.8572 101.952 45.2812 102.228 45.6412 102.596C46.0092 102.964 46.3012 103.42 46.5172 103.964C46.7332 104.5 46.8412 105.124 46.8412 105.836ZM51.7039 110.18C51.1359 110.18 50.6479 110.1 50.2399 109.94C49.8319 109.772 49.4919 109.54 49.2199 109.244C48.9559 108.948 48.7599 108.6 48.6319 108.2C48.5039 107.8 48.4399 107.36 48.4399 106.88V101.684H49.9639V106.736C49.9639 107.112 50.0039 107.436 50.0839 107.708C50.1719 107.972 50.2919 108.188 50.4439 108.356C50.6039 108.524 50.7879 108.648 50.9959 108.728C51.2119 108.808 51.4519 108.848 51.7159 108.848C51.9799 108.848 52.2199 108.808 52.4359 108.728C52.6519 108.648 52.8359 108.524 52.9879 108.356C53.1479 108.188 53.2679 107.972 53.3479 107.708C53.4359 107.436 53.4799 107.112 53.4799 106.736V101.684H55.0039V106.88C55.0039 107.36 54.9359 107.8 54.7999 108.2C54.6719 108.6 54.4719 108.948 54.1999 109.244C53.9359 109.54 53.5959 109.772 53.1799 109.94C52.7639 110.1 52.2719 110.18 51.7039 110.18ZM58.4494 108.752C58.5374 108.76 58.6534 108.768 58.7974 108.776C58.9414 108.776 59.1374 108.776 59.3854 108.776C60.4014 108.776 61.1574 108.52 61.6534 108.008C62.1574 107.488 62.4094 106.764 62.4094 105.836C62.4094 104.892 62.1654 104.168 61.6774 103.664C61.1894 103.16 60.4334 102.908 59.4094 102.908C58.9614 102.908 58.6414 102.92 58.4494 102.944V108.752ZM63.9934 105.836C63.9934 106.556 63.8814 107.184 63.6574 107.72C63.4334 108.248 63.1134 108.692 62.6974 109.052C62.2894 109.404 61.7934 109.668 61.2094 109.844C60.6334 110.012 59.9934 110.096 59.2894 110.096C58.9534 110.096 58.5734 110.08 58.1494 110.048C57.7254 110.024 57.3214 109.968 56.9374 109.88V101.804C57.3214 101.716 57.7294 101.66 58.1614 101.636C58.5934 101.612 58.9774 101.6 59.3134 101.6C60.0094 101.6 60.6454 101.684 61.2214 101.852C61.7974 102.012 62.2894 102.268 62.6974 102.62C63.1134 102.964 63.4334 103.404 63.6574 103.94C63.8814 104.468 63.9934 105.1 63.9934 105.836ZM67.9964 101.6C69.2044 101.6 70.1284 101.82 70.7684 102.26C71.4164 102.7 71.7404 103.388 71.7404 104.324C71.7404 104.812 71.6524 105.232 71.4764 105.584C71.3084 105.928 71.0604 106.212 70.7324 106.436C70.4044 106.652 70.0044 106.812 69.5324 106.916C69.0604 107.02 68.5204 107.072 67.9124 107.072H67.1564V110H65.6444V101.804C65.9964 101.724 66.3844 101.672 66.8084 101.648C67.2404 101.616 67.6364 101.6 67.9964 101.6ZM68.1044 102.908C67.7204 102.908 67.4044 102.92 67.1564 102.944V105.776H67.8884C68.6164 105.776 69.1764 105.676 69.5684 105.476C69.9604 105.268 70.1564 104.88 70.1564 104.312C70.1564 104.04 70.1044 103.812 70.0004 103.628C69.8964 103.444 69.7524 103.3 69.5684 103.196C69.3844 103.092 69.1644 103.02 68.9084 102.98C68.6604 102.932 68.3924 102.908 68.1044 102.908ZM78.377 108.692V110H73.121V101.684H74.633V108.692H78.377ZM85.3558 110C85.2438 109.672 85.1278 109.348 85.0078 109.028C84.8878 108.708 84.7718 108.38 84.6598 108.044H81.1558C81.0438 108.38 80.9278 108.712 80.8078 109.04C80.6958 109.36 80.5838 109.68 80.4718 110H78.8998C79.2118 109.112 79.5078 108.292 79.7878 107.54C80.0678 106.788 80.3398 106.076 80.6038 105.404C80.8758 104.732 81.1438 104.092 81.4078 103.484C81.6718 102.876 81.9438 102.276 82.2238 101.684H83.6518C83.9318 102.276 84.2038 102.876 84.4678 103.484C84.7318 104.092 84.9958 104.732 85.2598 105.404C85.5318 106.076 85.8078 106.788 86.0878 107.54C86.3758 108.292 86.6758 109.112 86.9878 110H85.3558ZM82.9078 103.292C82.7238 103.716 82.5118 104.232 82.2718 104.84C82.0398 105.448 81.7958 106.108 81.5398 106.82H84.2758C84.0198 106.108 83.7718 105.444 83.5318 104.828C83.2918 104.212 83.0838 103.7 82.9078 103.292ZM89.9795 105.368C90.3395 104.768 90.6915 104.16 91.0355 103.544C91.3795 102.928 91.6915 102.308 91.9715 101.684H93.6515C93.2035 102.532 92.7355 103.376 92.2475 104.216C91.7675 105.048 91.2515 105.888 90.6995 106.736V110H89.1875V106.76C88.6355 105.904 88.1155 105.056 87.6275 104.216C87.1395 103.376 86.6715 102.532 86.2235 101.684H87.9995C88.2795 102.308 88.5875 102.928 88.9235 103.544C89.2595 104.16 89.6115 104.768 89.9795 105.368ZM104.06 101.684V110H102.548V102.98H98.9963V110H97.4843V101.684H104.06ZM106.051 110V101.684H107.551V107.204C107.823 106.772 108.131 106.308 108.475 105.812C108.827 105.308 109.187 104.808 109.555 104.312C109.931 103.816 110.303 103.34 110.671 102.884C111.039 102.42 111.383 102.02 111.703 101.684H112.939V110H111.451V104.048C111.115 104.448 110.759 104.9 110.383 105.404C110.015 105.9 109.651 106.416 109.291 106.952C108.931 107.48 108.583 108.008 108.247 108.536C107.911 109.056 107.607 109.544 107.335 110H106.051ZM114.934 110V101.684H116.446V108.716H119.182V101.684H120.706V108.716H123.442V101.684H124.954V110H114.934ZM131.013 107.516C130.813 107.964 130.605 108.356 130.389 108.692C130.181 109.02 129.949 109.292 129.693 109.508C129.445 109.724 129.165 109.884 128.853 109.988C128.549 110.092 128.205 110.144 127.821 110.144C127.589 110.144 127.345 110.12 127.089 110.072C126.841 110.024 126.637 109.964 126.477 109.892L126.753 108.644C126.905 108.708 127.065 108.76 127.233 108.8C127.401 108.832 127.573 108.848 127.749 108.848C128.117 108.848 128.421 108.764 128.661 108.596C128.909 108.428 129.137 108.152 129.345 107.768C129.009 107.224 128.685 106.676 128.373 106.124C128.069 105.572 127.785 105.036 127.521 104.516C127.257 103.988 127.013 103.484 126.789 103.004C126.573 102.524 126.377 102.084 126.201 101.684H127.893C128.021 102.012 128.165 102.364 128.325 102.74C128.493 103.116 128.669 103.504 128.853 103.904C129.045 104.304 129.245 104.712 129.453 105.128C129.661 105.544 129.869 105.96 130.077 106.376C130.365 105.664 130.641 104.904 130.905 104.096C131.169 103.288 131.417 102.484 131.649 101.684H133.281C133.089 102.276 132.897 102.836 132.705 103.364C132.513 103.884 132.321 104.384 132.129 104.864C131.945 105.336 131.757 105.792 131.565 106.232C131.381 106.664 131.197 107.092 131.013 107.516ZM140.44 101.684V102.992H137.884V110H136.36V102.992H133.804V101.684H140.44ZM20.996 126V117.684H26.252V118.968H22.508V121.092H25.832V122.376H22.508V126H20.996ZM28.7125 121.836C28.7125 122.292 28.7685 122.708 28.8805 123.084C28.9925 123.452 29.1525 123.768 29.3605 124.032C29.5765 124.288 29.8365 124.488 30.1405 124.632C30.4445 124.776 30.7885 124.848 31.1725 124.848C31.5485 124.848 31.8885 124.776 32.1925 124.632C32.4965 124.488 32.7525 124.288 32.9605 124.032C33.1765 123.768 33.3405 123.452 33.4525 123.084C33.5645 122.708 33.6205 122.292 33.6205 121.836C33.6205 121.38 33.5645 120.968 33.4525 120.6C33.3405 120.224 33.1765 119.908 32.9605 119.652C32.7525 119.388 32.4965 119.184 32.1925 119.04C31.8885 118.896 31.5485 118.824 31.1725 118.824C30.7885 118.824 30.4445 118.896 30.1405 119.04C29.8365 119.184 29.5765 119.388 29.3605 119.652C29.1525 119.916 28.9925 120.232 28.8805 120.6C28.7685 120.968 28.7125 121.38 28.7125 121.836ZM35.2045 121.836C35.2045 122.548 35.0965 123.176 34.8805 123.72C34.6725 124.264 34.3845 124.72 34.0165 125.088C33.6565 125.448 33.2325 125.72 32.7445 125.904C32.2565 126.088 31.7365 126.18 31.1845 126.18C30.6325 126.18 30.1085 126.088 29.6125 125.904C29.1245 125.72 28.6965 125.448 28.3285 125.088C27.9685 124.72 27.6805 124.264 27.4645 123.72C27.2485 123.176 27.1405 122.548 27.1405 121.836C27.1405 121.124 27.2485 120.5 27.4645 119.964C27.6805 119.42 27.9725 118.964 28.3405 118.596C28.7165 118.228 29.1485 117.952 29.6365 117.768C30.1245 117.584 30.6405 117.492 31.1845 117.492C31.7285 117.492 32.2445 117.584 32.7325 117.768C33.2205 117.952 33.6445 118.228 34.0045 118.596C34.3725 118.964 34.6645 119.42 34.8805 119.964C35.0965 120.5 35.2045 121.124 35.2045 121.836ZM39.1552 117.6C40.3552 117.6 41.2712 117.82 41.9032 118.26C42.5432 118.7 42.8632 119.372 42.8632 120.276C42.8632 121.404 42.3072 122.168 41.1952 122.568C41.3472 122.752 41.5192 122.976 41.7112 123.24C41.9032 123.504 42.0992 123.792 42.2992 124.104C42.4992 124.408 42.6912 124.724 42.8752 125.052C43.0592 125.372 43.2232 125.688 43.3672 126H41.6752C41.5232 125.712 41.3592 125.424 41.1832 125.136C41.0072 124.84 40.8272 124.556 40.6432 124.284C40.4672 124.004 40.2912 123.744 40.1152 123.504C39.9392 123.256 39.7752 123.036 39.6232 122.844C39.5112 122.852 39.4152 122.856 39.3352 122.856C39.2552 122.856 39.1792 122.856 39.1072 122.856H38.3752V126H36.8632V117.804C37.2312 117.724 37.6232 117.672 38.0392 117.648C38.4552 117.616 38.8272 117.6 39.1552 117.6ZM39.2632 118.908C38.9432 118.908 38.6472 118.92 38.3752 118.944V121.632H39.0352C39.4032 121.632 39.7272 121.612 40.0072 121.572C40.2872 121.532 40.5192 121.46 40.7032 121.356C40.8952 121.252 41.0392 121.112 41.1352 120.936C41.2312 120.76 41.2792 120.536 41.2792 120.264C41.2792 120.008 41.2312 119.792 41.1352 119.616C41.0392 119.44 40.8992 119.3 40.7152 119.196C40.5392 119.092 40.3272 119.02 40.0792 118.98C39.8312 118.932 39.5592 118.908 39.2632 118.908ZM47.047 126.096C46.607 126.096 46.163 126.08 45.715 126.048C45.267 126.024 44.875 125.968 44.539 125.88V117.804C44.715 117.772 44.903 117.744 45.103 117.72C45.303 117.688 45.507 117.664 45.715 117.648C45.923 117.632 46.127 117.62 46.327 117.612C46.535 117.604 46.731 117.6 46.915 117.6C47.419 117.6 47.887 117.64 48.319 117.72C48.751 117.792 49.123 117.916 49.435 118.092C49.755 118.268 50.003 118.5 50.179 118.788C50.355 119.076 50.443 119.432 50.443 119.856C50.443 120.248 50.347 120.584 50.155 120.864C49.971 121.144 49.711 121.368 49.375 121.536C49.879 121.704 50.251 121.952 50.491 122.28C50.731 122.608 50.851 123.024 50.851 123.528C50.851 124.384 50.539 125.028 49.915 125.46C49.291 125.884 48.335 126.096 47.047 126.096ZM46.027 122.256V124.788C46.195 124.804 46.375 124.816 46.567 124.824C46.759 124.832 46.935 124.836 47.095 124.836C47.407 124.836 47.695 124.816 47.959 124.776C48.231 124.736 48.463 124.668 48.655 124.572C48.855 124.468 49.011 124.332 49.123 124.164C49.243 123.996 49.303 123.78 49.303 123.516C49.303 123.044 49.131 122.716 48.787 122.532C48.443 122.348 47.967 122.256 47.359 122.256H46.027ZM46.027 121.068H47.095C47.671 121.068 48.123 120.988 48.451 120.828C48.779 120.66 48.943 120.364 48.943 119.94C48.943 119.54 48.771 119.256 48.427 119.088C48.091 118.92 47.651 118.836 47.107 118.836C46.875 118.836 46.667 118.84 46.483 118.848C46.307 118.856 46.155 118.868 46.027 118.884V121.068ZM52.4257 126V117.684H57.7657V118.968H53.9377V121.02H57.3457V122.28H53.9377V124.716H58.0537V126H52.4257ZM61.4729 124.872C62.0169 124.872 62.4129 124.78 62.6609 124.596C62.9089 124.412 63.0329 124.152 63.0329 123.816C63.0329 123.616 62.9889 123.444 62.9009 123.3C62.8209 123.156 62.7009 123.028 62.5409 122.916C62.3889 122.796 62.2009 122.688 61.9769 122.592C61.7529 122.488 61.4969 122.388 61.2089 122.292C60.9209 122.188 60.6409 122.076 60.3689 121.956C60.1049 121.828 59.8689 121.672 59.6609 121.488C59.4609 121.304 59.2969 121.084 59.1689 120.828C59.0489 120.572 58.9889 120.264 58.9889 119.904C58.9889 119.152 59.2489 118.564 59.7689 118.14C60.2889 117.708 60.9969 117.492 61.8929 117.492C62.4129 117.492 62.8729 117.552 63.2729 117.672C63.6809 117.784 64.0009 117.908 64.2329 118.044L63.7649 119.268C63.4929 119.116 63.1929 119 62.8649 118.92C62.5449 118.84 62.2129 118.8 61.8689 118.8C61.4609 118.8 61.1409 118.884 60.9089 119.052C60.6849 119.22 60.5729 119.456 60.5729 119.76C60.5729 119.944 60.6089 120.104 60.6809 120.24C60.7609 120.368 60.8689 120.484 61.0049 120.588C61.1489 120.692 61.3129 120.788 61.4969 120.876C61.6889 120.964 61.8969 121.048 62.1209 121.128C62.5129 121.272 62.8609 121.42 63.1649 121.572C63.4769 121.716 63.7369 121.892 63.9449 122.1C64.1609 122.3 64.3249 122.54 64.4369 122.82C64.5489 123.092 64.6049 123.424 64.6049 123.816C64.6049 124.568 64.3369 125.152 63.8009 125.568C63.2729 125.976 62.4969 126.18 61.4729 126.18C61.1289 126.18 60.8129 126.156 60.5249 126.108C60.2449 126.068 59.9929 126.016 59.7689 125.952C59.5529 125.888 59.3649 125.824 59.2049 125.76C59.0449 125.688 58.9169 125.624 58.8209 125.568L59.2649 124.332C59.4809 124.452 59.7729 124.572 60.1409 124.692C60.5089 124.812 60.9529 124.872 61.4729 124.872ZM67.3654 124.404C67.3814 124.54 67.3894 124.64 67.3894 124.704C67.3894 124.768 67.3894 124.832 67.3894 124.896C67.3894 125.392 67.3094 125.904 67.1494 126.432C66.9974 126.96 66.7814 127.46 66.5014 127.932L65.3614 127.62C65.5534 127.156 65.6814 126.7 65.7454 126.252C65.8174 125.812 65.8534 125.424 65.8534 125.088C65.8534 124.992 65.8494 124.872 65.8414 124.728C65.8414 124.584 65.8374 124.476 65.8294 124.404H67.3654ZM71.9491 126V117.684H77.2891V118.968H73.4611V121.02H76.8691V122.28H73.4611V124.716H77.5771V126H71.9491ZM82.3717 126.18C81.7477 126.18 81.1877 126.084 80.6917 125.892C80.1957 125.7 79.7757 125.42 79.4317 125.052C79.0877 124.676 78.8237 124.22 78.6397 123.684C78.4557 123.148 78.3637 122.532 78.3637 121.836C78.3637 121.14 78.4677 120.524 78.6757 119.988C78.8917 119.452 79.1837 119 79.5517 118.632C79.9197 118.256 80.3517 117.972 80.8477 117.78C81.3437 117.588 81.8757 117.492 82.4437 117.492C82.7877 117.492 83.0997 117.52 83.3797 117.576C83.6597 117.624 83.9037 117.68 84.1117 117.744C84.3197 117.808 84.4917 117.876 84.6277 117.948C84.7637 118.02 84.8597 118.072 84.9157 118.104L84.4717 119.34C84.2797 119.22 84.0037 119.108 83.6437 119.004C83.2917 118.892 82.9077 118.836 82.4917 118.836C82.1317 118.836 81.7957 118.9 81.4837 119.028C81.1717 119.148 80.8997 119.332 80.6677 119.58C80.4437 119.828 80.2677 120.14 80.1397 120.516C80.0117 120.892 79.9477 121.328 79.9477 121.824C79.9477 122.264 79.9957 122.668 80.0917 123.036C80.1957 123.404 80.3517 123.724 80.5597 123.996C80.7677 124.26 81.0317 124.468 81.3517 124.62C81.6717 124.764 82.0557 124.836 82.5037 124.836C83.0397 124.836 83.4757 124.784 83.8117 124.68C84.1477 124.568 84.4077 124.464 84.5917 124.368L84.9997 125.604C84.9037 125.668 84.7717 125.732 84.6037 125.796C84.4437 125.86 84.2517 125.924 84.0277 125.988C83.8037 126.044 83.5517 126.088 83.2717 126.12C82.9917 126.16 82.6917 126.18 82.3717 126.18ZM87.3531 121.836C87.3531 122.292 87.4091 122.708 87.5211 123.084C87.6331 123.452 87.7931 123.768 88.0011 124.032C88.2171 124.288 88.4771 124.488 88.7811 124.632C89.0851 124.776 89.4291 124.848 89.8131 124.848C90.1891 124.848 90.5291 124.776 90.8331 124.632C91.1371 124.488 91.3931 124.288 91.6011 124.032C91.8171 123.768 91.9811 123.452 92.0931 123.084C92.2051 122.708 92.2611 122.292 92.2611 121.836C92.2611 121.38 92.2051 120.968 92.0931 120.6C91.9811 120.224 91.8171 119.908 91.6011 119.652C91.3931 119.388 91.1371 119.184 90.8331 119.04C90.5291 118.896 90.1891 118.824 89.8131 118.824C89.4291 118.824 89.0851 118.896 88.7811 119.04C88.4771 119.184 88.2171 119.388 88.0011 119.652C87.7931 119.916 87.6331 120.232 87.5211 120.6C87.4091 120.968 87.3531 121.38 87.3531 121.836ZM93.8451 121.836C93.8451 122.548 93.7371 123.176 93.5211 123.72C93.3131 124.264 93.0251 124.72 92.6571 125.088C92.2971 125.448 91.8731 125.72 91.3851 125.904C90.8971 126.088 90.3771 126.18 89.8251 126.18C89.2731 126.18 88.7491 126.088 88.2531 125.904C87.7651 125.72 87.3371 125.448 86.9691 125.088C86.6091 124.72 86.3211 124.264 86.1051 123.72C85.8891 123.176 85.7811 122.548 85.7811 121.836C85.7811 121.124 85.8891 120.5 86.1051 119.964C86.3211 119.42 86.6131 118.964 86.9811 118.596C87.3571 118.228 87.7891 117.952 88.2771 117.768C88.7651 117.584 89.2811 117.492 89.8251 117.492C90.3691 117.492 90.8851 117.584 91.3731 117.768C91.8611 117.952 92.2851 118.228 92.6451 118.596C93.0131 118.964 93.3051 119.42 93.5211 119.964C93.7371 120.5 93.8451 121.124 93.8451 121.836ZM101.108 126C100.836 125.544 100.532 125.056 100.196 124.536C99.8598 124.008 99.5118 123.48 99.1518 122.952C98.7918 122.416 98.4238 121.9 98.0478 121.404C97.6798 120.9 97.3278 120.448 96.9918 120.048V126H95.5038V117.684H96.7398C97.0598 118.02 97.4038 118.42 97.7718 118.884C98.1398 119.34 98.5078 119.816 98.8758 120.312C99.2518 120.808 99.6118 121.308 99.9558 121.812C100.308 122.308 100.62 122.772 100.892 123.204V117.684H102.392V126H101.108ZM105.623 121.836C105.623 122.292 105.679 122.708 105.791 123.084C105.903 123.452 106.063 123.768 106.271 124.032C106.487 124.288 106.747 124.488 107.051 124.632C107.355 124.776 107.699 124.848 108.083 124.848C108.459 124.848 108.799 124.776 109.103 124.632C109.407 124.488 109.663 124.288 109.871 124.032C110.087 123.768 110.251 123.452 110.363 123.084C110.475 122.708 110.531 122.292 110.531 121.836C110.531 121.38 110.475 120.968 110.363 120.6C110.251 120.224 110.087 119.908 109.871 119.652C109.663 119.388 109.407 119.184 109.103 119.04C108.799 118.896 108.459 118.824 108.083 118.824C107.699 118.824 107.355 118.896 107.051 119.04C106.747 119.184 106.487 119.388 106.271 119.652C106.063 119.916 105.903 120.232 105.791 120.6C105.679 120.968 105.623 121.38 105.623 121.836ZM112.115 121.836C112.115 122.548 112.007 123.176 111.791 123.72C111.583 124.264 111.295 124.72 110.927 125.088C110.567 125.448 110.143 125.72 109.655 125.904C109.167 126.088 108.647 126.18 108.095 126.18C107.543 126.18 107.019 126.088 106.523 125.904C106.035 125.72 105.607 125.448 105.239 125.088C104.879 124.72 104.591 124.264 104.375 123.72C104.159 123.176 104.051 122.548 104.051 121.836C104.051 121.124 104.159 120.5 104.375 119.964C104.591 119.42 104.883 118.964 105.251 118.596C105.627 118.228 106.059 117.952 106.547 117.768C107.035 117.584 107.551 117.492 108.095 117.492C108.639 117.492 109.155 117.584 109.643 117.768C110.131 117.952 110.555 118.228 110.915 118.596C111.283 118.964 111.575 119.42 111.791 119.964C112.007 120.5 112.115 121.124 112.115 121.836ZM115.585 117.684C115.761 117.988 115.957 118.36 116.173 118.8C116.389 119.24 116.609 119.704 116.833 120.192C117.057 120.672 117.277 121.164 117.493 121.668C117.717 122.164 117.921 122.624 118.105 123.048C118.289 122.624 118.489 122.164 118.705 121.668C118.921 121.164 119.141 120.672 119.365 120.192C119.589 119.704 119.809 119.24 120.025 118.8C120.241 118.36 120.437 117.988 120.613 117.684H121.981C122.053 118.292 122.121 118.94 122.185 119.628C122.249 120.308 122.305 121.008 122.353 121.728C122.409 122.44 122.457 123.16 122.497 123.888C122.545 124.608 122.585 125.312 122.617 126H121.129C121.097 125.032 121.057 124.036 121.009 123.012C120.969 121.988 120.905 120.996 120.817 120.036C120.729 120.22 120.625 120.44 120.505 120.696C120.385 120.952 120.257 121.232 120.121 121.536C119.985 121.832 119.845 122.14 119.701 122.46C119.565 122.78 119.429 123.092 119.293 123.396C119.165 123.692 119.045 123.972 118.933 124.236C118.821 124.492 118.725 124.712 118.645 124.896H117.517C117.437 124.712 117.341 124.488 117.229 124.224C117.117 123.96 116.993 123.68 116.857 123.384C116.729 123.08 116.593 122.768 116.449 122.448C116.313 122.128 116.177 121.82 116.041 121.524C115.905 121.228 115.777 120.952 115.657 120.696C115.537 120.432 115.433 120.212 115.345 120.036C115.257 120.996 115.189 121.988 115.141 123.012C115.101 124.036 115.065 125.032 115.033 126H113.545C113.577 125.312 113.613 124.6 113.653 123.864C113.701 123.128 113.749 122.4 113.797 121.68C113.853 120.952 113.913 120.248 113.977 119.568C114.041 118.888 114.109 118.26 114.181 117.684H115.585ZM124.379 117.684H125.891V126H124.379V117.684ZM129.899 124.872C130.443 124.872 130.839 124.78 131.087 124.596C131.335 124.412 131.459 124.152 131.459 123.816C131.459 123.616 131.415 123.444 131.327 123.3C131.247 123.156 131.127 123.028 130.967 122.916C130.815 122.796 130.627 122.688 130.403 122.592C130.179 122.488 129.923 122.388 129.635 122.292C129.347 122.188 129.067 122.076 128.795 121.956C128.531 121.828 128.295 121.672 128.087 121.488C127.887 121.304 127.723 121.084 127.595 120.828C127.475 120.572 127.415 120.264 127.415 119.904C127.415 119.152 127.675 118.564 128.195 118.14C128.715 117.708 129.423 117.492 130.319 117.492C130.839 117.492 131.299 117.552 131.699 117.672C132.107 117.784 132.427 117.908 132.659 118.044L132.191 119.268C131.919 119.116 131.619 119 131.291 118.92C130.971 118.84 130.639 118.8 130.295 118.8C129.887 118.8 129.567 118.884 129.335 119.052C129.111 119.22 128.999 119.456 128.999 119.76C128.999 119.944 129.035 120.104 129.107 120.24C129.187 120.368 129.295 120.484 129.431 120.588C129.575 120.692 129.739 120.788 129.923 120.876C130.115 120.964 130.323 121.048 130.547 121.128C130.939 121.272 131.287 121.42 131.591 121.572C131.903 121.716 132.163 121.892 132.371 122.1C132.587 122.3 132.751 122.54 132.863 122.82C132.975 123.092 133.031 123.424 133.031 123.816C133.031 124.568 132.763 125.152 132.227 125.568C131.699 125.976 130.923 126.18 129.899 126.18C129.555 126.18 129.239 126.156 128.951 126.108C128.671 126.068 128.419 126.016 128.195 125.952C127.979 125.888 127.791 125.824 127.631 125.76C127.471 125.688 127.343 125.624 127.247 125.568L127.691 124.332C127.907 124.452 128.199 124.572 128.567 124.692C128.935 124.812 129.379 124.872 129.899 124.872ZM140.159 117.684V118.992H137.603V126H136.079V118.992H133.523V117.684H140.159ZM144.113 126V117.684H145.613V123.204C145.885 122.772 146.193 122.308 146.537 121.812C146.889 121.308 147.249 120.808 147.617 120.312C147.993 119.816 148.365 119.34 148.733 118.884C149.101 118.42 149.445 118.02 149.765 117.684H151.001V126H149.513V120.048C149.177 120.448 148.821 120.9 148.445 121.404C148.077 121.9 147.713 122.416 147.353 122.952C146.993 123.48 146.645 124.008 146.309 124.536C145.973 125.056 145.669 125.544 145.397 126H144.113ZM24.884 134.824C24.028 134.824 23.372 135.092 22.916 135.628C22.468 136.156 22.244 136.892 22.244 137.836C22.244 138.284 22.296 138.696 22.4 139.072C22.512 139.44 22.672 139.756 22.88 140.02C23.096 140.284 23.36 140.492 23.672 140.644C23.992 140.788 24.364 140.86 24.788 140.86C25.052 140.86 25.28 140.852 25.472 140.836C25.664 140.812 25.816 140.784 25.928 140.752V137.764H27.44V141.76C27.232 141.84 26.88 141.928 26.384 142.024C25.888 142.12 25.316 142.168 24.668 142.168C24.068 142.168 23.52 142.072 23.024 141.88C22.528 141.688 22.104 141.408 21.752 141.04C21.408 140.672 21.14 140.22 20.948 139.684C20.756 139.148 20.66 138.532 20.66 137.836C20.66 137.14 20.764 136.524 20.972 135.988C21.188 135.452 21.48 135 21.848 134.632C22.216 134.256 22.648 133.972 23.144 133.78C23.64 133.588 24.168 133.492 24.728 133.492C25.112 133.492 25.452 133.52 25.748 133.576C26.052 133.624 26.312 133.68 26.528 133.744C26.744 133.808 26.92 133.876 27.056 133.948C27.2 134.02 27.3 134.072 27.356 134.104L26.9 135.34C26.66 135.196 26.36 135.076 26 134.98C25.648 134.876 25.276 134.824 24.884 134.824ZM32.3914 142.18C31.8234 142.18 31.3354 142.1 30.9274 141.94C30.5194 141.772 30.1794 141.54 29.9074 141.244C29.6434 140.948 29.4474 140.6 29.3194 140.2C29.1914 139.8 29.1274 139.36 29.1274 138.88V133.684H30.6514V138.736C30.6514 139.112 30.6914 139.436 30.7714 139.708C30.8594 139.972 30.9794 140.188 31.1314 140.356C31.2914 140.524 31.4754 140.648 31.6834 140.728C31.8994 140.808 32.1394 140.848 32.4034 140.848C32.6674 140.848 32.9074 140.808 33.1234 140.728C33.3394 140.648 33.5234 140.524 33.6754 140.356C33.8354 140.188 33.9554 139.972 34.0354 139.708C34.1234 139.436 34.1674 139.112 34.1674 138.736V133.684H35.6914V138.88C35.6914 139.36 35.6234 139.8 35.4874 140.2C35.3594 140.6 35.1594 140.948 34.8874 141.244C34.6234 141.54 34.2834 141.772 33.8674 141.94C33.4514 142.1 32.9594 142.18 32.3914 142.18ZM43.0394 142C42.9274 141.672 42.8114 141.348 42.6914 141.028C42.5714 140.708 42.4554 140.38 42.3434 140.044H38.8394C38.7274 140.38 38.6114 140.712 38.4914 141.04C38.3794 141.36 38.2674 141.68 38.1554 142H36.5834C36.8954 141.112 37.1914 140.292 37.4714 139.54C37.7514 138.788 38.0234 138.076 38.2874 137.404C38.5594 136.732 38.8274 136.092 39.0914 135.484C39.3554 134.876 39.6274 134.276 39.9074 133.684H41.3354C41.6154 134.276 41.8874 134.876 42.1514 135.484C42.4154 136.092 42.6794 136.732 42.9434 137.404C43.2154 138.076 43.4914 138.788 43.7714 139.54C44.0594 140.292 44.3594 141.112 44.6714 142H43.0394ZM40.5914 135.292C40.4074 135.716 40.1954 136.232 39.9554 136.84C39.7234 137.448 39.4794 138.108 39.2234 138.82H41.9594C41.7034 138.108 41.4554 137.444 41.2154 136.828C40.9754 136.212 40.7674 135.7 40.5914 135.292ZM48.0146 133.6C49.2146 133.6 50.1306 133.82 50.7626 134.26C51.4026 134.7 51.7226 135.372 51.7226 136.276C51.7226 137.404 51.1666 138.168 50.0546 138.568C50.2066 138.752 50.3786 138.976 50.5706 139.24C50.7626 139.504 50.9586 139.792 51.1586 140.104C51.3586 140.408 51.5506 140.724 51.7346 141.052C51.9186 141.372 52.0826 141.688 52.2266 142H50.5346C50.3826 141.712 50.2186 141.424 50.0426 141.136C49.8666 140.84 49.6866 140.556 49.5026 140.284C49.3266 140.004 49.1506 139.744 48.9746 139.504C48.7986 139.256 48.6346 139.036 48.4826 138.844C48.3706 138.852 48.2746 138.856 48.1946 138.856C48.1146 138.856 48.0386 138.856 47.9666 138.856H47.2346V142H45.7226V133.804C46.0906 133.724 46.4826 133.672 46.8986 133.648C47.3146 133.616 47.6866 133.6 48.0146 133.6ZM48.1226 134.908C47.8026 134.908 47.5066 134.92 47.2346 134.944V137.632H47.8946C48.2626 137.632 48.5866 137.612 48.8666 137.572C49.1466 137.532 49.3786 137.46 49.5626 137.356C49.7546 137.252 49.8986 137.112 49.9946 136.936C50.0906 136.76 50.1386 136.536 50.1386 136.264C50.1386 136.008 50.0906 135.792 49.9946 135.616C49.8986 135.44 49.7586 135.3 49.5746 135.196C49.3986 135.092 49.1866 135.02 48.9386 134.98C48.6906 134.932 48.4186 134.908 48.1226 134.908ZM54.9103 140.752C54.9983 140.76 55.1143 140.768 55.2583 140.776C55.4023 140.776 55.5983 140.776 55.8463 140.776C56.8623 140.776 57.6183 140.52 58.1143 140.008C58.6183 139.488 58.8703 138.764 58.8703 137.836C58.8703 136.892 58.6263 136.168 58.1383 135.664C57.6503 135.16 56.8943 134.908 55.8703 134.908C55.4223 134.908 55.1023 134.92 54.9103 134.944V140.752ZM60.4543 137.836C60.4543 138.556 60.3423 139.184 60.1183 139.72C59.8943 140.248 59.5743 140.692 59.1583 141.052C58.7503 141.404 58.2543 141.668 57.6703 141.844C57.0943 142.012 56.4543 142.096 55.7503 142.096C55.4143 142.096 55.0343 142.08 54.6103 142.048C54.1863 142.024 53.7823 141.968 53.3983 141.88V133.804C53.7823 133.716 54.1903 133.66 54.6223 133.636C55.0543 133.612 55.4383 133.6 55.7743 133.6C56.4703 133.6 57.1063 133.684 57.6823 133.852C58.2583 134.012 58.7503 134.268 59.1583 134.62C59.5743 134.964 59.8943 135.404 60.1183 135.94C60.3423 136.468 60.4543 137.1 60.4543 137.836ZM62.1054 133.684H63.6174V142H62.1054V133.684ZM71.1293 142C71.0173 141.672 70.9013 141.348 70.7813 141.028C70.6613 140.708 70.5453 140.38 70.4333 140.044H66.9293C66.8173 140.38 66.7013 140.712 66.5813 141.04C66.4693 141.36 66.3573 141.68 66.2453 142H64.6733C64.9853 141.112 65.2813 140.292 65.5613 139.54C65.8413 138.788 66.1133 138.076 66.3773 137.404C66.6493 136.732 66.9173 136.092 67.1813 135.484C67.4453 134.876 67.7173 134.276 67.9973 133.684H69.4253C69.7053 134.276 69.9773 134.876 70.2413 135.484C70.5053 136.092 70.7693 136.732 71.0333 137.404C71.3053 138.076 71.5813 138.788 71.8613 139.54C72.1493 140.292 72.4493 141.112 72.7613 142H71.1293ZM68.6813 135.292C68.4973 135.716 68.2853 136.232 68.0453 136.84C67.8133 137.448 67.5693 138.108 67.3133 138.82H70.0493C69.7933 138.108 69.5453 137.444 69.3053 136.828C69.0653 136.212 68.8573 135.7 68.6813 135.292ZM79.4164 142C79.1444 141.544 78.8404 141.056 78.5044 140.536C78.1684 140.008 77.8204 139.48 77.4604 138.952C77.1004 138.416 76.7324 137.9 76.3564 137.404C75.9884 136.9 75.6364 136.448 75.3004 136.048V142H73.8124V133.684H75.0484C75.3684 134.02 75.7124 134.42 76.0804 134.884C76.4484 135.34 76.8164 135.816 77.1844 136.312C77.5604 136.808 77.9204 137.308 78.2644 137.812C78.6164 138.308 78.9284 138.772 79.2004 139.204V133.684H80.7004V142H79.4164Z" fill="white"/>
<defs>
<linearGradient id="paint0_linear" x1="90" y1="0" x2="90" y2="170" gradientUnits="userSpaceOnUse">
<stop stop-color="#FF2F01"/>
<stop offset="1" stop-color="#FF055F"/>
</linearGradient>
</defs>
</svg>
