<svg width="180" height="170" viewBox="0 0 180 170" fill="none" xmlns="http://www.w3.org/2000/svg">
<rect width="180" height="170" rx="16" fill="url(#paint0_linear)"/>
<path d="M21.632 74.472C31.808 67.208 36.896 61.432 36.896 57.144C36.896 54.52 35.76 53.208 33.488 53.208C32.208 53.208 31.264 53.656 30.656 54.552C30.08 55.448 29.76 56.84 29.696 58.728H21.68C21.872 54.6 23.12 51.496 25.424 49.416C27.728 47.336 30.64 46.296 34.16 46.296C37.84 46.296 40.608 47.224 42.464 49.08C44.352 50.936 45.296 53.352 45.296 56.328C45.296 59.624 44.032 62.856 41.504 66.024C38.976 69.16 35.952 71.816 32.432 73.992H45.824V80.616H21.632V74.472ZM49.2035 63.672C49.2035 68.984 50.2755 73.192 52.4195 76.296C54.5635 79.4 57.9875 80.952 62.6915 80.952C67.3635 80.952 70.7715 79.4 72.9155 76.296C75.0915 73.192 76.1795 68.984 76.1795 63.672C76.1795 58.392 75.0915 54.216 72.9155 51.144C70.7715 48.04 67.3635 46.488 62.6915 46.488C57.9875 46.488 54.5635 48.04 52.4195 51.144C50.2755 54.216 49.2035 58.392 49.2035 63.672ZM68.0195 63.672C68.0195 66.712 67.6515 69.064 66.9155 70.728C66.2115 72.36 64.8035 73.176 62.6915 73.176C60.5475 73.176 59.1075 72.36 58.3715 70.728C57.6355 69.064 57.2675 66.712 57.2675 63.672C57.2675 60.664 57.6355 58.344 58.3715 56.712C59.1075 55.08 60.5475 54.264 62.6915 54.264C64.8035 54.264 66.2115 55.08 66.9155 56.712C67.6515 58.312 68.0195 60.632 68.0195 63.672ZM78.6061 54.744V47.064H92.3341V81H83.6941V54.744H78.6061ZM98.4035 54.696C98.4035 53.064 98.8675 51.528 99.7955 50.088C100.724 48.648 102.1 47.48 103.924 46.584C105.78 45.688 108.02 45.24 110.644 45.24C113.3 45.24 115.54 45.688 117.364 46.584C119.22 47.48 120.596 48.648 121.492 50.088C122.42 51.528 122.884 53.064 122.884 54.696C122.884 56.488 122.468 58.024 121.635 59.304C120.804 60.552 119.588 61.512 117.988 62.184C121.796 63.88 123.7 66.744 123.7 70.776C123.7 73.08 123.124 75.064 121.972 76.728C120.82 78.36 119.252 79.608 117.268 80.472C115.316 81.304 113.108 81.72 110.644 81.72C108.212 81.72 106.004 81.304 104.02 80.472C102.036 79.608 100.468 78.36 99.3155 76.728C98.1635 75.064 97.5875 73.08 97.5875 70.776C97.5875 66.744 99.4915 63.88 103.3 62.184C101.7 61.512 100.484 60.552 99.6515 59.304C98.8195 58.024 98.4035 56.488 98.4035 54.696ZM106.468 56.088C106.468 57.4 106.836 58.408 107.572 59.112C108.34 59.784 109.364 60.12 110.644 60.12C111.924 60.12 112.932 59.784 113.668 59.112C114.436 58.408 114.82 57.4 114.82 56.088C114.82 54.808 114.436 53.8 113.668 53.064C112.9 52.328 111.892 51.96 110.644 51.96C109.396 51.96 108.388 52.328 107.62 53.064C106.852 53.8 106.468 54.808 106.468 56.088ZM105.556 70.296C105.556 71.736 106.004 72.872 106.9 73.704C107.828 74.536 109.076 74.952 110.644 74.952C112.212 74.952 113.444 74.536 114.34 73.704C115.268 72.872 115.732 71.736 115.732 70.296C115.732 68.856 115.252 67.736 114.292 66.936C113.364 66.104 112.148 65.688 110.644 65.688C109.14 65.688 107.908 66.104 106.948 66.936C106.02 67.736 105.556 68.856 105.556 70.296Z" fill="white"/>
<path d="M22.472 110.968V112.72H23.288C23.888 112.72 24.424 112.768 24.896 112.864C25.368 112.96 25.768 113.116 26.096 113.332C26.424 113.54 26.672 113.816 26.84 114.16C27.016 114.496 27.104 114.908 27.104 115.396C27.104 116.3 26.776 116.976 26.12 117.424C25.472 117.864 24.544 118.084 23.336 118.084C23 118.084 22.62 118.064 22.196 118.024C21.772 117.992 21.372 117.932 20.996 117.844V109.684H26.324V110.968H22.472ZM23 116.776C23.088 116.776 23.188 116.776 23.3 116.776C23.412 116.776 23.536 116.772 23.672 116.764C23.92 116.756 24.156 116.728 24.38 116.68C24.612 116.632 24.812 116.556 24.98 116.452C25.156 116.348 25.292 116.212 25.388 116.044C25.492 115.876 25.544 115.664 25.544 115.408C25.544 115.12 25.492 114.884 25.388 114.7C25.284 114.516 25.132 114.372 24.932 114.268C24.732 114.156 24.488 114.08 24.2 114.04C23.92 113.992 23.6 113.968 23.24 113.968H22.472V116.752C22.544 116.76 22.62 116.768 22.7 116.776C22.788 116.776 22.888 116.776 23 116.776ZM29.7789 113.836C29.7789 114.292 29.8349 114.708 29.9469 115.084C30.0589 115.452 30.2189 115.768 30.4269 116.032C30.6429 116.288 30.9029 116.488 31.2069 116.632C31.5109 116.776 31.8549 116.848 32.2389 116.848C32.6149 116.848 32.9549 116.776 33.2589 116.632C33.5629 116.488 33.8189 116.288 34.0269 116.032C34.2429 115.768 34.4069 115.452 34.5189 115.084C34.6309 114.708 34.6869 114.292 34.6869 113.836C34.6869 113.38 34.6309 112.968 34.5189 112.6C34.4069 112.224 34.2429 111.908 34.0269 111.652C33.8189 111.388 33.5629 111.184 33.2589 111.04C32.9549 110.896 32.6149 110.824 32.2389 110.824C31.8549 110.824 31.5109 110.896 31.2069 111.04C30.9029 111.184 30.6429 111.388 30.4269 111.652C30.2189 111.916 30.0589 112.232 29.9469 112.6C29.8349 112.968 29.7789 113.38 29.7789 113.836ZM36.2709 113.836C36.2709 114.548 36.1629 115.176 35.9469 115.72C35.7389 116.264 35.4509 116.72 35.0829 117.088C34.7229 117.448 34.2989 117.72 33.8109 117.904C33.3229 118.088 32.8029 118.18 32.2509 118.18C31.6989 118.18 31.1749 118.088 30.6789 117.904C30.1909 117.72 29.7629 117.448 29.3949 117.088C29.0349 116.72 28.7469 116.264 28.5309 115.72C28.3149 115.176 28.2069 114.548 28.2069 113.836C28.2069 113.124 28.3149 112.5 28.5309 111.964C28.7469 111.42 29.0389 110.964 29.4069 110.596C29.7829 110.228 30.2149 109.952 30.7029 109.768C31.1909 109.584 31.7069 109.492 32.2509 109.492C32.7949 109.492 33.3109 109.584 33.7989 109.768C34.2869 109.952 34.7109 110.228 35.0709 110.596C35.4389 110.964 35.7309 111.42 35.9469 111.964C36.1629 112.5 36.2709 113.124 36.2709 113.836ZM40.8632 110.98C40.8392 111.524 40.8112 112.08 40.7792 112.648C40.7472 113.208 40.6872 113.752 40.5992 114.28C40.5192 114.8 40.3992 115.292 40.2392 115.756C40.0792 116.22 39.8592 116.628 39.5792 116.98C39.2992 117.324 38.9472 117.6 38.5232 117.808C38.1072 118.016 37.5952 118.128 36.9872 118.144L36.8192 116.824C37.1072 116.792 37.3592 116.736 37.5752 116.656C37.7912 116.576 37.9792 116.472 38.1392 116.344C38.2992 116.208 38.4392 116.044 38.5592 115.852C38.6792 115.652 38.7832 115.42 38.8712 115.156C39.0872 114.532 39.2312 113.752 39.3032 112.816C39.3752 111.88 39.4112 110.836 39.4112 109.684H44.6072V118H43.0832V110.98H40.8632ZM52.7575 115.384C52.7575 116.272 52.4215 116.948 51.7495 117.412C51.0855 117.868 50.1495 118.096 48.9415 118.096C48.6055 118.096 48.2255 118.076 47.8015 118.036C47.3855 117.996 46.9855 117.932 46.6015 117.844V109.684H48.1135V112.672C48.2495 112.656 48.3775 112.648 48.4975 112.648C48.6175 112.648 48.7415 112.648 48.8695 112.648C51.4615 112.648 52.7575 113.56 52.7575 115.384ZM48.7615 113.944C48.6655 113.944 48.5615 113.944 48.4495 113.944C48.3375 113.944 48.2255 113.952 48.1135 113.968V116.776C48.2255 116.784 48.3535 116.792 48.4975 116.8C48.6495 116.8 48.8295 116.8 49.0375 116.8C49.3175 116.8 49.5855 116.78 49.8415 116.74C50.1055 116.692 50.3335 116.616 50.5255 116.512C50.7255 116.4 50.8855 116.256 51.0055 116.08C51.1255 115.896 51.1855 115.664 51.1855 115.384C51.1855 115.104 51.1255 114.872 51.0055 114.688C50.8935 114.504 50.7295 114.356 50.5135 114.244C50.3055 114.132 50.0535 114.056 49.7575 114.016C49.4615 113.968 49.1295 113.944 48.7615 113.944ZM54.1835 118V109.684H55.6955V116.716H58.4315V109.684H59.9555V116.716H62.6915V109.684H64.2035V118H54.1835ZM66.1952 118V109.684H71.5352V110.968H67.7072V113.02H71.1152V114.28H67.7072V116.716H71.8232V118H66.1952ZM76.1113 111.412C76.5753 111.228 77.0393 110.992 77.5033 110.704C77.9753 110.416 78.3913 110.076 78.7513 109.684H79.7713V118H78.3193V111.628C78.1033 111.796 77.8313 111.96 77.5033 112.12C77.1753 112.28 76.8593 112.412 76.5553 112.516L76.1113 111.412ZM88.1516 113.836C88.1516 115.236 87.8956 116.312 87.3836 117.064C86.8716 117.808 86.1636 118.18 85.2596 118.18C84.3556 118.18 83.6476 117.808 83.1356 117.064C82.6236 116.312 82.3676 115.236 82.3676 113.836C82.3676 113.14 82.4316 112.524 82.5596 111.988C82.6956 111.444 82.8876 110.988 83.1356 110.62C83.3916 110.252 83.6956 109.972 84.0476 109.78C84.4076 109.588 84.8116 109.492 85.2596 109.492C86.1636 109.492 86.8716 109.868 87.3836 110.62C87.8956 111.364 88.1516 112.436 88.1516 113.836ZM86.6516 113.836C86.6516 113.404 86.6276 113 86.5796 112.624C86.5316 112.248 86.4516 111.924 86.3396 111.652C86.2356 111.372 86.0956 111.152 85.9196 110.992C85.7436 110.832 85.5236 110.752 85.2596 110.752C84.9956 110.752 84.7716 110.832 84.5876 110.992C84.4116 111.152 84.2676 111.372 84.1556 111.652C84.0516 111.924 83.9756 112.248 83.9276 112.624C83.8876 113 83.8676 113.404 83.8676 113.836C83.8676 114.268 83.8876 114.672 83.9276 115.048C83.9756 115.424 84.0516 115.752 84.1556 116.032C84.2676 116.304 84.4116 116.52 84.5876 116.68C84.7716 116.84 84.9956 116.92 85.2596 116.92C85.5236 116.92 85.7436 116.84 85.9196 116.68C86.0956 116.52 86.2356 116.304 86.3396 116.032C86.4516 115.752 86.5316 115.424 86.5796 115.048C86.6276 114.672 86.6516 114.268 86.6516 113.836ZM94.9719 113.836C94.9719 115.236 94.7159 116.312 94.2039 117.064C93.6919 117.808 92.9839 118.18 92.0799 118.18C91.1759 118.18 90.4679 117.808 89.9559 117.064C89.4439 116.312 89.1879 115.236 89.1879 113.836C89.1879 113.14 89.2519 112.524 89.3799 111.988C89.5159 111.444 89.7079 110.988 89.9559 110.62C90.2119 110.252 90.5159 109.972 90.8679 109.78C91.2279 109.588 91.6319 109.492 92.0799 109.492C92.9839 109.492 93.6919 109.868 94.2039 110.62C94.7159 111.364 94.9719 112.436 94.9719 113.836ZM93.4719 113.836C93.4719 113.404 93.4479 113 93.3999 112.624C93.3519 112.248 93.2719 111.924 93.1599 111.652C93.0559 111.372 92.9159 111.152 92.7399 110.992C92.5639 110.832 92.3439 110.752 92.0799 110.752C91.8159 110.752 91.5919 110.832 91.4079 110.992C91.2319 111.152 91.0879 111.372 90.9759 111.652C90.8719 111.924 90.7959 112.248 90.7479 112.624C90.7079 113 90.6879 113.404 90.6879 113.836C90.6879 114.268 90.7079 114.672 90.7479 115.048C90.7959 115.424 90.8719 115.752 90.9759 116.032C91.0879 116.304 91.2319 116.52 91.4079 116.68C91.5919 116.84 91.8159 116.92 92.0799 116.92C92.3439 116.92 92.5639 116.84 92.7399 116.68C92.9159 116.52 93.0559 116.304 93.1599 116.032C93.2719 115.752 93.3519 115.424 93.3999 115.048C93.4479 114.672 93.4719 114.268 93.4719 113.836ZM105.085 109.684V110.992H102.529V118H101.005V110.992H98.449V109.684H105.085ZM112.274 115.384C112.274 115.832 112.186 116.224 112.01 116.56C111.842 116.896 111.594 117.18 111.266 117.412C110.946 117.636 110.554 117.808 110.09 117.928C109.634 118.04 109.118 118.096 108.542 118.096C108.206 118.096 107.834 118.076 107.426 118.036C107.018 117.996 106.622 117.932 106.238 117.844V109.684H107.75V112.672C107.87 112.656 107.99 112.648 108.11 112.648C108.23 112.648 108.346 112.648 108.458 112.648C109.722 112.648 110.674 112.876 111.314 113.332C111.954 113.78 112.274 114.464 112.274 115.384ZM113.426 109.684H114.938V118H113.426V109.684ZM108.386 113.944C108.298 113.944 108.194 113.944 108.074 113.944C107.962 113.944 107.854 113.952 107.75 113.968V116.776C107.862 116.792 107.982 116.8 108.11 116.8C108.246 116.8 108.426 116.8 108.65 116.8C108.922 116.8 109.182 116.78 109.43 116.74C109.686 116.692 109.906 116.616 110.09 116.512C110.274 116.4 110.422 116.256 110.534 116.08C110.646 115.896 110.702 115.664 110.702 115.384C110.702 115.104 110.646 114.872 110.534 114.688C110.43 114.504 110.278 114.356 110.078 114.244C109.878 114.132 109.634 114.056 109.346 114.016C109.066 113.968 108.746 113.944 108.386 113.944ZM120.622 118.18C119.998 118.18 119.438 118.084 118.942 117.892C118.446 117.7 118.026 117.42 117.682 117.052C117.338 116.676 117.074 116.22 116.89 115.684C116.706 115.148 116.614 114.532 116.614 113.836C116.614 113.14 116.718 112.524 116.926 111.988C117.142 111.452 117.434 111 117.802 110.632C118.17 110.256 118.602 109.972 119.098 109.78C119.594 109.588 120.126 109.492 120.694 109.492C121.038 109.492 121.35 109.52 121.63 109.576C121.91 109.624 122.154 109.68 122.362 109.744C122.57 109.808 122.742 109.876 122.878 109.948C123.014 110.02 123.11 110.072 123.166 110.104L122.722 111.34C122.53 111.22 122.254 111.108 121.894 111.004C121.542 110.892 121.158 110.836 120.742 110.836C120.382 110.836 120.046 110.9 119.734 111.028C119.422 111.148 119.15 111.332 118.918 111.58C118.694 111.828 118.518 112.14 118.39 112.516C118.262 112.892 118.198 113.328 118.198 113.824C118.198 114.264 118.246 114.668 118.342 115.036C118.446 115.404 118.602 115.724 118.81 115.996C119.018 116.26 119.282 116.468 119.602 116.62C119.922 116.764 120.306 116.836 120.754 116.836C121.29 116.836 121.726 116.784 122.062 116.68C122.398 116.568 122.658 116.464 122.842 116.368L123.25 117.604C123.154 117.668 123.022 117.732 122.854 117.796C122.694 117.86 122.502 117.924 122.278 117.988C122.054 118.044 121.802 118.088 121.522 118.12C121.242 118.16 120.942 118.18 120.622 118.18ZM128.19 109.6C128.518 109.6 128.89 109.616 129.306 109.648C129.722 109.672 130.114 109.724 130.482 109.804V118H128.97V114.88H128.094C127.99 114.88 127.882 114.88 127.77 114.88C127.658 114.872 127.554 114.86 127.458 114.844C127.298 115.036 127.138 115.256 126.978 115.504C126.818 115.744 126.658 116.004 126.498 116.284C126.346 116.556 126.19 116.84 126.03 117.136C125.878 117.424 125.73 117.712 125.586 118H123.978C124.122 117.688 124.278 117.372 124.446 117.052C124.614 116.732 124.782 116.424 124.95 116.128C125.126 115.824 125.298 115.544 125.466 115.288C125.642 115.024 125.802 114.8 125.946 114.616C125.402 114.416 125.002 114.12 124.746 113.728C124.49 113.336 124.362 112.852 124.362 112.276C124.362 111.828 124.45 111.436 124.626 111.1C124.81 110.764 125.066 110.488 125.394 110.272C125.73 110.048 126.134 109.88 126.606 109.768C127.078 109.656 127.606 109.6 128.19 109.6ZM128.082 110.908C127.778 110.908 127.494 110.932 127.23 110.98C126.974 111.02 126.75 111.092 126.558 111.196C126.366 111.3 126.214 111.44 126.102 111.616C125.998 111.792 125.946 112.008 125.946 112.264C125.946 112.536 125.998 112.76 126.102 112.936C126.214 113.112 126.37 113.252 126.57 113.356C126.778 113.46 127.026 113.532 127.314 113.572C127.61 113.612 127.942 113.632 128.31 113.632H128.97V110.944C128.69 110.92 128.394 110.908 128.082 110.908ZM133.652 112.108C133.652 112.772 133.796 113.24 134.084 113.512C134.372 113.776 134.832 113.908 135.464 113.908C135.72 113.908 135.976 113.892 136.232 113.86C136.496 113.828 136.72 113.796 136.904 113.764V109.684H138.416V118H136.904V115.06C136.696 115.1 136.448 115.136 136.16 115.168C135.872 115.192 135.58 115.204 135.284 115.204C134.724 115.204 134.244 115.148 133.844 115.036C133.452 114.916 133.128 114.732 132.872 114.484C132.624 114.236 132.44 113.92 132.32 113.536C132.2 113.152 132.14 112.692 132.14 112.156V109.684H133.652V112.108ZM28.1 125.492C28.628 125.492 29.128 125.584 29.6 125.768C30.072 125.952 30.488 126.228 30.848 126.596C31.208 126.964 31.492 127.42 31.7 127.964C31.908 128.5 32.012 129.124 32.012 129.836C32.012 130.548 31.908 131.176 31.7 131.72C31.492 132.256 31.208 132.708 30.848 133.076C30.496 133.436 30.084 133.708 29.612 133.892C29.14 134.076 28.636 134.168 28.1 134.168C27.596 134.168 27.116 134.088 26.66 133.928C26.212 133.76 25.812 133.516 25.46 133.196C25.116 132.868 24.832 132.464 24.608 131.984C24.384 131.504 24.248 130.944 24.2 130.304H22.508V134H20.996V125.684H22.508V129.02H24.236C24.316 128.444 24.472 127.936 24.704 127.496C24.944 127.056 25.236 126.688 25.58 126.392C25.924 126.096 26.312 125.872 26.744 125.72C27.176 125.568 27.628 125.492 28.1 125.492ZM28.1 132.848C28.844 132.848 29.42 132.58 29.828 132.044C30.236 131.5 30.44 130.764 30.44 129.836C30.44 129.38 30.388 128.968 30.284 128.6C30.18 128.224 30.028 127.904 29.828 127.64C29.628 127.376 29.38 127.176 29.084 127.04C28.796 126.896 28.468 126.824 28.1 126.824C27.732 126.824 27.4 126.896 27.104 127.04C26.816 127.176 26.572 127.376 26.372 127.64C26.172 127.904 26.016 128.224 25.904 128.6C25.8 128.968 25.748 129.38 25.748 129.836C25.748 130.764 25.952 131.5 26.36 132.044C26.776 132.58 27.356 132.848 28.1 132.848ZM34.9918 129.032C35.2238 129.032 35.4558 129.016 35.6878 128.984C35.9198 128.944 36.1278 128.88 36.3118 128.792C36.4958 128.696 36.6438 128.572 36.7558 128.42C36.8678 128.26 36.9238 128.06 36.9238 127.82C36.9238 127.508 36.7918 127.26 36.5278 127.076C36.2718 126.892 35.9158 126.8 35.4598 126.8C35.0198 126.8 34.6278 126.852 34.2838 126.956C33.9478 127.052 33.6638 127.168 33.4318 127.304L32.9398 126.092C33.1958 125.932 33.5438 125.796 33.9838 125.684C34.4318 125.564 34.9278 125.504 35.4718 125.504C35.9038 125.504 36.3038 125.552 36.6718 125.648C37.0398 125.736 37.3558 125.876 37.6198 126.068C37.8838 126.26 38.0918 126.5 38.2438 126.788C38.3958 127.076 38.4718 127.412 38.4718 127.796C38.4718 128.148 38.3718 128.484 38.1718 128.804C37.9718 129.116 37.6678 129.36 37.2598 129.536C37.4758 129.616 37.6798 129.716 37.8718 129.836C38.0638 129.956 38.2318 130.104 38.3758 130.28C38.5198 130.456 38.6318 130.66 38.7118 130.892C38.7998 131.116 38.8438 131.372 38.8438 131.66C38.8438 132.108 38.7638 132.492 38.6038 132.812C38.4438 133.124 38.2158 133.384 37.9198 133.592C37.6238 133.792 37.2598 133.94 36.8278 134.036C36.4038 134.132 35.9278 134.18 35.3998 134.18C35.1038 134.18 34.8198 134.16 34.5478 134.12C34.2758 134.08 34.0198 134.028 33.7798 133.964C33.5398 133.9 33.3238 133.832 33.1318 133.76C32.9398 133.68 32.7798 133.608 32.6518 133.544L33.0958 132.332C33.1998 132.38 33.3278 132.436 33.4798 132.5C33.6318 132.556 33.8038 132.612 33.9958 132.668C34.1878 132.724 34.3958 132.772 34.6198 132.812C34.8438 132.852 35.0718 132.872 35.3038 132.872C35.9278 132.872 36.4078 132.78 36.7438 132.596C37.0878 132.404 37.2598 132.076 37.2598 131.612C37.2598 131.34 37.1998 131.116 37.0798 130.94C36.9678 130.764 36.8078 130.628 36.5998 130.532C36.3998 130.436 36.1598 130.372 35.8798 130.34C35.5998 130.3 35.2998 130.28 34.9798 130.28H34.0438V129.032H34.9918ZM40.414 134V125.684H45.754V126.968H41.926V129.02H45.334V130.28H41.926V132.716H46.042V134H40.414ZM49.7972 125.6C51.0052 125.6 51.9292 125.82 52.5692 126.26C53.2172 126.7 53.5412 127.388 53.5412 128.324C53.5412 128.812 53.4532 129.232 53.2772 129.584C53.1092 129.928 52.8612 130.212 52.5332 130.436C52.2052 130.652 51.8052 130.812 51.3332 130.916C50.8612 131.02 50.3212 131.072 49.7132 131.072H48.9572V134H47.4452V125.804C47.7972 125.724 48.1852 125.672 48.6092 125.648C49.0412 125.616 49.4372 125.6 49.7972 125.6ZM49.9052 126.908C49.5212 126.908 49.2052 126.92 48.9572 126.944V129.776H49.6892C50.4172 129.776 50.9772 129.676 51.3692 129.476C51.7612 129.268 51.9572 128.88 51.9572 128.312C51.9572 128.04 51.9052 127.812 51.8012 127.628C51.6972 127.444 51.5532 127.3 51.3692 127.196C51.1852 127.092 50.9652 127.02 50.7092 126.98C50.4612 126.932 50.1932 126.908 49.9052 126.908ZM56.1578 129.836C56.1578 130.292 56.2138 130.708 56.3258 131.084C56.4378 131.452 56.5978 131.768 56.8058 132.032C57.0218 132.288 57.2818 132.488 57.5858 132.632C57.8898 132.776 58.2338 132.848 58.6178 132.848C58.9938 132.848 59.3338 132.776 59.6378 132.632C59.9418 132.488 60.1978 132.288 60.4058 132.032C60.6218 131.768 60.7858 131.452 60.8978 131.084C61.0098 130.708 61.0658 130.292 61.0658 129.836C61.0658 129.38 61.0098 128.968 60.8978 128.6C60.7858 128.224 60.6218 127.908 60.4058 127.652C60.1978 127.388 59.9418 127.184 59.6378 127.04C59.3338 126.896 58.9938 126.824 58.6178 126.824C58.2338 126.824 57.8898 126.896 57.5858 127.04C57.2818 127.184 57.0218 127.388 56.8058 127.652C56.5978 127.916 56.4378 128.232 56.3258 128.6C56.2138 128.968 56.1578 129.38 56.1578 129.836ZM62.6498 129.836C62.6498 130.548 62.5418 131.176 62.3258 131.72C62.1178 132.264 61.8298 132.72 61.4618 133.088C61.1018 133.448 60.6778 133.72 60.1898 133.904C59.7018 134.088 59.1818 134.18 58.6298 134.18C58.0778 134.18 57.5538 134.088 57.0578 133.904C56.5698 133.72 56.1418 133.448 55.7738 133.088C55.4138 132.72 55.1258 132.264 54.9098 131.72C54.6938 131.176 54.5858 130.548 54.5858 129.836C54.5858 129.124 54.6938 128.5 54.9098 127.964C55.1258 127.42 55.4178 126.964 55.7858 126.596C56.1618 126.228 56.5938 125.952 57.0818 125.768C57.5698 125.584 58.0858 125.492 58.6298 125.492C59.1738 125.492 59.6898 125.584 60.1778 125.768C60.6658 125.952 61.0898 126.228 61.4498 126.596C61.8178 126.964 62.1098 127.42 62.3258 127.964C62.5418 128.5 62.6498 129.124 62.6498 129.836ZM66.8165 134.096C66.3765 134.096 65.9325 134.08 65.4845 134.048C65.0365 134.024 64.6445 133.968 64.3085 133.88V125.804C64.4845 125.772 64.6725 125.744 64.8725 125.72C65.0725 125.688 65.2765 125.664 65.4845 125.648C65.6925 125.632 65.8965 125.62 66.0965 125.612C66.3045 125.604 66.5005 125.6 66.6845 125.6C67.1885 125.6 67.6565 125.64 68.0885 125.72C68.5205 125.792 68.8925 125.916 69.2045 126.092C69.5245 126.268 69.7725 126.5 69.9485 126.788C70.1245 127.076 70.2125 127.432 70.2125 127.856C70.2125 128.248 70.1165 128.584 69.9245 128.864C69.7405 129.144 69.4805 129.368 69.1445 129.536C69.6485 129.704 70.0205 129.952 70.2605 130.28C70.5005 130.608 70.6205 131.024 70.6205 131.528C70.6205 132.384 70.3085 133.028 69.6845 133.46C69.0605 133.884 68.1045 134.096 66.8165 134.096ZM65.7965 130.256V132.788C65.9645 132.804 66.1445 132.816 66.3365 132.824C66.5285 132.832 66.7045 132.836 66.8645 132.836C67.1765 132.836 67.4645 132.816 67.7285 132.776C68.0005 132.736 68.2325 132.668 68.4245 132.572C68.6245 132.468 68.7805 132.332 68.8925 132.164C69.0125 131.996 69.0725 131.78 69.0725 131.516C69.0725 131.044 68.9005 130.716 68.5565 130.532C68.2125 130.348 67.7365 130.256 67.1285 130.256H65.7965ZM65.7965 129.068H66.8645C67.4405 129.068 67.8925 128.988 68.2205 128.828C68.5485 128.66 68.7125 128.364 68.7125 127.94C68.7125 127.54 68.5405 127.256 68.1965 127.088C67.8605 126.92 67.4205 126.836 66.8765 126.836C66.6445 126.836 66.4365 126.84 66.2525 126.848C66.0765 126.856 65.9245 126.868 65.7965 126.884V129.068Z" fill="white"/>
<defs>
<linearGradient id="paint0_linear" x1="90" y1="0" x2="90" y2="170" gradientUnits="userSpaceOnUse">
<stop stop-color="#FF2F01"/>
<stop offset="1" stop-color="#FF055F"/>
</linearGradient>
</defs>
</svg>
