<svg width="180" height="170" viewBox="0 0 180 170" fill="none" xmlns="http://www.w3.org/2000/svg">
<rect width="180" height="170" rx="16" fill="url(#paint0_linear)"/>
<path d="M21.872 74.424C22.96 73.56 23.456 73.16 23.36 73.224C26.496 70.632 28.96 68.504 30.752 66.84C32.576 65.176 34.112 63.432 35.36 61.608C36.608 59.784 37.232 58.008 37.232 56.28C37.232 54.968 36.928 53.944 36.32 53.208C35.712 52.472 34.8 52.104 33.584 52.104C32.368 52.104 31.408 52.568 30.704 53.496C30.032 54.392 29.696 55.672 29.696 57.336H21.776C21.84 54.616 22.416 52.344 23.504 50.52C24.624 48.696 26.08 47.352 27.872 46.488C29.696 45.624 31.712 45.192 33.92 45.192C37.728 45.192 40.592 46.168 42.512 48.12C44.464 50.072 45.44 52.616 45.44 55.752C45.44 59.176 44.272 62.36 41.936 65.304C39.6 68.216 36.624 71.064 33.008 73.848H45.968V80.52H21.872V74.424ZM49.5819 63C49.5819 57.496 50.6379 53.16 52.7499 49.992C54.8939 46.824 58.3339 45.24 63.0699 45.24C67.8059 45.24 71.2299 46.824 73.3419 49.992C75.4859 53.16 76.5579 57.496 76.5579 63C76.5579 68.568 75.4859 72.936 73.3419 76.104C71.2299 79.272 67.8059 80.856 63.0699 80.856C58.3339 80.856 54.8939 79.272 52.7499 76.104C50.6379 72.936 49.5819 68.568 49.5819 63ZM68.4939 63C68.4939 59.768 68.1419 57.288 67.4379 55.56C66.7339 53.8 65.2779 52.92 63.0699 52.92C60.8619 52.92 59.4059 53.8 58.7019 55.56C57.9979 57.288 57.6459 59.768 57.6459 63C57.6459 65.176 57.7739 66.984 58.0299 68.424C58.2859 69.832 58.7979 70.984 59.5659 71.88C60.3659 72.744 61.5339 73.176 63.0699 73.176C64.6059 73.176 65.7579 72.744 66.5259 71.88C67.3259 70.984 67.8539 69.832 68.1099 68.424C68.3659 66.984 68.4939 65.176 68.4939 63ZM80.0304 53.592V45.96H93.3264V81H84.7824V53.592H80.0304ZM121.309 52.104L109.261 81H100.861L113.053 53.016H98.1253V46.008H121.309V52.104Z" fill="white"/>
<path d="M22.652 113.032C22.884 113.032 23.116 113.016 23.348 112.984C23.58 112.944 23.788 112.88 23.972 112.792C24.156 112.696 24.304 112.572 24.416 112.42C24.528 112.26 24.584 112.06 24.584 111.82C24.584 111.508 24.452 111.26 24.188 111.076C23.932 110.892 23.576 110.8 23.12 110.8C22.68 110.8 22.288 110.852 21.944 110.956C21.608 111.052 21.324 111.168 21.092 111.304L20.6 110.092C20.856 109.932 21.204 109.796 21.644 109.684C22.092 109.564 22.588 109.504 23.132 109.504C23.564 109.504 23.964 109.552 24.332 109.648C24.7 109.736 25.016 109.876 25.28 110.068C25.544 110.26 25.752 110.5 25.904 110.788C26.056 111.076 26.132 111.412 26.132 111.796C26.132 112.148 26.032 112.484 25.832 112.804C25.632 113.116 25.328 113.36 24.92 113.536C25.136 113.616 25.34 113.716 25.532 113.836C25.724 113.956 25.892 114.104 26.036 114.28C26.18 114.456 26.292 114.66 26.372 114.892C26.46 115.116 26.504 115.372 26.504 115.66C26.504 116.108 26.424 116.492 26.264 116.812C26.104 117.124 25.876 117.384 25.58 117.592C25.284 117.792 24.92 117.94 24.488 118.036C24.064 118.132 23.588 118.18 23.06 118.18C22.764 118.18 22.48 118.16 22.208 118.12C21.936 118.08 21.68 118.028 21.44 117.964C21.2 117.9 20.984 117.832 20.792 117.76C20.6 117.68 20.44 117.608 20.312 117.544L20.756 116.332C20.86 116.38 20.988 116.436 21.14 116.5C21.292 116.556 21.464 116.612 21.656 116.668C21.848 116.724 22.056 116.772 22.28 116.812C22.504 116.852 22.732 116.872 22.964 116.872C23.588 116.872 24.068 116.78 24.404 116.596C24.748 116.404 24.92 116.076 24.92 115.612C24.92 115.34 24.86 115.116 24.74 114.94C24.628 114.764 24.468 114.628 24.26 114.532C24.06 114.436 23.82 114.372 23.54 114.34C23.26 114.3 22.96 114.28 22.64 114.28H21.704V113.032H22.652ZM33.5941 118C33.4821 117.672 33.3661 117.348 33.2461 117.028C33.1261 116.708 33.0101 116.38 32.8981 116.044H29.3941C29.2821 116.38 29.1661 116.712 29.0461 117.04C28.9341 117.36 28.8221 117.68 28.7101 118H27.1381C27.4501 117.112 27.7461 116.292 28.0261 115.54C28.3061 114.788 28.5781 114.076 28.8421 113.404C29.1141 112.732 29.3821 112.092 29.6461 111.484C29.9101 110.876 30.1821 110.276 30.4621 109.684H31.8901C32.1701 110.276 32.4421 110.876 32.7061 111.484C32.9701 112.092 33.2341 112.732 33.4981 113.404C33.7701 114.076 34.0461 114.788 34.3261 115.54C34.6141 116.292 34.9141 117.112 35.2261 118H33.5941ZM31.1461 111.292C30.9621 111.716 30.7501 112.232 30.5101 112.84C30.2781 113.448 30.0341 114.108 29.7781 114.82H32.5141C32.2581 114.108 32.0101 113.444 31.7701 112.828C31.5301 112.212 31.3221 111.7 31.1461 111.292ZM42.8533 109.684V118H41.3412V110.98H37.7893V118H36.2773V109.684H42.8533ZM48.9117 115.516C48.7117 115.964 48.5037 116.356 48.2877 116.692C48.0797 117.02 47.8477 117.292 47.5917 117.508C47.3437 117.724 47.0637 117.884 46.7517 117.988C46.4477 118.092 46.1037 118.144 45.7197 118.144C45.4877 118.144 45.2437 118.12 44.9877 118.072C44.7397 118.024 44.5357 117.964 44.3757 117.892L44.6517 116.644C44.8037 116.708 44.9637 116.76 45.1317 116.8C45.2997 116.832 45.4717 116.848 45.6477 116.848C46.0157 116.848 46.3197 116.764 46.5597 116.596C46.8077 116.428 47.0357 116.152 47.2437 115.768C46.9077 115.224 46.5837 114.676 46.2717 114.124C45.9677 113.572 45.6837 113.036 45.4197 112.516C45.1557 111.988 44.9117 111.484 44.6877 111.004C44.4717 110.524 44.2757 110.084 44.0997 109.684H45.7917C45.9197 110.012 46.0637 110.364 46.2237 110.74C46.3917 111.116 46.5677 111.504 46.7517 111.904C46.9437 112.304 47.1437 112.712 47.3517 113.128C47.5597 113.544 47.7677 113.96 47.9757 114.376C48.2637 113.664 48.5397 112.904 48.8037 112.096C49.0677 111.288 49.3157 110.484 49.5477 109.684H51.1797C50.9877 110.276 50.7957 110.836 50.6037 111.364C50.4117 111.884 50.2197 112.384 50.0277 112.864C49.8437 113.336 49.6557 113.792 49.4637 114.232C49.2797 114.664 49.0957 115.092 48.9117 115.516ZM55.7584 118.18C55.1344 118.18 54.5744 118.084 54.0784 117.892C53.5824 117.7 53.1624 117.42 52.8184 117.052C52.4744 116.676 52.2104 116.22 52.0264 115.684C51.8424 115.148 51.7504 114.532 51.7504 113.836C51.7504 113.14 51.8544 112.524 52.0624 111.988C52.2784 111.452 52.5704 111 52.9384 110.632C53.3064 110.256 53.7384 109.972 54.2344 109.78C54.7304 109.588 55.2624 109.492 55.8304 109.492C56.1744 109.492 56.4864 109.52 56.7664 109.576C57.0464 109.624 57.2904 109.68 57.4984 109.744C57.7064 109.808 57.8784 109.876 58.0144 109.948C58.1504 110.02 58.2464 110.072 58.3024 110.104L57.8584 111.34C57.6664 111.22 57.3904 111.108 57.0304 111.004C56.6784 110.892 56.2944 110.836 55.8784 110.836C55.5184 110.836 55.1824 110.9 54.8704 111.028C54.5584 111.148 54.2864 111.332 54.0544 111.58C53.8304 111.828 53.6544 112.14 53.5264 112.516C53.3984 112.892 53.3344 113.328 53.3344 113.824C53.3344 114.264 53.3824 114.668 53.4784 115.036C53.5824 115.404 53.7384 115.724 53.9464 115.996C54.1544 116.26 54.4184 116.468 54.7384 116.62C55.0584 116.764 55.4424 116.836 55.8904 116.836C56.4264 116.836 56.8624 116.784 57.1984 116.68C57.5344 116.568 57.7944 116.464 57.9784 116.368L58.3864 117.604C58.2904 117.668 58.1584 117.732 57.9904 117.796C57.8304 117.86 57.6384 117.924 57.4144 117.988C57.1904 118.044 56.9384 118.088 56.6584 118.12C56.3784 118.16 56.0784 118.18 55.7584 118.18ZM65.6865 109.684V110.992H63.1305V118H61.6065V110.992H59.0505V109.684H65.6865ZM66.8398 118V109.684H68.3398V115.204C68.6118 114.772 68.9198 114.308 69.2638 113.812C69.6158 113.308 69.9758 112.808 70.3438 112.312C70.7198 111.816 71.0918 111.34 71.4598 110.884C71.8278 110.42 72.1718 110.02 72.4918 109.684H73.7278V118H72.2398V112.048C71.9038 112.448 71.5478 112.9 71.1718 113.404C70.8038 113.9 70.4398 114.416 70.0798 114.952C69.7198 115.48 69.3718 116.008 69.0358 116.536C68.6998 117.056 68.3958 117.544 68.1238 118H66.8398ZM78.8906 110.98C78.8666 111.524 78.8386 112.08 78.8066 112.648C78.7746 113.208 78.7146 113.752 78.6266 114.28C78.5466 114.8 78.4266 115.292 78.2666 115.756C78.1066 116.22 77.8866 116.628 77.6066 116.98C77.3266 117.324 76.9746 117.6 76.5506 117.808C76.1346 118.016 75.6226 118.128 75.0146 118.144L74.8466 116.824C75.1346 116.792 75.3866 116.736 75.6026 116.656C75.8186 116.576 76.0066 116.472 76.1666 116.344C76.3266 116.208 76.4666 116.044 76.5866 115.852C76.7066 115.652 76.8106 115.42 76.8986 115.156C77.1146 114.532 77.2586 113.752 77.3306 112.816C77.4026 111.88 77.4386 110.836 77.4386 109.684H82.6346V118H81.1106V110.98H78.8906ZM84.6288 118V109.684H86.1288V115.204C86.4008 114.772 86.7088 114.308 87.0528 113.812C87.4048 113.308 87.7648 112.808 88.1328 112.312C88.5088 111.816 88.8808 111.34 89.2488 110.884C89.6168 110.42 89.9608 110.02 90.2808 109.684H91.5168V118H90.0288V112.048C89.6928 112.448 89.3368 112.9 88.9608 113.404C88.5928 113.9 88.2288 114.416 87.8688 114.952C87.5088 115.48 87.1608 116.008 86.8248 116.536C86.4888 117.056 86.1848 117.544 85.9128 118H84.6288ZM22.472 126.968V128.72H23.288C23.888 128.72 24.424 128.768 24.896 128.864C25.368 128.96 25.768 129.116 26.096 129.332C26.424 129.54 26.672 129.816 26.84 130.16C27.016 130.496 27.104 130.908 27.104 131.396C27.104 132.3 26.776 132.976 26.12 133.424C25.472 133.864 24.544 134.084 23.336 134.084C23 134.084 22.62 134.064 22.196 134.024C21.772 133.992 21.372 133.932 20.996 133.844V125.684H26.324V126.968H22.472ZM23 132.776C23.088 132.776 23.188 132.776 23.3 132.776C23.412 132.776 23.536 132.772 23.672 132.764C23.92 132.756 24.156 132.728 24.38 132.68C24.612 132.632 24.812 132.556 24.98 132.452C25.156 132.348 25.292 132.212 25.388 132.044C25.492 131.876 25.544 131.664 25.544 131.408C25.544 131.12 25.492 130.884 25.388 130.7C25.284 130.516 25.132 130.372 24.932 130.268C24.732 130.156 24.488 130.08 24.2 130.04C23.92 129.992 23.6 129.968 23.24 129.968H22.472V132.752C22.544 132.76 22.62 132.768 22.7 132.776C22.788 132.776 22.888 132.776 23 132.776ZM28.5429 134V125.684H33.8829V126.968H30.0549V129.02H33.4629V130.28H30.0549V132.716H34.1709V134H28.5429ZM41.3701 125.684V126.992H38.8141V134H37.2901V126.992H34.7341V125.684H41.3701ZM47.3637 134C47.2517 133.672 47.1357 133.348 47.0157 133.028C46.8957 132.708 46.7797 132.38 46.6677 132.044H43.1637C43.0517 132.38 42.9357 132.712 42.8157 133.04C42.7037 133.36 42.5917 133.68 42.4797 134H40.9077C41.2197 133.112 41.5157 132.292 41.7957 131.54C42.0757 130.788 42.3477 130.076 42.6117 129.404C42.8837 128.732 43.1517 128.092 43.4157 127.484C43.6797 126.876 43.9517 126.276 44.2317 125.684H45.6597C45.9397 126.276 46.2117 126.876 46.4757 127.484C46.7397 128.092 47.0037 128.732 47.2677 129.404C47.5397 130.076 47.8157 130.788 48.0957 131.54C48.3837 132.292 48.6837 133.112 48.9957 134H47.3637ZM44.9157 127.292C44.7317 127.716 44.5197 128.232 44.2797 128.84C44.0477 129.448 43.8037 130.108 43.5477 130.82H46.2837C46.0277 130.108 45.7797 129.444 45.5397 128.828C45.2997 128.212 45.0917 127.7 44.9157 127.292ZM49.3268 129.908H52.5548V131.24H49.3268V129.908ZM56.3399 134.096C55.8999 134.096 55.4559 134.08 55.0079 134.048C54.5599 134.024 54.1679 133.968 53.8319 133.88V125.804C54.0079 125.772 54.1959 125.744 54.3959 125.72C54.5959 125.688 54.7999 125.664 55.0079 125.648C55.2159 125.632 55.4199 125.62 55.6199 125.612C55.8279 125.604 56.0239 125.6 56.2079 125.6C56.7119 125.6 57.1799 125.64 57.6119 125.72C58.0439 125.792 58.4159 125.916 58.7279 126.092C59.0479 126.268 59.2959 126.5 59.4719 126.788C59.6479 127.076 59.7359 127.432 59.7359 127.856C59.7359 128.248 59.6399 128.584 59.4479 128.864C59.2639 129.144 59.0039 129.368 58.6679 129.536C59.1719 129.704 59.5439 129.952 59.7839 130.28C60.0239 130.608 60.1439 131.024 60.1439 131.528C60.1439 132.384 59.8319 133.028 59.2079 133.46C58.5839 133.884 57.6279 134.096 56.3399 134.096ZM55.3199 130.256V132.788C55.4879 132.804 55.6679 132.816 55.8599 132.824C56.0519 132.832 56.2279 132.836 56.3879 132.836C56.6999 132.836 56.9879 132.816 57.2519 132.776C57.5239 132.736 57.7559 132.668 57.9479 132.572C58.1479 132.468 58.3039 132.332 58.4159 132.164C58.5359 131.996 58.5959 131.78 58.5959 131.516C58.5959 131.044 58.4239 130.716 58.0799 130.532C57.7359 130.348 57.2599 130.256 56.6519 130.256H55.3199ZM55.3199 129.068H56.3879C56.9639 129.068 57.4159 128.988 57.7439 128.828C58.0719 128.66 58.2359 128.364 58.2359 127.94C58.2359 127.54 58.0639 127.256 57.7199 127.088C57.3839 126.92 56.9439 126.836 56.3999 126.836C56.1679 126.836 55.9599 126.84 55.7759 126.848C55.5999 126.856 55.4479 126.868 55.3199 126.884V129.068ZM61.7187 134V125.684H67.0587V126.968H63.2307V129.02H66.6387V130.28H63.2307V132.716H67.3467V134H61.7187ZM71.1019 125.6C72.3099 125.6 73.2339 125.82 73.8739 126.26C74.5219 126.7 74.8459 127.388 74.8459 128.324C74.8459 128.812 74.7579 129.232 74.5819 129.584C74.4139 129.928 74.1659 130.212 73.8379 130.436C73.5099 130.652 73.1099 130.812 72.6379 130.916C72.1659 131.02 71.6259 131.072 71.0179 131.072H70.2619V134H68.7499V125.804C69.1019 125.724 69.4899 125.672 69.9139 125.648C70.3459 125.616 70.7419 125.6 71.1019 125.6ZM71.2099 126.908C70.8259 126.908 70.5099 126.92 70.2619 126.944V129.776H70.9939C71.7219 129.776 72.2819 129.676 72.6739 129.476C73.0659 129.268 73.2619 128.88 73.2619 128.312C73.2619 128.04 73.2099 127.812 73.1059 127.628C73.0019 127.444 72.8579 127.3 72.6739 127.196C72.4899 127.092 72.2699 127.02 72.0139 126.98C71.7659 126.932 71.4979 126.908 71.2099 126.908ZM79.9225 134.18C79.2985 134.18 78.7385 134.084 78.2425 133.892C77.7465 133.7 77.3265 133.42 76.9825 133.052C76.6385 132.676 76.3745 132.22 76.1905 131.684C76.0065 131.148 75.9145 130.532 75.9145 129.836C75.9145 129.14 76.0185 128.524 76.2265 127.988C76.4425 127.452 76.7345 127 77.1025 126.632C77.4705 126.256 77.9025 125.972 78.3985 125.78C78.8945 125.588 79.4265 125.492 79.9945 125.492C80.3385 125.492 80.6505 125.52 80.9305 125.576C81.2105 125.624 81.4545 125.68 81.6625 125.744C81.8705 125.808 82.0425 125.876 82.1785 125.948C82.3145 126.02 82.4105 126.072 82.4665 126.104L82.0225 127.34C81.8305 127.22 81.5545 127.108 81.1945 127.004C80.8425 126.892 80.4585 126.836 80.0425 126.836C79.6825 126.836 79.3465 126.9 79.0345 127.028C78.7225 127.148 78.4505 127.332 78.2185 127.58C77.9945 127.828 77.8185 128.14 77.6905 128.516C77.5625 128.892 77.4985 129.328 77.4985 129.824C77.4985 130.264 77.5465 130.668 77.6425 131.036C77.7465 131.404 77.9025 131.724 78.1105 131.996C78.3185 132.26 78.5825 132.468 78.9025 132.62C79.2225 132.764 79.6065 132.836 80.0545 132.836C80.5905 132.836 81.0265 132.784 81.3625 132.68C81.6985 132.568 81.9585 132.464 82.1425 132.368L82.5505 133.604C82.4545 133.668 82.3225 133.732 82.1545 133.796C81.9945 133.86 81.8025 133.924 81.5785 133.988C81.3545 134.044 81.1025 134.088 80.8225 134.12C80.5425 134.16 80.2425 134.18 79.9225 134.18ZM83.8788 134V125.684H85.3788V131.204C85.6508 130.772 85.9588 130.308 86.3028 129.812C86.6548 129.308 87.0148 128.808 87.3828 128.312C87.7588 127.816 88.1308 127.34 88.4988 126.884C88.8668 126.42 89.2108 126.02 89.5308 125.684H90.7668V134H89.2788V128.048C88.9428 128.448 88.5868 128.9 88.2108 129.404C87.8428 129.9 87.4788 130.416 87.1188 130.952C86.7588 131.48 86.4108 132.008 86.0748 132.536C85.7388 133.056 85.4348 133.544 85.1628 134H83.8788ZM99.8656 125.492C100.394 125.492 100.894 125.584 101.366 125.768C101.838 125.952 102.254 126.228 102.614 126.596C102.974 126.964 103.258 127.42 103.466 127.964C103.674 128.5 103.778 129.124 103.778 129.836C103.778 130.548 103.674 131.176 103.466 131.72C103.258 132.256 102.974 132.708 102.614 133.076C102.262 133.436 101.85 133.708 101.378 133.892C100.906 134.076 100.402 134.168 99.8656 134.168C99.3616 134.168 98.8816 134.088 98.4256 133.928C97.9776 133.76 97.5776 133.516 97.2256 133.196C96.8816 132.868 96.5976 132.464 96.3736 131.984C96.1496 131.504 96.0136 130.944 95.9656 130.304H94.2736V134H92.7616V125.684H94.2736V129.02H96.0016C96.0816 128.444 96.2376 127.936 96.4696 127.496C96.7096 127.056 97.0016 126.688 97.3456 126.392C97.6896 126.096 98.0776 125.872 98.5096 125.72C98.9416 125.568 99.3936 125.492 99.8656 125.492ZM99.8656 132.848C100.61 132.848 101.186 132.58 101.594 132.044C102.002 131.5 102.206 130.764 102.206 129.836C102.206 129.38 102.154 128.968 102.05 128.6C101.946 128.224 101.794 127.904 101.594 127.64C101.394 127.376 101.146 127.176 100.85 127.04C100.562 126.896 100.234 126.824 99.8656 126.824C99.4976 126.824 99.1656 126.896 98.8696 127.04C98.5816 127.176 98.3376 127.376 98.1376 127.64C97.9376 127.904 97.7816 128.224 97.6696 128.6C97.5656 128.968 97.5136 129.38 97.5136 129.836C97.5136 130.764 97.7176 131.5 98.1256 132.044C98.5416 132.58 99.1216 132.848 99.8656 132.848Z" fill="white"/>
<defs>
<linearGradient id="paint0_linear" x1="90" y1="0" x2="90" y2="170" gradientUnits="userSpaceOnUse">
<stop stop-color="#FF2F01"/>
<stop offset="1" stop-color="#FF055F"/>
</linearGradient>
</defs>
</svg>
