<svg width="80" height="112" viewBox="0 0 80 112" fill="none" xmlns="http://www.w3.org/2000/svg">
<path fill-rule="evenodd" clip-rule="evenodd" d="M80 41.8657V6.13424C80 2.75198 77.2487 0 73.8657 0L6.13428 3.22877e-06C2.75201 3.37662e-06 -1.97785e-06 2.75198 0 6.13424V41.8657C0 45.248 2.75201 48 6.13428 48L38.5925 48V51.1765H36.4072C35.6305 51.1765 35.0001 51.8089 35.0001 52.5882C35.0001 53.3682 35.6305 54 36.4072 54H43.5929C44.3697 54 45.0001 53.3682 45.0001 52.5882C45.0001 51.8089 44.3697 51.1765 43.5929 51.1765H41.4069V48L73.8657 48C77.2487 48 80 45.248 80 41.8657ZM77 41.2174C77 43.4265 75.2091 45.2174 73 45.2174H7C4.79086 45.2174 3 43.4265 3 41.2174L3 6.7826C3 4.57347 4.79086 2.78261 7 2.78261L73 2.78261C75.2091 2.78261 77 4.57347 77 6.78261V41.2174ZM25.6885 97.5269C25.1595 107.131 22.7713 112 18.5918 112C10.5987 112 0 90.8503 0 74.9014C0 69.5694 1.18291 65.3012 3.51456 62.2143C6.24701 58.5986 10.4154 56.7647 15.9033 56.7647C19.1794 56.7647 22.3991 57.6188 25.2145 59.234C25.7366 59.5332 26.3068 59.6856 26.907 59.6856H27.6096C28.6782 59.6856 29.6931 59.1793 30.3246 58.3314C31.2092 57.1433 32.6326 56.4341 34.1319 56.4341H45.8689C47.369 56.4341 48.7924 57.1433 49.6769 58.3314C50.3078 59.1793 51.3234 59.6856 52.3919 59.6856H53.0946C53.6864 59.6856 54.2719 59.5291 54.787 59.234C57.6024 57.6188 60.8221 56.7647 64.0983 56.7647C70.2609 56.7647 74.7325 59.0529 77.3904 63.5657C83.4471 73.8512 77.8428 92.6082 71.9297 102.643C69.8699 106.137 65.7642 112 61.4111 112H61.409C57.2295 111.999 54.8421 107.128 54.313 97.5242C54.2168 95.7798 52.744 94.4134 50.9595 94.4134H29.0379C27.2555 94.4134 25.7847 95.7812 25.6885 97.5269ZM15.9033 59.4977C11.3473 59.4977 7.93317 60.9592 5.75488 63.8411C3.7871 66.4463 2.78821 70.1679 2.78821 74.9014C2.78821 90.7157 13.2343 109.267 18.5918 109.267C20.8816 109.267 22.4939 104.823 22.9045 97.38C23.0801 94.1838 25.7743 91.6804 29.0379 91.6804H50.9595C54.2252 91.6804 56.9214 94.1824 57.0971 97.3766C57.5069 104.821 59.1192 109.266 61.4104 109.267H61.4111C63.052 109.268 66.0423 107.168 69.5151 101.275C75.9767 90.3112 79.9019 73.2985 74.9751 64.9315C72.8519 61.3261 69.1923 59.4977 64.0983 59.4977C61.3163 59.4977 58.5839 60.222 56.1951 61.5925C55.2534 62.133 54.1813 62.4186 53.0946 62.4186H52.3919C50.436 62.4186 48.5791 61.4928 47.4247 59.9425C47.0574 59.4492 46.4907 59.167 45.8689 59.167H34.1319C33.5109 59.167 32.9441 59.4499 32.5768 59.9425C31.4225 61.4928 29.5655 62.4186 27.6096 62.4186H26.907C25.8203 62.4186 24.7482 62.133 23.8065 61.5925C21.4177 60.222 18.6852 59.4977 15.9033 59.4977ZM17.3529 87.5108C16.7911 86.9307 16.4934 86.1395 16.5359 85.3408L16.7227 81.8563L13.1685 82.0394C12.3571 82.079 11.5506 81.7934 10.9539 81.2393C10.3621 80.6893 10.022 79.9145 10.022 79.1131V76.4614C10.022 75.6613 10.3614 74.8859 10.9539 74.3352C11.5499 73.7811 12.3439 73.4886 13.1678 73.5344L16.7227 73.7182L16.5359 70.2344C16.4934 69.4343 16.7911 68.6431 17.3536 68.063C17.9133 67.4836 18.7038 67.1502 19.5214 67.1502H22.2267C23.0429 67.1502 23.8334 67.4829 24.3959 68.0637C24.957 68.6431 25.2547 69.4343 25.2122 70.233L25.0254 73.7182L28.5796 73.5344C29.4154 73.49 30.1996 73.7817 30.7942 74.3358C31.3867 74.8858 31.7261 75.6613 31.7261 76.4614V79.1131C31.7261 79.9138 31.3867 80.6886 30.7935 81.2393C30.1989 81.7927 29.4022 82.0804 28.5796 82.0394L25.0254 81.8563L25.2122 85.3401C25.2547 86.1395 24.957 86.9307 24.3959 87.5108C23.8327 88.0915 23.0429 88.4243 22.2267 88.4243H19.5214C18.7052 88.4243 17.9147 88.0915 17.3529 87.5108ZM12.8722 79.2559C12.9106 79.2914 12.9593 79.3105 13.0109 79.3105L18.1231 79.0475C18.1475 79.0461 18.1719 79.0454 18.1963 79.0454C18.5651 79.0454 18.9199 79.1889 19.1819 79.4458C19.4615 79.7198 19.6092 80.0969 19.5883 80.4836L19.32 85.4836C19.3179 85.5376 19.3367 85.5902 19.3757 85.6298C19.4134 85.6687 19.4664 85.6913 19.5214 85.6913H22.2267C22.2818 85.6913 22.3347 85.6687 22.3731 85.6298C22.4114 85.5902 22.4309 85.5376 22.4281 85.4829L22.1598 80.4836C22.1388 80.0969 22.2866 79.7198 22.5661 79.4458C22.845 79.1718 23.2249 79.0222 23.625 79.0475L28.7267 79.3105H28.7274C28.7888 79.3105 28.8375 79.2907 28.8745 79.2565C28.9149 79.219 28.9379 79.167 28.9379 79.1131V76.4614C28.9379 76.4074 28.9149 76.3555 28.8752 76.3179C28.8375 76.2831 28.788 76.264 28.7365 76.264L23.625 76.5263C23.2283 76.5482 22.8457 76.402 22.5661 76.1287C22.2866 75.8547 22.1388 75.4769 22.1598 75.0901L22.4281 70.0902C22.4309 70.0369 22.4107 69.9843 22.3731 69.9454C22.3347 69.9057 22.2818 69.8832 22.2267 69.8832H19.5214C19.4664 69.8832 19.4134 69.905 19.3757 69.944C19.3374 69.9843 19.3179 70.0369 19.32 70.0915L19.5883 75.0901C19.6092 75.4769 19.4615 75.8547 19.1819 76.1287C18.9031 76.402 18.5218 76.5495 18.1231 76.5263L13.0221 76.264H13.0207C12.9594 76.264 12.9106 76.2831 12.8729 76.3179C12.8332 76.3555 12.8102 76.4074 12.8102 76.4614V79.1131C12.8102 79.167 12.8325 79.219 12.8722 79.2559ZM58.7948 74.6718C60.0446 74.6718 61.2199 74.1949 62.1037 73.3285C63.9279 71.5405 63.9279 68.6306 62.1037 66.8419C61.2199 65.9755 60.0446 65.4986 58.7948 65.4986C57.545 65.4986 56.3698 65.9755 55.4852 66.8419C53.6617 68.6306 53.6617 71.5405 55.4859 73.3278C56.3698 74.1949 57.545 74.6718 58.7948 74.6718ZM57.4572 68.7747C57.8148 68.4242 58.2894 68.2316 58.7948 68.2316C59.3002 68.2316 59.7749 68.4242 60.1318 68.774C60.8693 69.4976 60.8693 70.6735 60.1318 71.3957C59.4173 72.0967 58.1716 72.096 57.4572 71.3957C56.7204 70.6735 56.7204 69.4976 57.4572 68.7747ZM55.4863 81.5767C56.3702 80.7103 57.5454 80.2334 58.7946 80.2334C60.0444 80.2334 61.2203 80.7103 62.1035 81.5767C63.9284 83.3654 63.9284 86.2746 62.1035 88.0627C61.2203 88.929 60.0451 89.4066 58.7946 89.4066C57.5447 89.4066 56.3702 88.929 55.4863 88.0627C53.6615 86.2746 53.6615 83.3654 55.4863 81.5767ZM57.4576 86.1304C58.1721 86.8308 59.4177 86.8315 60.1315 86.1304C60.8697 85.4076 60.8697 84.2317 60.1322 83.5089C59.7746 83.1591 59.2999 82.9664 58.7946 82.9664C58.2892 82.9664 57.8145 83.159 57.4576 83.5095C56.7201 84.2317 56.7201 85.4076 57.4576 86.1304ZM63.5033 80.2048C64.3879 81.0711 65.5624 81.548 66.8129 81.548C68.0627 81.548 69.238 81.0711 70.1211 80.2048C71.005 79.3384 71.4922 78.1865 71.4922 76.9614C71.4922 75.7364 71.005 74.5844 70.1219 73.7188C69.238 72.8524 68.0627 72.3755 66.8129 72.3755C65.5624 72.3755 64.3879 72.8524 63.504 73.7188C61.6791 75.5068 61.6791 78.4167 63.5033 80.2048ZM65.476 75.651C65.8329 75.3005 66.3076 75.1085 66.8129 75.1085C67.3176 75.1085 67.7923 75.3005 68.1499 75.651C68.5068 76.0015 68.704 76.4668 68.704 76.9614C68.704 77.4568 68.5068 77.9221 68.1499 78.2726C67.4354 78.9722 66.1905 78.9722 65.4753 78.2726C65.1184 77.9221 64.9218 77.4568 64.9218 76.9614C64.9218 76.4668 65.1184 76.0015 65.476 75.651ZM54.0859 80.2048C53.202 81.0711 52.0275 81.548 50.7777 81.548C49.5279 81.548 48.3526 81.0711 47.4688 80.2048C45.6439 78.4161 45.6439 75.5061 47.4688 73.7181C48.3526 72.8518 49.5279 72.3748 50.7777 72.3748C52.0275 72.3748 53.202 72.8518 54.0859 73.7181C54.9697 74.5845 55.4563 75.7357 55.4563 76.9614C55.4563 78.1865 54.9697 79.3384 54.0859 80.2048ZM50.7777 75.1078C50.2723 75.1078 49.7976 75.3005 49.44 75.6503C48.7032 76.3738 48.7032 77.549 49.44 78.2726C50.1552 78.9722 51.4001 78.9722 52.1146 78.2726C52.4715 77.9221 52.6681 77.4561 52.6681 76.9614C52.6681 76.4661 52.4715 76.0008 52.1146 75.651C51.757 75.3005 51.2823 75.1078 50.7777 75.1078Z" fill="white"/>
<rect x="3" y="2" width="74" height="44" fill="url(#paint0_linear)"/>
<path d="M34.8333 29C34.8333 29.4583 35.2083 29.8333 35.6667 29.8333H36.5V32.75C36.5 33.4417 37.0583 34 37.75 34C38.4417 34 39 33.4417 39 32.75V29.8333H40.6667V32.75C40.6667 33.4417 41.225 34 41.9167 34C42.6083 34 43.1667 33.4417 43.1667 32.75V29.8333H44C44.4583 29.8333 44.8333 29.4583 44.8333 29V20.6667H34.8333V29ZM32.75 20.6667C32.0583 20.6667 31.5 21.225 31.5 21.9167V27.75C31.5 28.4417 32.0583 29 32.75 29C33.4417 29 34 28.4417 34 27.75V21.9167C34 21.225 33.4417 20.6667 32.75 20.6667ZM46.9167 20.6667C46.225 20.6667 45.6667 21.225 45.6667 21.9167V27.75C45.6667 28.4417 46.225 29 46.9167 29C47.6083 29 48.1667 28.4417 48.1667 27.75V21.9167C48.1667 21.225 47.6083 20.6667 46.9167 20.6667ZM42.775 15.8L43.8583 14.7167C44.025 14.55 44.025 14.2917 43.8583 14.125C43.6917 13.9583 43.4333 13.9583 43.2667 14.125L42.0333 15.3583C41.375 15.025 40.625 14.8333 39.8333 14.8333C39.0333 14.8333 38.2833 15.025 37.6167 15.3583L36.375 14.125C36.2083 13.9583 35.95 13.9583 35.7833 14.125C35.6167 14.2917 35.6167 14.55 35.7833 14.7167L36.875 15.8083C35.6417 16.7167 34.8333 18.175 34.8333 19.8333H44.8333C44.8333 18.175 44.025 16.7083 42.775 15.8ZM38.1667 18.1667H37.3333V17.3333H38.1667V18.1667ZM42.3333 18.1667H41.5V17.3333H42.3333V18.1667Z" fill="white"/>
<defs>
<linearGradient id="paint0_linear" x1="40" y1="2" x2="40" y2="46" gradientUnits="userSpaceOnUse">
<stop stop-color="#051621" stop-opacity="0"/>
<stop offset="1" stop-color="#051621" stop-opacity="0.4"/>
</linearGradient>
</defs>
</svg>
