<svg width="24" height="24" viewBox="0 0 24 24" fill="none" xmlns="http://www.w3.org/2000/svg">
<path d="M14.4812 12L18.3902 8.09102C18.8699 7.61133 18.8699 6.83359 18.3902 6.35352L17.5215 5.48477C17.0418 5.00508 16.2641 5.00508 15.784 5.48477L11.875 9.39375L7.96602 5.48477C7.48633 5.00508 6.70859 5.00508 6.22852 5.48477L5.35977 6.35352C4.88008 6.8332 4.88008 7.61094 5.35977 8.09102L9.26875 12L5.35977 15.909C4.88008 16.3887 4.88008 17.1664 5.35977 17.6465L6.22852 18.5152C6.7082 18.9949 7.48633 18.9949 7.96602 18.5152L11.875 14.6062L15.784 18.5152C16.2637 18.9949 17.0418 18.9949 17.5215 18.5152L18.3902 17.6465C18.8699 17.1668 18.8699 16.3891 18.3902 15.909L14.4812 12Z" fill="white"/>
</svg>
