<svg width="24" height="24" viewBox="0 0 24 24" fill="none" xmlns="http://www.w3.org/2000/svg">
<path d="M3.19388 6.62245H21.2347C21.6179 6.62245 21.9286 6.31181 21.9286 5.92857V4.19388C21.9286 3.81064 21.6179 3.5 21.2347 3.5H3.19388C2.81064 3.5 2.5 3.81064 2.5 4.19388V5.92857C2.5 6.31181 2.81064 6.62245 3.19388 6.62245ZM3.19388 13.5612H21.2347C21.6179 13.5612 21.9286 13.2506 21.9286 12.8673V11.1327C21.9286 10.7494 21.6179 10.4388 21.2347 10.4388H3.19388C2.81064 10.4388 2.5 10.7494 2.5 11.1327V12.8673C2.5 13.2506 2.81064 13.5612 3.19388 13.5612ZM3.19388 20.5H21.2347C21.6179 20.5 21.9286 20.1894 21.9286 19.8061V18.0714C21.9286 17.6882 21.6179 17.3776 21.2347 17.3776H3.19388C2.81064 17.3776 2.5 17.6882 2.5 18.0714V19.8061C2.5 20.1894 2.81064 20.5 3.19388 20.5Z" fill="white"/>
</svg>
