<svg width="36" height="16" viewBox="0 0 36 16" fill="none" xmlns="http://www.w3.org/2000/svg">
<path d="M10.4295 5.50008C10.0519 3.17456 9.1613 1.54175 8.12484 1.54175C7.08838 1.54175 6.19775 3.17456 5.82015 5.50008L10.4295 5.50008ZM5.62484 8.00008C5.62484 8.57821 5.65609 9.13289 5.71077 9.66675L10.5363 9.66675C10.591 9.13289 10.6222 8.57821 10.6222 8.00008C10.6222 7.42196 10.591 6.86727 10.5363 6.33341L5.71077 6.33341C5.65609 6.86727 5.62484 7.42196 5.62484 8.00008ZM14.0806 5.50008C13.3358 3.73185 11.828 2.36466 9.96598 1.81258C10.6014 2.69279 11.0389 4.01831 11.2681 5.50008H14.0806ZM6.28109 1.81258C4.42171 2.36466 2.9113 3.73185 2.16911 5.50008H4.98161C5.20817 4.01831 5.64567 2.69279 6.28109 1.81258ZM14.3592 6.33341H11.3722C11.4269 6.88029 11.4582 7.44019 11.4582 8.00008C11.4582 8.55998 11.4269 9.11987 11.3722 9.66675H14.3566C14.4998 9.13289 14.5806 8.57821 14.5806 8.00008C14.5806 7.42196 14.4998 6.86727 14.3592 6.33341ZM4.7915 8.00008C4.7915 7.44019 4.82275 6.88029 4.87744 6.33341L1.89046 6.33341C1.74984 6.86727 1.6665 7.42196 1.6665 8.00008C1.6665 8.57821 1.74984 9.13289 1.89046 9.66675H4.87484C4.82275 9.11987 4.7915 8.55998 4.7915 8.00008ZM5.82015 10.5001C6.19775 12.8256 7.08838 14.4584 8.12484 14.4584C9.1613 14.4584 10.0519 12.8256 10.4295 10.5001L5.82015 10.5001ZM9.96859 14.1876C11.828 13.6355 13.3384 12.2683 14.0832 10.5001H11.2707C11.0415 11.9819 10.604 13.3074 9.96859 14.1876ZM2.16911 10.5001C2.9139 12.2683 4.42171 13.6355 6.28369 14.1876C5.64828 13.3074 5.21077 11.9819 4.98161 10.5001H2.16911Z" fill="white"/>
<path d="M21.039 12L21.039 3.684L26.379 3.684V4.968L22.551 4.968V7.02L25.959 7.02V8.28L22.551 8.28V10.716L26.667 10.716V12L21.039 12ZM33.6742 12C33.4022 11.544 33.0982 11.056 32.7622 10.536C32.4262 10.008 32.0782 9.48 31.7182 8.952C31.3582 8.416 30.9902 7.9 30.6142 7.404C30.2462 6.9 29.8942 6.448 29.5582 6.048V12H28.0702V3.684H29.3062C29.6262 4.02 29.9702 4.42 30.3382 4.884C30.7062 5.34 31.0742 5.816 31.4422 6.312C31.8182 6.808 32.1782 7.308 32.5222 7.812C32.8742 8.308 33.1862 8.772 33.4582 9.204V3.684H34.9582V12H33.6742Z" fill="white"/>
</svg>
