<svg width="37" height="16" viewBox="0 0 37 16" fill="none" xmlns="http://www.w3.org/2000/svg">
<path d="M10.4295 5.50008C10.0519 3.17456 9.1613 1.54175 8.12484 1.54175C7.08838 1.54175 6.19775 3.17456 5.82015 5.50008L10.4295 5.50008ZM5.62484 8.00008C5.62484 8.57821 5.65609 9.13289 5.71077 9.66675L10.5363 9.66675C10.591 9.13289 10.6222 8.57821 10.6222 8.00008C10.6222 7.42196 10.591 6.86727 10.5363 6.33341L5.71077 6.33341C5.65609 6.86727 5.62484 7.42196 5.62484 8.00008ZM14.0806 5.50008C13.3358 3.73185 11.828 2.36466 9.96598 1.81258C10.6014 2.69279 11.0389 4.01831 11.2681 5.50008H14.0806ZM6.28109 1.81258C4.42171 2.36466 2.9113 3.73185 2.16911 5.50008H4.98161C5.20817 4.01831 5.64567 2.69279 6.28109 1.81258ZM14.3592 6.33341H11.3722C11.4269 6.88029 11.4582 7.44019 11.4582 8.00008C11.4582 8.55998 11.4269 9.11987 11.3722 9.66675H14.3566C14.4998 9.13289 14.5806 8.57821 14.5806 8.00008C14.5806 7.42196 14.4998 6.86727 14.3592 6.33341ZM4.7915 8.00008C4.7915 7.44019 4.82275 6.88029 4.87744 6.33341L1.89046 6.33341C1.74984 6.86727 1.6665 7.42196 1.6665 8.00008C1.6665 8.57821 1.74984 9.13289 1.89046 9.66675H4.87484C4.82275 9.11987 4.7915 8.55998 4.7915 8.00008ZM5.82015 10.5001C6.19775 12.8256 7.08838 14.4584 8.12484 14.4584C9.1613 14.4584 10.0519 12.8256 10.4295 10.5001L5.82015 10.5001ZM9.96859 14.1876C11.828 13.6355 13.3384 12.2683 14.0832 10.5001H11.2707C11.0415 11.9819 10.604 13.3074 9.96859 14.1876ZM2.16911 10.5001C2.9139 12.2683 4.42171 13.6355 6.28369 14.1876C5.64828 13.3074 5.21077 11.9819 4.98161 10.5001H2.16911Z" fill="white"/>
<path d="M23.7314 3.6C24.9314 3.6 25.8474 3.82 26.4794 4.26C27.1194 4.7 27.4394 5.372 27.4394 6.276C27.4394 7.404 26.8834 8.168 25.7714 8.568C25.9234 8.752 26.0954 8.976 26.2874 9.24C26.4794 9.504 26.6754 9.792 26.8754 10.104C27.0754 10.408 27.2674 10.724 27.4514 11.052C27.6354 11.372 27.7994 11.688 27.9434 12H26.2514C26.0994 11.712 25.9354 11.424 25.7594 11.136C25.5834 10.84 25.4034 10.556 25.2194 10.284C25.0434 10.004 24.8674 9.744 24.6914 9.504C24.5154 9.256 24.3514 9.036 24.1994 8.844C24.0874 8.852 23.9914 8.856 23.9114 8.856C23.8314 8.856 23.7554 8.856 23.6834 8.856H22.9514V12H21.4394L21.4394 3.804C21.8074 3.724 22.1994 3.672 22.6154 3.648C23.0314 3.616 23.4034 3.6 23.7314 3.6ZM23.8394 4.908C23.5194 4.908 23.2234 4.92 22.9514 4.944V7.632H23.6114C23.9794 7.632 24.3034 7.612 24.5834 7.572C24.8634 7.532 25.0954 7.46 25.2794 7.356C25.4714 7.252 25.6154 7.112 25.7114 6.936C25.8074 6.76 25.8554 6.536 25.8554 6.264C25.8554 6.008 25.8074 5.792 25.7114 5.616C25.6154 5.44 25.4754 5.3 25.2914 5.196C25.1154 5.092 24.9034 5.02 24.6554 4.98C24.4074 4.932 24.1354 4.908 23.8394 4.908ZM32.3191 12.18C31.7511 12.18 31.2631 12.1 30.8551 11.94C30.4471 11.772 30.1071 11.54 29.8351 11.244C29.5711 10.948 29.3751 10.6 29.2471 10.2C29.1191 9.8 29.0551 9.36 29.0551 8.88V3.684L30.5791 3.684V8.736C30.5791 9.112 30.6191 9.436 30.6991 9.708C30.7871 9.972 30.9071 10.188 31.0591 10.356C31.2191 10.524 31.4031 10.648 31.6111 10.728C31.8271 10.808 32.0671 10.848 32.3311 10.848C32.5951 10.848 32.8351 10.808 33.0511 10.728C33.2671 10.648 33.4511 10.524 33.6031 10.356C33.7631 10.188 33.8831 9.972 33.9631 9.708C34.0511 9.436 34.0951 9.112 34.0951 8.736V3.684L35.6191 3.684V8.88C35.6191 9.36 35.5511 9.8 35.4151 10.2C35.2871 10.6 35.0871 10.948 34.8151 11.244C34.5511 11.54 34.2111 11.772 33.7951 11.94C33.3791 12.1 32.8871 12.18 32.3191 12.18Z" fill="white"/>
</svg>
