<svg width="16" height="16" viewBox="0 0 16 16" fill="none" xmlns="http://www.w3.org/2000/svg">
<path d="M6.3335 6.74992C6.3335 6.28976 5.96032 5.91659 5.50016 5.91659H5.0835C4.16292 5.91659 3.41683 6.66268 3.41683 7.58325L3.41683 8.83325C3.41683 9.75383 4.16292 10.4999 5.0835 10.4999H5.50016C5.96032 10.4999 6.3335 10.1267 6.3335 9.66659L6.3335 6.74992ZM10.9168 10.4999C11.8374 10.4999 12.5835 9.75383 12.5835 8.83325V7.58325C12.5835 6.66268 11.8374 5.91659 10.9168 5.91659H10.5002C10.04 5.91659 9.66683 6.28976 9.66683 6.74992L9.66683 9.66659C9.66683 10.1267 10.04 10.4999 10.5002 10.4999H10.9168ZM8.00016 1.33325C4.28089 1.33325 1.45277 4.42778 1.3335 7.99992V8.41659C1.3335 8.64679 1.51995 8.83325 1.75016 8.83325H2.16683C2.39704 8.83325 2.5835 8.64679 2.5835 8.41659V7.99992C2.5835 5.0132 5.01344 2.58325 8.00016 2.58325C10.9869 2.58325 13.4168 5.0132 13.4168 7.99992H13.4137C13.4158 8.0632 13.4168 12.3155 13.4168 12.3155C13.4168 12.9236 12.9239 13.4166 12.3158 13.4166H9.66683C9.66683 12.7262 9.10719 12.1666 8.41683 12.1666H7.5835C6.89313 12.1666 6.3335 12.7262 6.3335 13.4166C6.3335 14.107 6.89313 14.6666 7.5835 14.6666H12.3158C13.6142 14.6666 14.6668 13.614 14.6668 12.3155V7.99992C14.5476 4.42778 11.7194 1.33325 8.00016 1.33325Z" fill="white"/>
</svg>
