<svg width="30" height="32" viewBox="0 0 30 32" fill="none" xmlns="http://www.w3.org/2000/svg">
<path d="M8.4498 10.9124L3.26367 8.31711L10.4135 6.23706L8.4498 10.9124Z" fill="white"/>
<path d="M5.17725 7.76073L7.88734 5.17871L10.4134 6.23713L5.17725 7.76073Z" fill="#102938"/>
<path d="M5.76611 4.29114L9.69656 4.11597L10.4135 6.23723L5.76611 4.29114Z" fill="#FE003A"/>
<path d="M1.59424 26.727L5.02565 18.3258L12.9675 18.002L1.59424 26.727Z" fill="#102938"/>
<path d="M1.86084 11.1524L5.4321 9.39331L8.44985 10.9125L1.86084 11.1524Z" fill="#102938"/>
<path d="M12.9677 18.002L5.02588 18.3259L11.6443 15.8984L12.9677 18.002Z" fill="white"/>
<path d="M6.52858 30.0259L4.58691 24.432L12.9674 18.002L6.52858 30.0259Z" fill="#FE003A"/>
<path d="M0.556152 14.5486L3.07193 11.1099L8.44943 10.9126L0.556152 14.5486Z" fill="#FE003A"/>
<path d="M15.383 19.259L8.29346 30.622L13.9595 27.9737L15.383 19.259Z" fill="#FE003A"/>
<path d="M10.0971 27.7324L7.33252 28.5244L12.9676 18.002L10.0971 27.7324Z" fill="white"/>
<path d="M12.8647 2.98695L12.8647 0.474121L17.5195 3.31228L12.8647 2.98695Z" fill="#FE003A"/>
<path d="M10.4136 6.23727L17.5193 3.31226L16.4594 7.36047L10.4136 6.23727Z" fill="#FE003A"/>
<path d="M20.5576 2.72046L24.3526 3.59635L22.3167 8.5175L20.5576 2.72046Z" fill="#102938"/>
<path d="M24.3484 3.58008L24.497 7.01738L22.3169 8.51743L24.3484 3.58008Z" fill="#FE003A"/>
<path d="M10.4135 6.23719L9.22852 2.73364L17.5193 3.31217L10.4135 6.23719Z" fill="white"/>
<path d="M16.4595 7.36047L17.5194 3.31226L22.3169 8.51752L16.4595 7.36047Z" fill="#102938"/>
<path d="M26.0041 25.4036L22.3813 22.3888L26.9301 19.1812C27.4468 19.9452 27.9635 20.7092 28.4802 21.4717C28.3212 22.3667 28.1637 23.2617 28.0047 24.1568L26.0041 25.4036Z" fill="white"/>
<path d="M28.7096 19.9951L27.3022 18.791L29.3072 14.4277C29.0805 15.5789 28.8538 16.7301 28.6286 17.8812C28.6551 18.5849 28.6816 19.29 28.7096 19.9951Z" fill="white"/>
<path d="M17.3455 17.525L15.6187 18.8425L13.5563 17.0687C13.2914 16.2605 13.0249 15.4523 12.7599 14.6442C11.6073 14.1922 10.4561 13.7388 9.30351 13.2869C9.0194 12.4949 8.73382 11.7044 8.44971 10.9125C9.25346 10.2485 10.0587 9.58464 10.8624 8.91926C11.7575 9.10033 12.6525 9.28139 13.5475 9.46246C14.1908 9.99535 14.366 10.1396 15.0093 10.671L14.9165 9.6818C15.4303 8.90749 15.9455 8.13317 16.4593 7.35886C18.4113 7.74454 20.3647 8.13023 22.3167 8.51591C23.0439 8.0154 23.7711 7.51638 24.4983 7.01587C25.1401 8.65576 25.7819 10.2957 26.4238 11.9355C27.385 12.7658 28.3463 13.5946 29.3076 14.4248C27.7869 14.5249 26.2663 14.625 24.7456 14.7251C25.7054 15.339 26.6652 15.9528 27.625 16.5667C27.2113 17.313 26.7991 18.0594 26.387 18.8057C25.1489 19.4902 23.9109 20.1733 22.6714 20.8578L22.3814 22.3858C21.4835 22.6405 20.587 22.8952 19.689 23.1498L17.8371 19.3386L17.3455 17.525Z" fill="white"/>
<path d="M26.4238 11.9384L25.7879 10.3132L25.4302 11.3702L26.4238 11.9384Z" fill="#102938"/>
<path d="M19.4197 9.90845C20.2235 10.0468 21.0272 10.1867 21.831 10.3265C21.8486 10.4678 21.884 10.6253 21.9473 10.7902C21.9473 10.7902 22.8555 11.8722 23.1073 11.9959L17.874 11.0272L19.4197 9.90845Z" fill="#102938"/>
<path d="M10.0571 11.0612C10.8609 11.1996 11.7412 10.9228 12.5449 11.0612C12.5626 11.204 12.2932 12.8954 12.5449 13.0205L10.3869 12.417L10.0571 11.0612Z" fill="#102938"/>
<path d="M24.7455 14.728C25.7053 15.3419 26.6651 15.9558 27.6249 16.5696C27.2112 17.316 26.799 18.0623 26.3869 18.8086C25.1488 19.4932 23.9108 20.1762 22.6728 20.8607L22.3828 22.3887C23.8991 21.32 25.4153 20.2498 26.9315 19.1811C27.4482 19.9451 27.9649 20.7091 28.4816 21.4716C28.5582 20.9799 28.6362 20.4868 28.7127 19.9951C28.2432 19.5933 27.7736 19.1928 27.3054 18.791C27.9738 17.3366 28.6421 15.8821 29.3104 14.4277L24.7455 14.728Z" fill="#102938"/>
<path d="M16.4593 7.36026L10.4149 6.23706C10.4149 6.23706 9.10184 9.36228 8.44971 10.9124C9.25346 10.2485 10.0587 9.58456 10.8624 8.91918C11.7575 9.10025 12.6525 9.28132 13.5475 9.46238C14.1908 9.99527 14.366 10.1395 15.0093 10.671L14.9165 9.68172L16.4593 7.36026Z" fill="#102938"/>
<path d="M16.2651 1.95054L20.2751 1.8313L22.3168 8.51747L16.2651 1.95054Z" fill="white"/>
<path d="M22.3814 31.5922L20.7783 29.1441L26.0042 25.4036L22.3814 31.5922Z" fill="#FE003A"/>
<path d="M17.409 22.1311L14.6724 26.7681L17.5635 30.7324L18.9664 24.8382L17.409 22.1311Z" fill="white"/>
<path d="M26.0043 25.4037L22.3815 22.3889C21.4836 22.6436 20.5871 22.8982 19.6891 23.1529L17.8372 19.3417L17.3455 17.5266L15.6188 18.8441C14.9313 18.2524 14.2439 17.6621 13.5564 17.0703C13.2914 16.2621 13.025 15.4539 12.76 14.6458C11.6074 14.1939 10.4562 13.7405 9.30359 13.2885C9.01948 12.4965 8.7339 11.706 8.44979 10.9141C8.39826 11.9533 8.34527 12.9912 8.29375 14.0305L2.96777 19.0811L11.6442 15.9C12.0858 16.6007 12.5274 17.3029 12.9691 18.0036L10.097 27.734L15.3833 19.2607L13.9612 27.9769L17.4088 22.1342C17.9285 23.0366 18.4481 23.939 18.9663 24.8414L17.3588 31.5953L26.0043 25.4037Z" fill="#102938"/>
<path d="M2.02246 19.9789L2.86743 14.3939L8.29351 14.0288L2.02246 19.9789Z" fill="#FE003A"/>
<path d="M0.556152 14.5486L8.44943 10.9126L8.29339 14.029L0.556152 14.5486Z" fill="white"/>
</svg>
