<svg width="137" height="112" viewBox="0 0 137 112" fill="none" xmlns="http://www.w3.org/2000/svg">
<path fill-rule="evenodd" clip-rule="evenodd" d="M59.39 100.967L56 109H80.0636L76.6735 100.967H59.39ZM79.9234 100.967L83.3135 109H89.9607V112H83.3135H52.9734H46.3262V109H52.9734L56.3635 100.967H10.4745C4.69916 100.967 0 96.267 0 90.4917V10.4745C0 4.69913 4.69916 0 10.4745 0H126.128C131.904 0 136.603 4.69913 136.603 10.4745V90.4917C136.603 96.267 131.904 100.967 126.128 100.967H79.9234ZM126.154 3.50002H10.5C7.34388 3.50002 3.5 7.31834 3.5 10.4745V81.5163H133V10.4745C133 7.31834 129.31 3.50002 126.154 3.50002ZM9 97H127.054C130.21 97 133 93.6478 133 90.4917V85H3.5V90.4917C3.5 93.6478 5.84388 97 9 97Z" fill="white"/>
<rect x="3" y="3.00002" width="130" height="79" fill="url(#paint0_linear)"/>
<path d="M75.9021 43.7585C75.8901 41.5736 76.8784 39.9245 78.8788 38.71C77.7595 37.1085 76.0687 36.2274 73.8362 36.0547C71.7227 35.888 69.4128 37.2871 68.5674 37.2871C67.6744 37.2871 65.6264 36.1143 64.0189 36.1143C60.6969 36.1678 57.1665 38.7636 57.1665 44.0443C57.1665 45.6041 57.4523 47.2155 58.0238 48.8785C58.7858 51.0634 61.5363 56.4215 64.4059 56.3322C65.9062 56.2965 66.9659 55.2666 68.9186 55.2666C70.8118 55.2666 71.7942 56.3322 73.4671 56.3322C76.3605 56.2906 78.849 51.4206 79.5753 49.2297C75.6937 47.402 75.9021 43.8716 75.9021 43.7585ZM72.5324 33.9829C74.1577 32.054 74.0089 30.2977 73.9612 29.6667C72.5264 29.75 70.8654 30.643 69.9188 31.7444C68.877 32.9232 68.2638 34.3818 68.3947 36.025C69.9486 36.144 71.3655 35.3463 72.5324 33.9829Z" fill="white"/>
<defs>
<linearGradient id="paint0_linear" x1="68" y1="3.00002" x2="68" y2="82" gradientUnits="userSpaceOnUse">
<stop stop-color="#051621" stop-opacity="0"/>
<stop offset="1" stop-color="#051621" stop-opacity="0.4"/>
</linearGradient>
</defs>
</svg>
