<svg width="652" height="12" viewBox="0 0 652 12" fill="none" xmlns="http://www.w3.org/2000/svg">
<circle r="6" transform="matrix(-1 0 0 1 646 6)" fill="url(#paint0_linear)"/>
<circle r="6" transform="matrix(-1 0 0 1 614 6)" fill="url(#paint1_linear)"/>
<circle r="6" transform="matrix(-1 0 0 1 582 6)" fill="url(#paint2_linear)"/>
<circle r="6" transform="matrix(-1 0 0 1 550 6)" fill="url(#paint3_linear)"/>
<circle r="6" transform="matrix(-1 0 0 1 518 6)" fill="url(#paint4_linear)"/>
<circle r="6" transform="matrix(-1 0 0 1 486 6)" fill="url(#paint5_linear)"/>
<circle cx="454" cy="6" r="6" fill="url(#paint6_linear)"/>
<circle r="6" transform="matrix(-1 0 0 1 422 6)" fill="url(#paint7_linear)"/>
<circle r="6" transform="matrix(-1 0 0 1 390 6)" fill="url(#paint8_linear)"/>
<circle r="6" transform="matrix(-1 0 0 1 358 6)" fill="url(#paint9_linear)"/>
<circle r="6" transform="matrix(-1 0 0 1 326 6)" fill="url(#paint10_linear)"/>
<circle r="6" transform="matrix(-1 0 0 1 294 6)" fill="url(#paint11_linear)"/>
<circle opacity="0.9" r="6" transform="matrix(-1 0 0 1 262 6)" fill="url(#paint12_linear)"/>
<circle opacity="0.8" r="6" transform="matrix(-1 0 0 1 230 6)" fill="url(#paint13_linear)"/>
<circle opacity="0.7" r="6" transform="matrix(-1 0 0 1 198 6)" fill="url(#paint14_linear)"/>
<circle opacity="0.6" r="6" transform="matrix(-1 0 0 1 166 6)" fill="url(#paint15_linear)"/>
<circle opacity="0.5" r="6" transform="matrix(-1 0 0 1 134 6)" fill="url(#paint16_linear)"/>
<circle opacity="0.4" r="6" transform="matrix(-1 0 0 1 102 6)" fill="url(#paint17_linear)"/>
<circle opacity="0.3" r="6" transform="matrix(-1 0 0 1 70 6)" fill="url(#paint18_linear)"/>
<circle opacity="0.2" r="6" transform="matrix(-1 0 0 1 38 6)" fill="url(#paint19_linear)"/>
<circle opacity="0.1" r="6" transform="matrix(-1 0 0 1 6 6)" fill="url(#paint20_linear)"/>
<defs>
<linearGradient id="paint0_linear" x1="6" y1="0" x2="6" y2="12" gradientUnits="userSpaceOnUse">
<stop stop-color="#FF2F01"/>
<stop offset="1" stop-color="#FF055F"/>
</linearGradient>
<linearGradient id="paint1_linear" x1="6" y1="0" x2="6" y2="12" gradientUnits="userSpaceOnUse">
<stop stop-color="#FF2F01"/>
<stop offset="1" stop-color="#FF055F"/>
</linearGradient>
<linearGradient id="paint2_linear" x1="6" y1="0" x2="6" y2="12" gradientUnits="userSpaceOnUse">
<stop stop-color="#FF2F01"/>
<stop offset="1" stop-color="#FF055F"/>
</linearGradient>
<linearGradient id="paint3_linear" x1="6" y1="0" x2="6" y2="12" gradientUnits="userSpaceOnUse">
<stop stop-color="#FF2F01"/>
<stop offset="1" stop-color="#FF055F"/>
</linearGradient>
<linearGradient id="paint4_linear" x1="6" y1="0" x2="6" y2="12" gradientUnits="userSpaceOnUse">
<stop stop-color="#FF2F01"/>
<stop offset="1" stop-color="#FF055F"/>
</linearGradient>
<linearGradient id="paint5_linear" x1="6" y1="0" x2="6" y2="12" gradientUnits="userSpaceOnUse">
<stop stop-color="#FF2F01"/>
<stop offset="1" stop-color="#FF055F"/>
</linearGradient>
<linearGradient id="paint6_linear" x1="454" y1="0" x2="454" y2="12" gradientUnits="userSpaceOnUse">
<stop stop-color="#FF2F01"/>
<stop offset="1" stop-color="#FF055F"/>
</linearGradient>
<linearGradient id="paint7_linear" x1="6" y1="0" x2="6" y2="12" gradientUnits="userSpaceOnUse">
<stop stop-color="#FF2F01"/>
<stop offset="1" stop-color="#FF055F"/>
</linearGradient>
<linearGradient id="paint8_linear" x1="6" y1="0" x2="6" y2="12" gradientUnits="userSpaceOnUse">
<stop stop-color="#FF2F01"/>
<stop offset="1" stop-color="#FF055F"/>
</linearGradient>
<linearGradient id="paint9_linear" x1="6" y1="0" x2="6" y2="12" gradientUnits="userSpaceOnUse">
<stop stop-color="#FF2F01"/>
<stop offset="1" stop-color="#FF055F"/>
</linearGradient>
<linearGradient id="paint10_linear" x1="6" y1="0" x2="6" y2="12" gradientUnits="userSpaceOnUse">
<stop stop-color="#FF2F01"/>
<stop offset="1" stop-color="#FF055F"/>
</linearGradient>
<linearGradient id="paint11_linear" x1="6" y1="0" x2="6" y2="12" gradientUnits="userSpaceOnUse">
<stop stop-color="#FF2F01"/>
<stop offset="1" stop-color="#FF055F"/>
</linearGradient>
<linearGradient id="paint12_linear" x1="6" y1="0" x2="6" y2="12" gradientUnits="userSpaceOnUse">
<stop stop-color="#FF2F01"/>
<stop offset="1" stop-color="#FF055F"/>
</linearGradient>
<linearGradient id="paint13_linear" x1="6" y1="0" x2="6" y2="12" gradientUnits="userSpaceOnUse">
<stop stop-color="#FF2F01"/>
<stop offset="1" stop-color="#FF055F"/>
</linearGradient>
<linearGradient id="paint14_linear" x1="6" y1="0" x2="6" y2="12" gradientUnits="userSpaceOnUse">
<stop stop-color="#FF2F01"/>
<stop offset="1" stop-color="#FF055F"/>
</linearGradient>
<linearGradient id="paint15_linear" x1="6" y1="0" x2="6" y2="12" gradientUnits="userSpaceOnUse">
<stop stop-color="#FF2F01"/>
<stop offset="1" stop-color="#FF055F"/>
</linearGradient>
<linearGradient id="paint16_linear" x1="6" y1="0" x2="6" y2="12" gradientUnits="userSpaceOnUse">
<stop stop-color="#FF2F01"/>
<stop offset="1" stop-color="#FF055F"/>
</linearGradient>
<linearGradient id="paint17_linear" x1="6" y1="0" x2="6" y2="12" gradientUnits="userSpaceOnUse">
<stop stop-color="#FF2F01"/>
<stop offset="1" stop-color="#FF055F"/>
</linearGradient>
<linearGradient id="paint18_linear" x1="6" y1="0" x2="6" y2="12" gradientUnits="userSpaceOnUse">
<stop stop-color="#FF2F01"/>
<stop offset="1" stop-color="#FF055F"/>
</linearGradient>
<linearGradient id="paint19_linear" x1="6" y1="0" x2="6" y2="12" gradientUnits="userSpaceOnUse">
<stop stop-color="#FF2F01"/>
<stop offset="1" stop-color="#FF055F"/>
</linearGradient>
<linearGradient id="paint20_linear" x1="6" y1="0" x2="6" y2="12" gradientUnits="userSpaceOnUse">
<stop stop-color="#FF2F01"/>
<stop offset="1" stop-color="#FF055F"/>
</linearGradient>
</defs>
</svg>
