<svg width="12" height="365" viewBox="0 0 12 365" fill="none" xmlns="http://www.w3.org/2000/svg">
<g clip-path="url(#clip0)">
<circle r="6" transform="matrix(-1 0 0 1 6 6.55615)" fill="url(#paint0_linear)"/>
<circle r="6" transform="matrix(-1 0 0 1 6 38.5562)" fill="url(#paint1_linear)"/>
<circle r="6" transform="matrix(-1 0 0 1 6 70.5562)" fill="url(#paint2_linear)"/>
<circle opacity="0.9" r="6" transform="matrix(-1 0 0 1 6 102.556)" fill="url(#paint3_linear)"/>
<circle opacity="0.8" r="6" transform="matrix(-1 0 0 1 6 134.556)" fill="url(#paint4_linear)"/>
<circle opacity="0.7" r="6" transform="matrix(-1 0 0 1 6 166.556)" fill="url(#paint5_linear)"/>
<circle opacity="0.6" r="6" transform="matrix(-1 0 0 1 6 198.556)" fill="url(#paint6_linear)"/>
<circle opacity="0.5" r="6" transform="matrix(-1 0 0 1 6 230.556)" fill="url(#paint7_linear)"/>
<circle opacity="0.4" r="6" transform="matrix(-1 0 0 1 6 262.556)" fill="url(#paint8_linear)"/>
<circle opacity="0.3" r="6" transform="matrix(-1 0 0 1 6 294.556)" fill="url(#paint9_linear)"/>
<circle opacity="0.2" r="6" transform="matrix(-1 0 0 1 6 326.556)" fill="url(#paint10_linear)"/>
<circle opacity="0.1" r="6" transform="matrix(-1 0 0 1 6 358.556)" fill="url(#paint11_linear)"/>
</g>
<defs>
<linearGradient id="paint0_linear" x1="6" y1="0" x2="6" y2="12" gradientUnits="userSpaceOnUse">
<stop stop-color="#FF2F01"/>
<stop offset="1" stop-color="#FF055F"/>
</linearGradient>
<linearGradient id="paint1_linear" x1="6" y1="0" x2="6" y2="12" gradientUnits="userSpaceOnUse">
<stop stop-color="#FF2F01"/>
<stop offset="1" stop-color="#FF055F"/>
</linearGradient>
<linearGradient id="paint2_linear" x1="6" y1="0" x2="6" y2="12" gradientUnits="userSpaceOnUse">
<stop stop-color="#FF2F01"/>
<stop offset="1" stop-color="#FF055F"/>
</linearGradient>
<linearGradient id="paint3_linear" x1="6" y1="0" x2="6" y2="12" gradientUnits="userSpaceOnUse">
<stop stop-color="#FF2F01"/>
<stop offset="1" stop-color="#FF055F"/>
</linearGradient>
<linearGradient id="paint4_linear" x1="6" y1="0" x2="6" y2="12" gradientUnits="userSpaceOnUse">
<stop stop-color="#FF2F01"/>
<stop offset="1" stop-color="#FF055F"/>
</linearGradient>
<linearGradient id="paint5_linear" x1="6" y1="0" x2="6" y2="12" gradientUnits="userSpaceOnUse">
<stop stop-color="#FF2F01"/>
<stop offset="1" stop-color="#FF055F"/>
</linearGradient>
<linearGradient id="paint6_linear" x1="6" y1="0" x2="6" y2="12" gradientUnits="userSpaceOnUse">
<stop stop-color="#FF2F01"/>
<stop offset="1" stop-color="#FF055F"/>
</linearGradient>
<linearGradient id="paint7_linear" x1="6" y1="0" x2="6" y2="12" gradientUnits="userSpaceOnUse">
<stop stop-color="#FF2F01"/>
<stop offset="1" stop-color="#FF055F"/>
</linearGradient>
<linearGradient id="paint8_linear" x1="6" y1="0" x2="6" y2="12" gradientUnits="userSpaceOnUse">
<stop stop-color="#FF2F01"/>
<stop offset="1" stop-color="#FF055F"/>
</linearGradient>
<linearGradient id="paint9_linear" x1="6" y1="0" x2="6" y2="12" gradientUnits="userSpaceOnUse">
<stop stop-color="#FF2F01"/>
<stop offset="1" stop-color="#FF055F"/>
</linearGradient>
<linearGradient id="paint10_linear" x1="6" y1="0" x2="6" y2="12" gradientUnits="userSpaceOnUse">
<stop stop-color="#FF2F01"/>
<stop offset="1" stop-color="#FF055F"/>
</linearGradient>
<linearGradient id="paint11_linear" x1="6" y1="0" x2="6" y2="12" gradientUnits="userSpaceOnUse">
<stop stop-color="#FF2F01"/>
<stop offset="1" stop-color="#FF055F"/>
</linearGradient>
<clipPath id="clip0">
<rect width="12" height="364" fill="white" transform="matrix(-1 0 0 1 12 0.556152)"/>
</clipPath>
</defs>
</svg>
