<svg width="716" height="12" viewBox="0 0 716 12" fill="none" xmlns="http://www.w3.org/2000/svg">
<circle cx="6" cy="6" r="6" fill="url(#paint0_linear)"/>
<circle cx="38" cy="6" r="6" fill="url(#paint1_linear)"/>
<circle cx="70" cy="6" r="6" fill="url(#paint2_linear)"/>
<circle cx="102" cy="6" r="6" fill="url(#paint3_linear)"/>
<circle cx="134" cy="6" r="6" fill="url(#paint4_linear)"/>
<circle cx="166" cy="6" r="6" fill="url(#paint5_linear)"/>
<circle cx="198" cy="6" r="6" fill="url(#paint6_linear)"/>
<circle cx="230" cy="6" r="6" fill="url(#paint7_linear)"/>
<circle cx="262" cy="6" r="6" fill="url(#paint8_linear)"/>
<circle cx="294" cy="6" r="6" fill="url(#paint9_linear)"/>
<circle cx="326" cy="6" r="6" fill="url(#paint10_linear)"/>
<circle cx="358" cy="6" r="6" fill="url(#paint11_linear)"/>
<circle cx="390" cy="6" r="6" fill="url(#paint12_linear)"/>
<circle cx="422" cy="6" r="6" fill="url(#paint13_linear)"/>
<circle opacity="0.9" cx="454" cy="6" r="6" fill="url(#paint14_linear)"/>
<circle opacity="0.8" cx="486" cy="6" r="6" fill="url(#paint15_linear)"/>
<circle opacity="0.7" cx="518" cy="6" r="6" fill="url(#paint16_linear)"/>
<circle opacity="0.6" cx="550" cy="6" r="6" fill="url(#paint17_linear)"/>
<circle opacity="0.5" cx="582" cy="6" r="6" fill="url(#paint18_linear)"/>
<circle opacity="0.4" cx="614" cy="6" r="6" fill="url(#paint19_linear)"/>
<circle opacity="0.3" cx="646" cy="6" r="6" fill="url(#paint20_linear)"/>
<circle opacity="0.2" cx="678" cy="6" r="6" fill="url(#paint21_linear)"/>
<circle opacity="0.1" cx="710" cy="6" r="6" fill="url(#paint22_linear)"/>
<defs>
<linearGradient id="paint0_linear" x1="6" y1="0" x2="6" y2="12" gradientUnits="userSpaceOnUse">
<stop stop-color="#FF2F01"/>
<stop offset="1" stop-color="#FF055F"/>
</linearGradient>
<linearGradient id="paint1_linear" x1="38" y1="0" x2="38" y2="12" gradientUnits="userSpaceOnUse">
<stop stop-color="#FF2F01"/>
<stop offset="1" stop-color="#FF055F"/>
</linearGradient>
<linearGradient id="paint2_linear" x1="70" y1="0" x2="70" y2="12" gradientUnits="userSpaceOnUse">
<stop stop-color="#FF2F01"/>
<stop offset="1" stop-color="#FF055F"/>
</linearGradient>
<linearGradient id="paint3_linear" x1="102" y1="0" x2="102" y2="12" gradientUnits="userSpaceOnUse">
<stop stop-color="#FF2F01"/>
<stop offset="1" stop-color="#FF055F"/>
</linearGradient>
<linearGradient id="paint4_linear" x1="134" y1="0" x2="134" y2="12" gradientUnits="userSpaceOnUse">
<stop stop-color="#FF2F01"/>
<stop offset="1" stop-color="#FF055F"/>
</linearGradient>
<linearGradient id="paint5_linear" x1="166" y1="0" x2="166" y2="12" gradientUnits="userSpaceOnUse">
<stop stop-color="#FF2F01"/>
<stop offset="1" stop-color="#FF055F"/>
</linearGradient>
<linearGradient id="paint6_linear" x1="198" y1="0" x2="198" y2="12" gradientUnits="userSpaceOnUse">
<stop stop-color="#FF2F01"/>
<stop offset="1" stop-color="#FF055F"/>
</linearGradient>
<linearGradient id="paint7_linear" x1="230" y1="0" x2="230" y2="12" gradientUnits="userSpaceOnUse">
<stop stop-color="#FF2F01"/>
<stop offset="1" stop-color="#FF055F"/>
</linearGradient>
<linearGradient id="paint8_linear" x1="262" y1="0" x2="262" y2="12" gradientUnits="userSpaceOnUse">
<stop stop-color="#FF2F01"/>
<stop offset="1" stop-color="#FF055F"/>
</linearGradient>
<linearGradient id="paint9_linear" x1="294" y1="0" x2="294" y2="12" gradientUnits="userSpaceOnUse">
<stop stop-color="#FF2F01"/>
<stop offset="1" stop-color="#FF055F"/>
</linearGradient>
<linearGradient id="paint10_linear" x1="326" y1="0" x2="326" y2="12" gradientUnits="userSpaceOnUse">
<stop stop-color="#FF2F01"/>
<stop offset="1" stop-color="#FF055F"/>
</linearGradient>
<linearGradient id="paint11_linear" x1="358" y1="0" x2="358" y2="12" gradientUnits="userSpaceOnUse">
<stop stop-color="#FF2F01"/>
<stop offset="1" stop-color="#FF055F"/>
</linearGradient>
<linearGradient id="paint12_linear" x1="390" y1="0" x2="390" y2="12" gradientUnits="userSpaceOnUse">
<stop stop-color="#FF2F01"/>
<stop offset="1" stop-color="#FF055F"/>
</linearGradient>
<linearGradient id="paint13_linear" x1="422" y1="0" x2="422" y2="12" gradientUnits="userSpaceOnUse">
<stop stop-color="#FF2F01"/>
<stop offset="1" stop-color="#FF055F"/>
</linearGradient>
<linearGradient id="paint14_linear" x1="454" y1="0" x2="454" y2="12" gradientUnits="userSpaceOnUse">
<stop stop-color="#FF2F01"/>
<stop offset="1" stop-color="#FF055F"/>
</linearGradient>
<linearGradient id="paint15_linear" x1="486" y1="0" x2="486" y2="12" gradientUnits="userSpaceOnUse">
<stop stop-color="#FF2F01"/>
<stop offset="1" stop-color="#FF055F"/>
</linearGradient>
<linearGradient id="paint16_linear" x1="518" y1="0" x2="518" y2="12" gradientUnits="userSpaceOnUse">
<stop stop-color="#FF2F01"/>
<stop offset="1" stop-color="#FF055F"/>
</linearGradient>
<linearGradient id="paint17_linear" x1="550" y1="0" x2="550" y2="12" gradientUnits="userSpaceOnUse">
<stop stop-color="#FF2F01"/>
<stop offset="1" stop-color="#FF055F"/>
</linearGradient>
<linearGradient id="paint18_linear" x1="582" y1="0" x2="582" y2="12" gradientUnits="userSpaceOnUse">
<stop stop-color="#FF2F01"/>
<stop offset="1" stop-color="#FF055F"/>
</linearGradient>
<linearGradient id="paint19_linear" x1="614" y1="0" x2="614" y2="12" gradientUnits="userSpaceOnUse">
<stop stop-color="#FF2F01"/>
<stop offset="1" stop-color="#FF055F"/>
</linearGradient>
<linearGradient id="paint20_linear" x1="646" y1="0" x2="646" y2="12" gradientUnits="userSpaceOnUse">
<stop stop-color="#FF2F01"/>
<stop offset="1" stop-color="#FF055F"/>
</linearGradient>
<linearGradient id="paint21_linear" x1="678" y1="0" x2="678" y2="12" gradientUnits="userSpaceOnUse">
<stop stop-color="#FF2F01"/>
<stop offset="1" stop-color="#FF055F"/>
</linearGradient>
<linearGradient id="paint22_linear" x1="710" y1="0" x2="710" y2="12" gradientUnits="userSpaceOnUse">
<stop stop-color="#FF2F01"/>
<stop offset="1" stop-color="#FF055F"/>
</linearGradient>
</defs>
</svg>
