<svg width="12" height="365" viewBox="0 0 12 365" fill="none" xmlns="http://www.w3.org/2000/svg">
<g clip-path="url(#clip0)">
<circle cx="6" cy="358.556" r="6" transform="rotate(-180 6 358.556)" fill="url(#paint0_linear)"/>
<circle cx="6" cy="326.556" r="6" transform="rotate(-180 6 326.556)" fill="url(#paint1_linear)"/>
<circle cx="6" cy="294.556" r="6" transform="rotate(-180 6 294.556)" fill="url(#paint2_linear)"/>
<circle opacity="0.9" cx="6" cy="262.556" r="6" transform="rotate(-180 6 262.556)" fill="url(#paint3_linear)"/>
<circle opacity="0.8" cx="6" cy="230.556" r="6" transform="rotate(-180 6 230.556)" fill="url(#paint4_linear)"/>
<circle opacity="0.7" cx="6" cy="198.556" r="6" transform="rotate(-180 6 198.556)" fill="url(#paint5_linear)"/>
<circle opacity="0.6" cx="6" cy="166.556" r="6" transform="rotate(-180 6 166.556)" fill="url(#paint6_linear)"/>
<circle opacity="0.5" cx="6" cy="134.556" r="6" transform="rotate(-180 6 134.556)" fill="url(#paint7_linear)"/>
<circle opacity="0.4" cx="6" cy="102.556" r="6" transform="rotate(-180 6 102.556)" fill="url(#paint8_linear)"/>
<circle opacity="0.3" cx="6" cy="70.5562" r="6" transform="rotate(-180 6 70.5562)" fill="url(#paint9_linear)"/>
<circle opacity="0.2" cx="6" cy="38.5562" r="6" transform="rotate(-180 6 38.5562)" fill="url(#paint10_linear)"/>
<circle opacity="0.1" cx="6" cy="6.55615" r="6" transform="rotate(-180 6 6.55615)" fill="url(#paint11_linear)"/>
</g>
<defs>
<linearGradient id="paint0_linear" x1="6" y1="352.556" x2="6" y2="364.556" gradientUnits="userSpaceOnUse">
<stop stop-color="#FF2F01"/>
<stop offset="1" stop-color="#FF055F"/>
</linearGradient>
<linearGradient id="paint1_linear" x1="6" y1="320.556" x2="6" y2="332.556" gradientUnits="userSpaceOnUse">
<stop stop-color="#FF2F01"/>
<stop offset="1" stop-color="#FF055F"/>
</linearGradient>
<linearGradient id="paint2_linear" x1="6" y1="288.556" x2="6" y2="300.556" gradientUnits="userSpaceOnUse">
<stop stop-color="#FF2F01"/>
<stop offset="1" stop-color="#FF055F"/>
</linearGradient>
<linearGradient id="paint3_linear" x1="6" y1="256.556" x2="6" y2="268.556" gradientUnits="userSpaceOnUse">
<stop stop-color="#FF2F01"/>
<stop offset="1" stop-color="#FF055F"/>
</linearGradient>
<linearGradient id="paint4_linear" x1="6" y1="224.556" x2="6" y2="236.556" gradientUnits="userSpaceOnUse">
<stop stop-color="#FF2F01"/>
<stop offset="1" stop-color="#FF055F"/>
</linearGradient>
<linearGradient id="paint5_linear" x1="6" y1="192.556" x2="6" y2="204.556" gradientUnits="userSpaceOnUse">
<stop stop-color="#FF2F01"/>
<stop offset="1" stop-color="#FF055F"/>
</linearGradient>
<linearGradient id="paint6_linear" x1="6" y1="160.556" x2="6" y2="172.556" gradientUnits="userSpaceOnUse">
<stop stop-color="#FF2F01"/>
<stop offset="1" stop-color="#FF055F"/>
</linearGradient>
<linearGradient id="paint7_linear" x1="6" y1="128.556" x2="6" y2="140.556" gradientUnits="userSpaceOnUse">
<stop stop-color="#FF2F01"/>
<stop offset="1" stop-color="#FF055F"/>
</linearGradient>
<linearGradient id="paint8_linear" x1="6" y1="96.5562" x2="6" y2="108.556" gradientUnits="userSpaceOnUse">
<stop stop-color="#FF2F01"/>
<stop offset="1" stop-color="#FF055F"/>
</linearGradient>
<linearGradient id="paint9_linear" x1="6" y1="64.5562" x2="6" y2="76.5562" gradientUnits="userSpaceOnUse">
<stop stop-color="#FF2F01"/>
<stop offset="1" stop-color="#FF055F"/>
</linearGradient>
<linearGradient id="paint10_linear" x1="6" y1="32.5562" x2="6" y2="44.5562" gradientUnits="userSpaceOnUse">
<stop stop-color="#FF2F01"/>
<stop offset="1" stop-color="#FF055F"/>
</linearGradient>
<linearGradient id="paint11_linear" x1="6" y1="0.556152" x2="6" y2="12.5562" gradientUnits="userSpaceOnUse">
<stop stop-color="#FF2F01"/>
<stop offset="1" stop-color="#FF055F"/>
</linearGradient>
<clipPath id="clip0">
<rect width="12" height="364" fill="white" transform="translate(12 364.556) rotate(-180)"/>
</clipPath>
</defs>
</svg>
