<svg width="40" height="40" viewBox="0 0 40 40" fill="none" xmlns="http://www.w3.org/2000/svg">
<path d="M20.7793 16.3066L20.3457 15.873C20.1621 15.6895 19.8652 15.6895 19.6836 15.873L15.8867 19.668C15.7031 19.8516 15.7031 20.1484 15.8867 20.3301L19.6836 24.127C19.8672 24.3105 20.1641 24.3105 20.3457 24.127L20.7793 23.6934C20.9648 23.5078 20.9609 23.2051 20.7715 23.0234L18.418 20.7813H24.0312C24.291 20.7813 24.5 20.5723 24.5 20.3125V19.6875C24.5 19.4277 24.291 19.2188 24.0312 19.2188H18.418L20.7715 16.9766C20.9629 16.7949 20.9668 16.4922 20.7793 16.3066Z" fill="white"/>
<rect x="-0.5" y="0.5" width="39" height="39" rx="7.5" transform="matrix(-1 0 0 1 39 0)" stroke="white"/>
</svg>
