<svg width="40" height="40" viewBox="0 0 40 40" fill="none" xmlns="http://www.w3.org/2000/svg">
<path d="M19.4707 23.6934L19.9043 24.127C20.0879 24.3105 20.3848 24.3105 20.5664 24.127L24.3633 20.332C24.5469 20.1484 24.5469 19.8516 24.3633 19.6699L20.5664 15.873C20.3828 15.6895 20.0859 15.6895 19.9043 15.873L19.4707 16.3066C19.2852 16.4922 19.2891 16.7949 19.4785 16.9766L21.832 19.2188H16.2188C15.959 19.2188 15.75 19.4277 15.75 19.6875V20.3125C15.75 20.5723 15.959 20.7813 16.2188 20.7813H21.832L19.4785 23.0234C19.2871 23.2051 19.2832 23.5078 19.4707 23.6934Z" fill="white"/>
<rect x="-0.5" y="0.5" width="39" height="39" rx="7.5" transform="matrix(-1 0 0 1 39 0)" stroke="white"/>
</svg>
