<svg width="260" height="170" viewBox="0 0 260 170" fill="none" xmlns="http://www.w3.org/2000/svg">
<rect width="260" height="170" rx="16" fill="url(#paint0_linear)"/>
<path d="M21.872 82.424C22.96 81.56 23.456 81.16 23.36 81.224C26.496 78.632 28.96 76.504 30.752 74.84C32.576 73.176 34.112 71.432 35.36 69.608C36.608 67.784 37.232 66.008 37.232 64.28C37.232 62.968 36.928 61.944 36.32 61.208C35.712 60.472 34.8 60.104 33.584 60.104C32.368 60.104 31.408 60.568 30.704 61.496C30.032 62.392 29.696 63.672 29.696 65.336H21.776C21.84 62.616 22.416 60.344 23.504 58.52C24.624 56.696 26.08 55.352 27.872 54.488C29.696 53.624 31.712 53.192 33.92 53.192C37.728 53.192 40.592 54.168 42.512 56.12C44.464 58.072 45.44 60.616 45.44 63.752C45.44 67.176 44.272 70.36 41.936 73.304C39.6 76.216 36.624 79.064 33.008 81.848H45.968V88.52H21.872V82.424ZM49.5819 71C49.5819 65.496 50.6379 61.16 52.7499 57.992C54.8939 54.824 58.3339 53.24 63.0699 53.24C67.8059 53.24 71.2299 54.824 73.3419 57.992C75.4859 61.16 76.5579 65.496 76.5579 71C76.5579 76.568 75.4859 80.936 73.3419 84.104C71.2299 87.272 67.8059 88.856 63.0699 88.856C58.3339 88.856 54.8939 87.272 52.7499 84.104C50.6379 80.936 49.5819 76.568 49.5819 71ZM68.4939 71C68.4939 67.768 68.1419 65.288 67.4379 63.56C66.7339 61.8 65.2779 60.92 63.0699 60.92C60.8619 60.92 59.4059 61.8 58.7019 63.56C57.9979 65.288 57.6459 67.768 57.6459 71C57.6459 73.176 57.7739 74.984 58.0299 76.424C58.2859 77.832 58.7979 78.984 59.5659 79.88C60.3659 80.744 61.5339 81.176 63.0699 81.176C64.6059 81.176 65.7579 80.744 66.5259 79.88C67.3259 78.984 67.8539 77.832 68.1099 76.424C68.3659 74.984 68.4939 73.176 68.4939 71ZM80.0304 61.592V53.96H93.3264V89H84.7824V61.592H80.0304ZM99.1333 82.76V76.136L114.301 54.44H123.469V75.656H127.405V82.76H123.469V89H115.261V82.76H99.1333ZM115.837 63.464L107.773 75.656H115.837V63.464Z" fill="white"/>
<path d="M27.572 117.684V126H26.06V118.98H22.508V126H20.996V117.684H27.572ZM31.9144 117.6C33.1224 117.6 34.0464 117.82 34.6864 118.26C35.3344 118.7 35.6584 119.388 35.6584 120.324C35.6584 120.812 35.5704 121.232 35.3944 121.584C35.2264 121.928 34.9784 122.212 34.6504 122.436C34.3224 122.652 33.9224 122.812 33.4504 122.916C32.9784 123.02 32.4384 123.072 31.8304 123.072H31.0744V126H29.5624V117.804C29.9144 117.724 30.3024 117.672 30.7264 117.648C31.1584 117.616 31.5544 117.6 31.9144 117.6ZM32.0224 118.908C31.6384 118.908 31.3224 118.92 31.0744 118.944V121.776H31.8064C32.5344 121.776 33.0944 121.676 33.4864 121.476C33.8784 121.268 34.0744 120.88 34.0744 120.312C34.0744 120.04 34.0224 119.812 33.9184 119.628C33.8144 119.444 33.6704 119.3 33.4864 119.196C33.3024 119.092 33.0824 119.02 32.8264 118.98C32.5784 118.932 32.3104 118.908 32.0224 118.908ZM37.039 126V117.684H38.539V123.204C38.811 122.772 39.119 122.308 39.463 121.812C39.815 121.308 40.175 120.808 40.543 120.312C40.919 119.816 41.291 119.34 41.659 118.884C42.027 118.42 42.371 118.02 42.691 117.684H43.927V126H42.439V120.048C42.103 120.448 41.747 120.9 41.371 121.404C41.003 121.9 40.639 122.416 40.279 122.952C39.919 123.48 39.571 124.008 39.235 124.536C38.899 125.056 38.595 125.544 38.323 126H37.039ZM45.0818 124.716H46.1138C46.4738 124.22 46.7498 123.7 46.9418 123.156C47.1418 122.604 47.2858 122.036 47.3738 121.452C47.4698 120.86 47.5258 120.252 47.5418 119.628C47.5578 118.996 47.5658 118.348 47.5658 117.684H52.6658V124.716H53.9018V128.22H52.4498V126H46.5338V128.22H45.0818V124.716ZM49.0178 118.98C48.9938 119.46 48.9658 119.952 48.9338 120.456C48.9018 120.96 48.8418 121.46 48.7538 121.956C48.6738 122.444 48.5578 122.924 48.4058 123.396C48.2538 123.86 48.0458 124.3 47.7818 124.716H51.1778V118.98H49.0178ZM59.1656 123.516C58.9656 123.964 58.7576 124.356 58.5416 124.692C58.3336 125.02 58.1016 125.292 57.8456 125.508C57.5976 125.724 57.3176 125.884 57.0056 125.988C56.7016 126.092 56.3576 126.144 55.9736 126.144C55.7416 126.144 55.4976 126.12 55.2416 126.072C54.9936 126.024 54.7896 125.964 54.6296 125.892L54.9056 124.644C55.0576 124.708 55.2176 124.76 55.3856 124.8C55.5536 124.832 55.7256 124.848 55.9016 124.848C56.2696 124.848 56.5736 124.764 56.8136 124.596C57.0616 124.428 57.2896 124.152 57.4976 123.768C57.1616 123.224 56.8376 122.676 56.5256 122.124C56.2216 121.572 55.9376 121.036 55.6736 120.516C55.4096 119.988 55.1656 119.484 54.9416 119.004C54.7256 118.524 54.5296 118.084 54.3536 117.684H56.0456C56.1736 118.012 56.3176 118.364 56.4776 118.74C56.6456 119.116 56.8216 119.504 57.0056 119.904C57.1976 120.304 57.3976 120.712 57.6056 121.128C57.8136 121.544 58.0216 121.96 58.2296 122.376C58.5176 121.664 58.7936 120.904 59.0576 120.096C59.3216 119.288 59.5696 118.484 59.8016 117.684H61.4336C61.2416 118.276 61.0496 118.836 60.8576 119.364C60.6656 119.884 60.4736 120.384 60.2816 120.864C60.0976 121.336 59.9096 121.792 59.7176 122.232C59.5336 122.664 59.3496 123.092 59.1656 123.516ZM64.3041 117.684C64.4801 117.988 64.6761 118.36 64.8921 118.8C65.1081 119.24 65.3281 119.704 65.5521 120.192C65.7761 120.672 65.9961 121.164 66.2121 121.668C66.4361 122.164 66.6401 122.624 66.8241 123.048C67.0081 122.624 67.2081 122.164 67.4241 121.668C67.6401 121.164 67.8601 120.672 68.0841 120.192C68.3081 119.704 68.5281 119.24 68.7441 118.8C68.9601 118.36 69.1561 117.988 69.3321 117.684H70.7001C70.7721 118.292 70.8401 118.94 70.9041 119.628C70.9681 120.308 71.0241 121.008 71.0721 121.728C71.1281 122.44 71.1761 123.16 71.2161 123.888C71.2641 124.608 71.3041 125.312 71.3361 126H69.8481C69.8161 125.032 69.7761 124.036 69.7281 123.012C69.6881 121.988 69.6241 120.996 69.5361 120.036C69.4481 120.22 69.3441 120.44 69.2241 120.696C69.1041 120.952 68.9761 121.232 68.8401 121.536C68.7041 121.832 68.5641 122.14 68.4201 122.46C68.2841 122.78 68.1481 123.092 68.0121 123.396C67.8841 123.692 67.7641 123.972 67.6521 124.236C67.5401 124.492 67.4441 124.712 67.3641 124.896H66.2361C66.1561 124.712 66.0601 124.488 65.9481 124.224C65.8361 123.96 65.7121 123.68 65.5761 123.384C65.4481 123.08 65.3121 122.768 65.1681 122.448C65.0321 122.128 64.8961 121.82 64.7601 121.524C64.6241 121.228 64.4961 120.952 64.3761 120.696C64.2561 120.432 64.1521 120.212 64.0641 120.036C63.9761 120.996 63.9081 121.988 63.8601 123.012C63.8201 124.036 63.7841 125.032 63.7521 126H62.2641C62.2961 125.312 62.3321 124.6 62.3721 123.864C62.4201 123.128 62.4681 122.4 62.5161 121.68C62.5721 120.952 62.6321 120.248 62.6961 119.568C62.7601 118.888 62.8281 118.26 62.9001 117.684H64.3041ZM78.6176 126C78.5056 125.672 78.3896 125.348 78.2696 125.028C78.1496 124.708 78.0336 124.38 77.9216 124.044H74.4176C74.3056 124.38 74.1896 124.712 74.0696 125.04C73.9576 125.36 73.8456 125.68 73.7336 126H72.1616C72.4736 125.112 72.7696 124.292 73.0496 123.54C73.3296 122.788 73.6016 122.076 73.8656 121.404C74.1376 120.732 74.4056 120.092 74.6696 119.484C74.9336 118.876 75.2056 118.276 75.4856 117.684H76.9136C77.1936 118.276 77.4656 118.876 77.7296 119.484C77.9936 120.092 78.2576 120.732 78.5216 121.404C78.7936 122.076 79.0696 122.788 79.3496 123.54C79.6376 124.292 79.9376 125.112 80.2496 126H78.6176ZM76.1696 119.292C75.9856 119.716 75.7736 120.232 75.5336 120.84C75.3016 121.448 75.0576 122.108 74.8016 122.82H77.5376C77.2816 122.108 77.0336 121.444 76.7936 120.828C76.5536 120.212 76.3456 119.7 76.1696 119.292ZM84.7265 118.98C84.7025 119.524 84.6745 120.08 84.6425 120.648C84.6105 121.208 84.5505 121.752 84.4625 122.28C84.3825 122.8 84.2625 123.292 84.1025 123.756C83.9425 124.22 83.7225 124.628 83.4425 124.98C83.1625 125.324 82.8105 125.6 82.3865 125.808C81.9705 126.016 81.4585 126.128 80.8505 126.144L80.6825 124.824C80.9705 124.792 81.2225 124.736 81.4385 124.656C81.6545 124.576 81.8425 124.472 82.0025 124.344C82.1625 124.208 82.3025 124.044 82.4225 123.852C82.5425 123.652 82.6465 123.42 82.7345 123.156C82.9505 122.532 83.0945 121.752 83.1665 120.816C83.2385 119.88 83.2745 118.836 83.2745 117.684H88.4705V126H86.9465V118.98H84.7265ZM90.4648 126V117.684H91.9648V123.204C92.2368 122.772 92.5448 122.308 92.8888 121.812C93.2408 121.308 93.6008 120.808 93.9688 120.312C94.3448 119.816 94.7168 119.34 95.0848 118.884C95.4528 118.42 95.7968 118.02 96.1168 117.684H97.3528V126H95.8648V120.048C95.5288 120.448 95.1728 120.9 94.7968 121.404C94.4288 121.9 94.0648 122.416 93.7048 122.952C93.3448 123.48 92.9968 124.008 92.6608 124.536C92.3248 125.056 92.0208 125.544 91.7488 126H90.4648ZM102.148 126V117.684H103.648V123.204C103.92 122.772 104.228 122.308 104.572 121.812C104.924 121.308 105.284 120.808 105.652 120.312C106.028 119.816 106.4 119.34 106.768 118.884C107.136 118.42 107.48 118.02 107.8 117.684H109.036V126H107.548V120.048C107.212 120.448 106.856 120.9 106.48 121.404C106.112 121.9 105.748 122.416 105.388 122.952C105.028 123.48 104.68 124.008 104.344 124.536C104.008 125.056 103.704 125.544 103.432 126H102.148ZM110.191 124.716H111.223C111.583 124.22 111.859 123.7 112.051 123.156C112.251 122.604 112.395 122.036 112.483 121.452C112.579 120.86 112.635 120.252 112.651 119.628C112.667 118.996 112.675 118.348 112.675 117.684H117.775V124.716H119.011V128.22H117.559V126H111.643V128.22H110.191V124.716ZM114.127 118.98C114.103 119.46 114.075 119.952 114.043 120.456C114.011 120.96 113.951 121.46 113.863 121.956C113.783 122.444 113.667 122.924 113.515 123.396C113.363 123.86 113.155 124.3 112.891 124.716H116.287V118.98H114.127ZM120.207 126V117.684H125.547V118.968H121.719V121.02H125.127V122.28H121.719V124.716H125.835V126H120.207ZM134.342 117.492C134.87 117.492 135.37 117.584 135.842 117.768C136.314 117.952 136.73 118.228 137.09 118.596C137.45 118.964 137.734 119.42 137.942 119.964C138.15 120.5 138.254 121.124 138.254 121.836C138.254 122.548 138.15 123.176 137.942 123.72C137.734 124.256 137.45 124.708 137.09 125.076C136.738 125.436 136.326 125.708 135.854 125.892C135.382 126.076 134.878 126.168 134.342 126.168C133.838 126.168 133.358 126.088 132.902 125.928C132.454 125.76 132.054 125.516 131.702 125.196C131.358 124.868 131.074 124.464 130.85 123.984C130.626 123.504 130.49 122.944 130.442 122.304H128.75V126H127.238V117.684H128.75V121.02H130.478C130.558 120.444 130.714 119.936 130.946 119.496C131.186 119.056 131.478 118.688 131.822 118.392C132.166 118.096 132.554 117.872 132.986 117.72C133.418 117.568 133.87 117.492 134.342 117.492ZM134.342 124.848C135.086 124.848 135.662 124.58 136.07 124.044C136.478 123.5 136.682 122.764 136.682 121.836C136.682 121.38 136.63 120.968 136.526 120.6C136.422 120.224 136.27 119.904 136.07 119.64C135.87 119.376 135.622 119.176 135.326 119.04C135.038 118.896 134.71 118.824 134.342 118.824C133.974 118.824 133.642 118.896 133.346 119.04C133.058 119.176 132.814 119.376 132.614 119.64C132.414 119.904 132.258 120.224 132.146 120.6C132.042 120.968 131.99 121.38 131.99 121.836C131.99 122.764 132.194 123.5 132.602 124.044C133.018 124.58 133.598 124.848 134.342 124.848Z" fill="white"/>
<defs>
<linearGradient id="paint0_linear" x1="130" y1="0" x2="130" y2="170" gradientUnits="userSpaceOnUse">
<stop stop-color="#FF2F01"/>
<stop offset="1" stop-color="#FF055F"/>
</linearGradient>
</defs>
</svg>
