<svg width="260" height="170" viewBox="0 0 260 170" fill="none" xmlns="http://www.w3.org/2000/svg">
<rect width="260" height="170" rx="16" fill="url(#paint0_linear)"/>
<path d="M21.872 82.424C22.96 81.56 23.456 81.16 23.36 81.224C26.496 78.632 28.96 76.504 30.752 74.84C32.576 73.176 34.112 71.432 35.36 69.608C36.608 67.784 37.232 66.008 37.232 64.28C37.232 62.968 36.928 61.944 36.32 61.208C35.712 60.472 34.8 60.104 33.584 60.104C32.368 60.104 31.408 60.568 30.704 61.496C30.032 62.392 29.696 63.672 29.696 65.336H21.776C21.84 62.616 22.416 60.344 23.504 58.52C24.624 56.696 26.08 55.352 27.872 54.488C29.696 53.624 31.712 53.192 33.92 53.192C37.728 53.192 40.592 54.168 42.512 56.12C44.464 58.072 45.44 60.616 45.44 63.752C45.44 67.176 44.272 70.36 41.936 73.304C39.6 76.216 36.624 79.064 33.008 81.848H45.968V88.52H21.872V82.424ZM49.5819 71C49.5819 65.496 50.6379 61.16 52.7499 57.992C54.8939 54.824 58.3339 53.24 63.0699 53.24C67.8059 53.24 71.2299 54.824 73.3419 57.992C75.4859 61.16 76.5579 65.496 76.5579 71C76.5579 76.568 75.4859 80.936 73.3419 84.104C71.2299 87.272 67.8059 88.856 63.0699 88.856C58.3339 88.856 54.8939 87.272 52.7499 84.104C50.6379 80.936 49.5819 76.568 49.5819 71ZM68.4939 71C68.4939 67.768 68.1419 65.288 67.4379 63.56C66.7339 61.8 65.2779 60.92 63.0699 60.92C60.8619 60.92 59.4059 61.8 58.7019 63.56C57.9979 65.288 57.6459 67.768 57.6459 71C57.6459 73.176 57.7739 74.984 58.0299 76.424C58.2859 77.832 58.7979 78.984 59.5659 79.88C60.3659 80.744 61.5339 81.176 63.0699 81.176C64.6059 81.176 65.7579 80.744 66.5259 79.88C67.3259 78.984 67.8539 77.832 68.1099 76.424C68.3659 74.984 68.4939 73.176 68.4939 71ZM80.0304 61.592V53.96H93.3264V89H84.7824V61.592H80.0304ZM123.613 61.112H108.637V67.736C109.277 67.032 110.173 66.456 111.325 66.008C112.477 65.56 113.725 65.336 115.069 65.336C117.469 65.336 119.453 65.88 121.021 66.968C122.621 68.056 123.789 69.464 124.525 71.192C125.261 72.92 125.629 74.792 125.629 76.808C125.629 80.552 124.573 83.528 122.461 85.736C120.349 87.912 117.373 89 113.533 89C110.973 89 108.749 88.568 106.861 87.704C104.973 86.808 103.517 85.576 102.493 84.008C101.469 82.44 100.909 80.632 100.813 78.584H108.829C109.021 79.576 109.485 80.408 110.221 81.08C110.957 81.72 111.965 82.04 113.245 82.04C114.749 82.04 115.869 81.56 116.605 80.6C117.341 79.64 117.709 78.36 117.709 76.76C117.709 75.192 117.325 73.992 116.557 73.16C115.789 72.328 114.669 71.912 113.197 71.912C112.109 71.912 111.213 72.184 110.509 72.728C109.805 73.24 109.341 73.928 109.117 74.792H101.197V53.912H123.613V61.112Z" fill="white"/>
<path d="M26.12 117.684H27.632V126H26.12V122.316H22.508V126H20.996V117.684H22.508V121.008H26.12V117.684ZM35.141 126C35.029 125.672 34.913 125.348 34.793 125.028C34.673 124.708 34.557 124.38 34.445 124.044H30.941C30.829 124.38 30.713 124.712 30.593 125.04C30.481 125.36 30.369 125.68 30.257 126H28.685C28.997 125.112 29.293 124.292 29.573 123.54C29.853 122.788 30.125 122.076 30.389 121.404C30.661 120.732 30.929 120.092 31.193 119.484C31.457 118.876 31.729 118.276 32.009 117.684H33.437C33.717 118.276 33.989 118.876 34.253 119.484C34.517 120.092 34.781 120.732 35.045 121.404C35.317 122.076 35.593 122.788 35.873 123.54C36.161 124.292 36.461 125.112 36.773 126H35.141ZM32.693 119.292C32.509 119.716 32.297 120.232 32.057 120.84C31.825 121.448 31.581 122.108 31.325 122.82H34.061C33.805 122.108 33.557 121.444 33.317 120.828C33.077 120.212 32.869 119.7 32.693 119.292ZM37.8241 126V117.684H39.3361V124.716H42.0721V117.684H43.5961V124.716H46.3321V117.684H47.8441V126H37.8241ZM53.0038 118.98C52.9798 119.524 52.9518 120.08 52.9198 120.648C52.8878 121.208 52.8278 121.752 52.7398 122.28C52.6598 122.8 52.5398 123.292 52.3798 123.756C52.2198 124.22 51.9998 124.628 51.7198 124.98C51.4398 125.324 51.0878 125.6 50.6638 125.808C50.2478 126.016 49.7358 126.128 49.1278 126.144L48.9598 124.824C49.2478 124.792 49.4998 124.736 49.7158 124.656C49.9318 124.576 50.1198 124.472 50.2798 124.344C50.4398 124.208 50.5798 124.044 50.6998 123.852C50.8198 123.652 50.9238 123.42 51.0118 123.156C51.2278 122.532 51.3718 121.752 51.4438 120.816C51.5158 119.88 51.5518 118.836 51.5518 117.684H56.7478V126H55.2238V118.98H53.0038ZM58.7421 126V117.684H60.2421V123.204C60.5141 122.772 60.8221 122.308 61.1661 121.812C61.5181 121.308 61.8781 120.808 62.2461 120.312C62.6221 119.816 62.9941 119.34 63.3621 118.884C63.7301 118.42 64.0741 118.02 64.3941 117.684H65.6301V126H64.1421V120.048C63.8061 120.448 63.4501 120.9 63.0741 121.404C62.7061 121.9 62.3421 122.416 61.9821 122.952C61.6221 123.48 61.2741 124.008 60.9381 124.536C60.6021 125.056 60.2981 125.544 60.0261 126H58.7421ZM74.1217 126.18C73.4977 126.18 72.9377 126.084 72.4417 125.892C71.9457 125.7 71.5257 125.42 71.1817 125.052C70.8377 124.676 70.5737 124.22 70.3897 123.684C70.2057 123.148 70.1137 122.532 70.1137 121.836C70.1137 121.14 70.2177 120.524 70.4257 119.988C70.6417 119.452 70.9337 119 71.3017 118.632C71.6697 118.256 72.1017 117.972 72.5977 117.78C73.0937 117.588 73.6257 117.492 74.1937 117.492C74.5377 117.492 74.8497 117.52 75.1297 117.576C75.4097 117.624 75.6537 117.68 75.8617 117.744C76.0697 117.808 76.2417 117.876 76.3777 117.948C76.5137 118.02 76.6097 118.072 76.6657 118.104L76.2217 119.34C76.0297 119.22 75.7537 119.108 75.3937 119.004C75.0417 118.892 74.6577 118.836 74.2417 118.836C73.8817 118.836 73.5457 118.9 73.2337 119.028C72.9217 119.148 72.6497 119.332 72.4177 119.58C72.1937 119.828 72.0177 120.14 71.8897 120.516C71.7617 120.892 71.6977 121.328 71.6977 121.824C71.6977 122.264 71.7457 122.668 71.8417 123.036C71.9457 123.404 72.1017 123.724 72.3097 123.996C72.5177 124.26 72.7817 124.468 73.1017 124.62C73.4217 124.764 73.8057 124.836 74.2537 124.836C74.7897 124.836 75.2257 124.784 75.5617 124.68C75.8977 124.568 76.1577 124.464 76.3417 124.368L76.7497 125.604C76.6537 125.668 76.5217 125.732 76.3537 125.796C76.1937 125.86 76.0017 125.924 75.7777 125.988C75.5537 126.044 75.3017 126.088 75.0217 126.12C74.7417 126.16 74.4417 126.18 74.1217 126.18ZM78.078 126V117.684H83.418V118.968H79.59V121.02H82.998V122.28H79.59V124.716H83.706V126H78.078ZM87.4613 117.6C88.6693 117.6 89.5933 117.82 90.2333 118.26C90.8813 118.7 91.2053 119.388 91.2053 120.324C91.2053 120.812 91.1173 121.232 90.9413 121.584C90.7733 121.928 90.5253 122.212 90.1973 122.436C89.8693 122.652 89.4693 122.812 88.9973 122.916C88.5253 123.02 87.9853 123.072 87.3773 123.072H86.6213V126H85.1093V117.804C85.4613 117.724 85.8493 117.672 86.2733 117.648C86.7053 117.616 87.1013 117.6 87.4613 117.6ZM87.5693 118.908C87.1853 118.908 86.8693 118.92 86.6213 118.944V121.776H87.3533C88.0813 121.776 88.6413 121.676 89.0333 121.476C89.4253 121.268 89.6213 120.88 89.6213 120.312C89.6213 120.04 89.5693 119.812 89.4653 119.628C89.3613 119.444 89.2173 119.3 89.0333 119.196C88.8493 119.092 88.6293 119.02 88.3733 118.98C88.1253 118.932 87.8573 118.908 87.5693 118.908ZM95.0938 126.096C94.6538 126.096 94.2098 126.08 93.7618 126.048C93.3138 126.024 92.9218 125.968 92.5858 125.88V117.804C92.7618 117.772 92.9498 117.744 93.1498 117.72C93.3498 117.688 93.5538 117.664 93.7618 117.648C93.9698 117.632 94.1738 117.62 94.3738 117.612C94.5818 117.604 94.7778 117.6 94.9618 117.6C95.4658 117.6 95.9338 117.64 96.3658 117.72C96.7978 117.792 97.1698 117.916 97.4818 118.092C97.8018 118.268 98.0498 118.5 98.2258 118.788C98.4018 119.076 98.4898 119.432 98.4898 119.856C98.4898 120.248 98.3938 120.584 98.2018 120.864C98.0178 121.144 97.7578 121.368 97.4218 121.536C97.9258 121.704 98.2978 121.952 98.5378 122.28C98.7778 122.608 98.8978 123.024 98.8978 123.528C98.8978 124.384 98.5858 125.028 97.9618 125.46C97.3378 125.884 96.3818 126.096 95.0938 126.096ZM94.0738 122.256V124.788C94.2418 124.804 94.4218 124.816 94.6138 124.824C94.8058 124.832 94.9818 124.836 95.1418 124.836C95.4538 124.836 95.7418 124.816 96.0058 124.776C96.2778 124.736 96.5098 124.668 96.7018 124.572C96.9018 124.468 97.0578 124.332 97.1698 124.164C97.2898 123.996 97.3498 123.78 97.3498 123.516C97.3498 123.044 97.1778 122.716 96.8338 122.532C96.4898 122.348 96.0138 122.256 95.4058 122.256H94.0738ZM94.0738 121.068H95.1418C95.7178 121.068 96.1698 120.988 96.4978 120.828C96.8258 120.66 96.9898 120.364 96.9898 119.94C96.9898 119.54 96.8178 119.256 96.4738 119.088C96.1378 118.92 95.6978 118.836 95.1538 118.836C94.9218 118.836 94.7138 118.84 94.5298 118.848C94.3538 118.856 94.2018 118.868 94.0738 118.884V121.068ZM100.473 126V117.684H105.813V118.968H101.985V121.02H105.393V122.28H101.985V124.716H106.101V126H100.473ZM109.856 117.6C111.064 117.6 111.988 117.82 112.628 118.26C113.276 118.7 113.6 119.388 113.6 120.324C113.6 120.812 113.512 121.232 113.336 121.584C113.168 121.928 112.92 122.212 112.592 122.436C112.264 122.652 111.864 122.812 111.392 122.916C110.92 123.02 110.38 123.072 109.772 123.072H109.016V126H107.504V117.804C107.856 117.724 108.244 117.672 108.668 117.648C109.1 117.616 109.496 117.6 109.856 117.6ZM109.964 118.908C109.58 118.908 109.264 118.92 109.016 118.944V121.776H109.748C110.476 121.776 111.036 121.676 111.428 121.476C111.82 121.268 112.016 120.88 112.016 120.312C112.016 120.04 111.964 119.812 111.86 119.628C111.756 119.444 111.612 119.3 111.428 119.196C111.244 119.092 111.024 119.02 110.768 118.98C110.52 118.932 110.252 118.908 109.964 118.908ZM119.961 126C119.849 125.672 119.733 125.348 119.613 125.028C119.493 124.708 119.377 124.38 119.265 124.044H115.761C115.649 124.38 115.533 124.712 115.413 125.04C115.301 125.36 115.189 125.68 115.077 126H113.505C113.817 125.112 114.113 124.292 114.393 123.54C114.673 122.788 114.945 122.076 115.209 121.404C115.481 120.732 115.749 120.092 116.013 119.484C116.277 118.876 116.549 118.276 116.829 117.684H118.257C118.537 118.276 118.809 118.876 119.073 119.484C119.337 120.092 119.601 120.732 119.865 121.404C120.137 122.076 120.413 122.788 120.693 123.54C120.981 124.292 121.281 125.112 121.593 126H119.961ZM117.513 119.292C117.329 119.716 117.117 120.232 116.877 120.84C116.645 121.448 116.401 122.108 116.145 122.82H118.881C118.625 122.108 118.377 121.444 118.137 120.828C117.897 120.212 117.689 119.7 117.513 119.292Z" fill="white"/>
<defs>
<linearGradient id="paint0_linear" x1="130" y1="0" x2="130" y2="170" gradientUnits="userSpaceOnUse">
<stop stop-color="#FF2F01"/>
<stop offset="1" stop-color="#FF055F"/>
</linearGradient>
</defs>
</svg>
