<svg width="260" height="170" viewBox="0 0 260 170" fill="none" xmlns="http://www.w3.org/2000/svg">
<rect width="260" height="170" rx="16" fill="url(#paint0_linear)"/>
<path d="M21.632 82.472C31.808 75.208 36.896 69.432 36.896 65.144C36.896 62.52 35.76 61.208 33.488 61.208C32.208 61.208 31.264 61.656 30.656 62.552C30.08 63.448 29.76 64.84 29.696 66.728H21.68C21.872 62.6 23.12 59.496 25.424 57.416C27.728 55.336 30.64 54.296 34.16 54.296C37.84 54.296 40.608 55.224 42.464 57.08C44.352 58.936 45.296 61.352 45.296 64.328C45.296 67.624 44.032 70.856 41.504 74.024C38.976 77.16 35.952 79.816 32.432 81.992H45.824V88.616H21.632V82.472ZM49.2035 71.672C49.2035 76.984 50.2755 81.192 52.4195 84.296C54.5635 87.4 57.9875 88.952 62.6915 88.952C67.3635 88.952 70.7715 87.4 72.9155 84.296C75.0915 81.192 76.1795 76.984 76.1795 71.672C76.1795 66.392 75.0915 62.216 72.9155 59.144C70.7715 56.04 67.3635 54.488 62.6915 54.488C57.9875 54.488 54.5635 56.04 52.4195 59.144C50.2755 62.216 49.2035 66.392 49.2035 71.672ZM68.0195 71.672C68.0195 74.712 67.6515 77.064 66.9155 78.728C66.2115 80.36 64.8035 81.176 62.6915 81.176C60.5475 81.176 59.1075 80.36 58.3715 78.728C57.6355 77.064 57.2675 74.712 57.2675 71.672C57.2675 68.664 57.6355 66.344 58.3715 64.712C59.1075 63.08 60.5475 62.264 62.6915 62.264C64.8035 62.264 66.2115 63.08 66.9155 64.712C67.6515 66.312 68.0195 68.632 68.0195 71.672ZM78.6061 62.744V55.064H92.3341V89H83.6941V62.744H78.6061ZM98.4035 62.696C98.4035 61.064 98.8675 59.528 99.7955 58.088C100.724 56.648 102.1 55.48 103.924 54.584C105.78 53.688 108.02 53.24 110.644 53.24C113.3 53.24 115.54 53.688 117.364 54.584C119.22 55.48 120.596 56.648 121.492 58.088C122.42 59.528 122.884 61.064 122.884 62.696C122.884 64.488 122.468 66.024 121.635 67.304C120.804 68.552 119.588 69.512 117.988 70.184C121.796 71.88 123.7 74.744 123.7 78.776C123.7 81.08 123.124 83.064 121.972 84.728C120.82 86.36 119.252 87.608 117.268 88.472C115.316 89.304 113.108 89.72 110.644 89.72C108.212 89.72 106.004 89.304 104.02 88.472C102.036 87.608 100.468 86.36 99.3155 84.728C98.1635 83.064 97.5875 81.08 97.5875 78.776C97.5875 74.744 99.4915 71.88 103.3 70.184C101.7 69.512 100.484 68.552 99.6515 67.304C98.8195 66.024 98.4035 64.488 98.4035 62.696ZM106.468 64.088C106.468 65.4 106.836 66.408 107.572 67.112C108.34 67.784 109.364 68.12 110.644 68.12C111.924 68.12 112.932 67.784 113.668 67.112C114.436 66.408 114.82 65.4 114.82 64.088C114.82 62.808 114.436 61.8 113.668 61.064C112.9 60.328 111.892 59.96 110.644 59.96C109.396 59.96 108.388 60.328 107.62 61.064C106.852 61.8 106.468 62.808 106.468 64.088ZM105.556 78.296C105.556 79.736 106.004 80.872 106.9 81.704C107.828 82.536 109.076 82.952 110.644 82.952C112.212 82.952 113.444 82.536 114.34 81.704C115.268 80.872 115.732 79.736 115.732 78.296C115.732 76.856 115.252 75.736 114.292 74.936C113.364 74.104 112.148 73.688 110.644 73.688C109.14 73.688 107.908 74.104 106.948 74.936C106.02 75.736 105.556 76.856 105.556 78.296Z" fill="white"/>
<path d="M22.472 118.968V120.72H23.288C23.888 120.72 24.424 120.768 24.896 120.864C25.368 120.96 25.768 121.116 26.096 121.332C26.424 121.54 26.672 121.816 26.84 122.16C27.016 122.496 27.104 122.908 27.104 123.396C27.104 124.3 26.776 124.976 26.12 125.424C25.472 125.864 24.544 126.084 23.336 126.084C23 126.084 22.62 126.064 22.196 126.024C21.772 125.992 21.372 125.932 20.996 125.844V117.684H26.324V118.968H22.472ZM23 124.776C23.088 124.776 23.188 124.776 23.3 124.776C23.412 124.776 23.536 124.772 23.672 124.764C23.92 124.756 24.156 124.728 24.38 124.68C24.612 124.632 24.812 124.556 24.98 124.452C25.156 124.348 25.292 124.212 25.388 124.044C25.492 123.876 25.544 123.664 25.544 123.408C25.544 123.12 25.492 122.884 25.388 122.7C25.284 122.516 25.132 122.372 24.932 122.268C24.732 122.156 24.488 122.08 24.2 122.04C23.92 121.992 23.6 121.968 23.24 121.968H22.472V124.752C22.544 124.76 22.62 124.768 22.7 124.776C22.788 124.776 22.888 124.776 23 124.776ZM29.7789 121.836C29.7789 122.292 29.8349 122.708 29.9469 123.084C30.0589 123.452 30.2189 123.768 30.4269 124.032C30.6429 124.288 30.9029 124.488 31.2069 124.632C31.5109 124.776 31.8549 124.848 32.2389 124.848C32.6149 124.848 32.9549 124.776 33.2589 124.632C33.5629 124.488 33.8189 124.288 34.0269 124.032C34.2429 123.768 34.4069 123.452 34.5189 123.084C34.6309 122.708 34.6869 122.292 34.6869 121.836C34.6869 121.38 34.6309 120.968 34.5189 120.6C34.4069 120.224 34.2429 119.908 34.0269 119.652C33.8189 119.388 33.5629 119.184 33.2589 119.04C32.9549 118.896 32.6149 118.824 32.2389 118.824C31.8549 118.824 31.5109 118.896 31.2069 119.04C30.9029 119.184 30.6429 119.388 30.4269 119.652C30.2189 119.916 30.0589 120.232 29.9469 120.6C29.8349 120.968 29.7789 121.38 29.7789 121.836ZM36.2709 121.836C36.2709 122.548 36.1629 123.176 35.9469 123.72C35.7389 124.264 35.4509 124.72 35.0829 125.088C34.7229 125.448 34.2989 125.72 33.8109 125.904C33.3229 126.088 32.8029 126.18 32.2509 126.18C31.6989 126.18 31.1749 126.088 30.6789 125.904C30.1909 125.72 29.7629 125.448 29.3949 125.088C29.0349 124.72 28.7469 124.264 28.5309 123.72C28.3149 123.176 28.2069 122.548 28.2069 121.836C28.2069 121.124 28.3149 120.5 28.5309 119.964C28.7469 119.42 29.0389 118.964 29.4069 118.596C29.7829 118.228 30.2149 117.952 30.7029 117.768C31.1909 117.584 31.7069 117.492 32.2509 117.492C32.7949 117.492 33.3109 117.584 33.7989 117.768C34.2869 117.952 34.7109 118.228 35.0709 118.596C35.4389 118.964 35.7309 119.42 35.9469 119.964C36.1629 120.5 36.2709 121.124 36.2709 121.836ZM40.8632 118.98C40.8392 119.524 40.8112 120.08 40.7792 120.648C40.7472 121.208 40.6872 121.752 40.5992 122.28C40.5192 122.8 40.3992 123.292 40.2392 123.756C40.0792 124.22 39.8592 124.628 39.5792 124.98C39.2992 125.324 38.9472 125.6 38.5232 125.808C38.1072 126.016 37.5952 126.128 36.9872 126.144L36.8192 124.824C37.1072 124.792 37.3592 124.736 37.5752 124.656C37.7912 124.576 37.9792 124.472 38.1392 124.344C38.2992 124.208 38.4392 124.044 38.5592 123.852C38.6792 123.652 38.7832 123.42 38.8712 123.156C39.0872 122.532 39.2312 121.752 39.3032 120.816C39.3752 119.88 39.4112 118.836 39.4112 117.684H44.6072V126H43.0832V118.98H40.8632ZM52.7575 123.384C52.7575 124.272 52.4215 124.948 51.7495 125.412C51.0855 125.868 50.1495 126.096 48.9415 126.096C48.6055 126.096 48.2255 126.076 47.8015 126.036C47.3855 125.996 46.9855 125.932 46.6015 125.844V117.684H48.1135V120.672C48.2495 120.656 48.3775 120.648 48.4975 120.648C48.6175 120.648 48.7415 120.648 48.8695 120.648C51.4615 120.648 52.7575 121.56 52.7575 123.384ZM48.7615 121.944C48.6655 121.944 48.5615 121.944 48.4495 121.944C48.3375 121.944 48.2255 121.952 48.1135 121.968V124.776C48.2255 124.784 48.3535 124.792 48.4975 124.8C48.6495 124.8 48.8295 124.8 49.0375 124.8C49.3175 124.8 49.5855 124.78 49.8415 124.74C50.1055 124.692 50.3335 124.616 50.5255 124.512C50.7255 124.4 50.8855 124.256 51.0055 124.08C51.1255 123.896 51.1855 123.664 51.1855 123.384C51.1855 123.104 51.1255 122.872 51.0055 122.688C50.8935 122.504 50.7295 122.356 50.5135 122.244C50.3055 122.132 50.0535 122.056 49.7575 122.016C49.4615 121.968 49.1295 121.944 48.7615 121.944ZM54.1835 126V117.684H55.6955V124.716H58.4315V117.684H59.9555V124.716H62.6915V117.684H64.2035V126H54.1835ZM66.1952 126V117.684H71.5352V118.968H67.7072V121.02H71.1152V122.28H67.7072V124.716H71.8232V126H66.1952ZM76.1113 119.412C76.5753 119.228 77.0393 118.992 77.5033 118.704C77.9753 118.416 78.3913 118.076 78.7513 117.684H79.7713V126H78.3193V119.628C78.1033 119.796 77.8313 119.96 77.5033 120.12C77.1753 120.28 76.8593 120.412 76.5553 120.516L76.1113 119.412ZM88.1516 121.836C88.1516 123.236 87.8956 124.312 87.3836 125.064C86.8716 125.808 86.1636 126.18 85.2596 126.18C84.3556 126.18 83.6476 125.808 83.1356 125.064C82.6236 124.312 82.3676 123.236 82.3676 121.836C82.3676 121.14 82.4316 120.524 82.5596 119.988C82.6956 119.444 82.8876 118.988 83.1356 118.62C83.3916 118.252 83.6956 117.972 84.0476 117.78C84.4076 117.588 84.8116 117.492 85.2596 117.492C86.1636 117.492 86.8716 117.868 87.3836 118.62C87.8956 119.364 88.1516 120.436 88.1516 121.836ZM86.6516 121.836C86.6516 121.404 86.6276 121 86.5796 120.624C86.5316 120.248 86.4516 119.924 86.3396 119.652C86.2356 119.372 86.0956 119.152 85.9196 118.992C85.7436 118.832 85.5236 118.752 85.2596 118.752C84.9956 118.752 84.7716 118.832 84.5876 118.992C84.4116 119.152 84.2676 119.372 84.1556 119.652C84.0516 119.924 83.9756 120.248 83.9276 120.624C83.8876 121 83.8676 121.404 83.8676 121.836C83.8676 122.268 83.8876 122.672 83.9276 123.048C83.9756 123.424 84.0516 123.752 84.1556 124.032C84.2676 124.304 84.4116 124.52 84.5876 124.68C84.7716 124.84 84.9956 124.92 85.2596 124.92C85.5236 124.92 85.7436 124.84 85.9196 124.68C86.0956 124.52 86.2356 124.304 86.3396 124.032C86.4516 123.752 86.5316 123.424 86.5796 123.048C86.6276 122.672 86.6516 122.268 86.6516 121.836ZM94.9719 121.836C94.9719 123.236 94.7159 124.312 94.2039 125.064C93.6919 125.808 92.9839 126.18 92.0799 126.18C91.1759 126.18 90.4679 125.808 89.9559 125.064C89.4439 124.312 89.1879 123.236 89.1879 121.836C89.1879 121.14 89.2519 120.524 89.3799 119.988C89.5159 119.444 89.7079 118.988 89.9559 118.62C90.2119 118.252 90.5159 117.972 90.8679 117.78C91.2279 117.588 91.6319 117.492 92.0799 117.492C92.9839 117.492 93.6919 117.868 94.2039 118.62C94.7159 119.364 94.9719 120.436 94.9719 121.836ZM93.4719 121.836C93.4719 121.404 93.4479 121 93.3999 120.624C93.3519 120.248 93.2719 119.924 93.1599 119.652C93.0559 119.372 92.9159 119.152 92.7399 118.992C92.5639 118.832 92.3439 118.752 92.0799 118.752C91.8159 118.752 91.5919 118.832 91.4079 118.992C91.2319 119.152 91.0879 119.372 90.9759 119.652C90.8719 119.924 90.7959 120.248 90.7479 120.624C90.7079 121 90.6879 121.404 90.6879 121.836C90.6879 122.268 90.7079 122.672 90.7479 123.048C90.7959 123.424 90.8719 123.752 90.9759 124.032C91.0879 124.304 91.2319 124.52 91.4079 124.68C91.5919 124.84 91.8159 124.92 92.0799 124.92C92.3439 124.92 92.5639 124.84 92.7399 124.68C92.9159 124.52 93.0559 124.304 93.1599 124.032C93.2719 123.752 93.3519 123.424 93.3999 123.048C93.4479 122.672 93.4719 122.268 93.4719 121.836ZM105.085 117.684V118.992H102.529V126H101.005V118.992H98.449V117.684H105.085ZM112.274 123.384C112.274 123.832 112.186 124.224 112.01 124.56C111.842 124.896 111.594 125.18 111.266 125.412C110.946 125.636 110.554 125.808 110.09 125.928C109.634 126.04 109.118 126.096 108.542 126.096C108.206 126.096 107.834 126.076 107.426 126.036C107.018 125.996 106.622 125.932 106.238 125.844V117.684H107.75V120.672C107.87 120.656 107.99 120.648 108.11 120.648C108.23 120.648 108.346 120.648 108.458 120.648C109.722 120.648 110.674 120.876 111.314 121.332C111.954 121.78 112.274 122.464 112.274 123.384ZM113.426 117.684H114.938V126H113.426V117.684ZM108.386 121.944C108.298 121.944 108.194 121.944 108.074 121.944C107.962 121.944 107.854 121.952 107.75 121.968V124.776C107.862 124.792 107.982 124.8 108.11 124.8C108.246 124.8 108.426 124.8 108.65 124.8C108.922 124.8 109.182 124.78 109.43 124.74C109.686 124.692 109.906 124.616 110.09 124.512C110.274 124.4 110.422 124.256 110.534 124.08C110.646 123.896 110.702 123.664 110.702 123.384C110.702 123.104 110.646 122.872 110.534 122.688C110.43 122.504 110.278 122.356 110.078 122.244C109.878 122.132 109.634 122.056 109.346 122.016C109.066 121.968 108.746 121.944 108.386 121.944ZM120.622 126.18C119.998 126.18 119.438 126.084 118.942 125.892C118.446 125.7 118.026 125.42 117.682 125.052C117.338 124.676 117.074 124.22 116.89 123.684C116.706 123.148 116.614 122.532 116.614 121.836C116.614 121.14 116.718 120.524 116.926 119.988C117.142 119.452 117.434 119 117.802 118.632C118.17 118.256 118.602 117.972 119.098 117.78C119.594 117.588 120.126 117.492 120.694 117.492C121.038 117.492 121.35 117.52 121.63 117.576C121.91 117.624 122.154 117.68 122.362 117.744C122.57 117.808 122.742 117.876 122.878 117.948C123.014 118.02 123.11 118.072 123.166 118.104L122.722 119.34C122.53 119.22 122.254 119.108 121.894 119.004C121.542 118.892 121.158 118.836 120.742 118.836C120.382 118.836 120.046 118.9 119.734 119.028C119.422 119.148 119.15 119.332 118.918 119.58C118.694 119.828 118.518 120.14 118.39 120.516C118.262 120.892 118.198 121.328 118.198 121.824C118.198 122.264 118.246 122.668 118.342 123.036C118.446 123.404 118.602 123.724 118.81 123.996C119.018 124.26 119.282 124.468 119.602 124.62C119.922 124.764 120.306 124.836 120.754 124.836C121.29 124.836 121.726 124.784 122.062 124.68C122.398 124.568 122.658 124.464 122.842 124.368L123.25 125.604C123.154 125.668 123.022 125.732 122.854 125.796C122.694 125.86 122.502 125.924 122.278 125.988C122.054 126.044 121.802 126.088 121.522 126.12C121.242 126.16 120.942 126.18 120.622 126.18ZM128.19 117.6C128.518 117.6 128.89 117.616 129.306 117.648C129.722 117.672 130.114 117.724 130.482 117.804V126H128.97V122.88H128.094C127.99 122.88 127.882 122.88 127.77 122.88C127.658 122.872 127.554 122.86 127.458 122.844C127.298 123.036 127.138 123.256 126.978 123.504C126.818 123.744 126.658 124.004 126.498 124.284C126.346 124.556 126.19 124.84 126.03 125.136C125.878 125.424 125.73 125.712 125.586 126H123.978C124.122 125.688 124.278 125.372 124.446 125.052C124.614 124.732 124.782 124.424 124.95 124.128C125.126 123.824 125.298 123.544 125.466 123.288C125.642 123.024 125.802 122.8 125.946 122.616C125.402 122.416 125.002 122.12 124.746 121.728C124.49 121.336 124.362 120.852 124.362 120.276C124.362 119.828 124.45 119.436 124.626 119.1C124.81 118.764 125.066 118.488 125.394 118.272C125.73 118.048 126.134 117.88 126.606 117.768C127.078 117.656 127.606 117.6 128.19 117.6ZM128.082 118.908C127.778 118.908 127.494 118.932 127.23 118.98C126.974 119.02 126.75 119.092 126.558 119.196C126.366 119.3 126.214 119.44 126.102 119.616C125.998 119.792 125.946 120.008 125.946 120.264C125.946 120.536 125.998 120.76 126.102 120.936C126.214 121.112 126.37 121.252 126.57 121.356C126.778 121.46 127.026 121.532 127.314 121.572C127.61 121.612 127.942 121.632 128.31 121.632H128.97V118.944C128.69 118.92 128.394 118.908 128.082 118.908ZM133.652 120.108C133.652 120.772 133.796 121.24 134.084 121.512C134.372 121.776 134.832 121.908 135.464 121.908C135.72 121.908 135.976 121.892 136.232 121.86C136.496 121.828 136.72 121.796 136.904 121.764V117.684H138.416V126H136.904V123.06C136.696 123.1 136.448 123.136 136.16 123.168C135.872 123.192 135.58 123.204 135.284 123.204C134.724 123.204 134.244 123.148 133.844 123.036C133.452 122.916 133.128 122.732 132.872 122.484C132.624 122.236 132.44 121.92 132.32 121.536C132.2 121.152 132.14 120.692 132.14 120.156V117.684H133.652V120.108ZM150.315 117.492C150.843 117.492 151.343 117.584 151.815 117.768C152.287 117.952 152.703 118.228 153.063 118.596C153.423 118.964 153.707 119.42 153.915 119.964C154.123 120.5 154.227 121.124 154.227 121.836C154.227 122.548 154.123 123.176 153.915 123.72C153.707 124.256 153.423 124.708 153.063 125.076C152.711 125.436 152.299 125.708 151.827 125.892C151.355 126.076 150.851 126.168 150.315 126.168C149.811 126.168 149.331 126.088 148.875 125.928C148.427 125.76 148.027 125.516 147.675 125.196C147.331 124.868 147.047 124.464 146.823 123.984C146.599 123.504 146.463 122.944 146.415 122.304H144.723V126H143.211V117.684H144.723V121.02H146.451C146.531 120.444 146.687 119.936 146.919 119.496C147.159 119.056 147.451 118.688 147.795 118.392C148.139 118.096 148.527 117.872 148.959 117.72C149.391 117.568 149.843 117.492 150.315 117.492ZM150.315 124.848C151.059 124.848 151.635 124.58 152.043 124.044C152.451 123.5 152.655 122.764 152.655 121.836C152.655 121.38 152.603 120.968 152.499 120.6C152.395 120.224 152.243 119.904 152.043 119.64C151.843 119.376 151.595 119.176 151.299 119.04C151.011 118.896 150.683 118.824 150.315 118.824C149.947 118.824 149.615 118.896 149.319 119.04C149.031 119.176 148.787 119.376 148.587 119.64C148.387 119.904 148.231 120.224 148.119 120.6C148.015 120.968 147.963 121.38 147.963 121.836C147.963 122.764 148.167 123.5 148.575 124.044C148.991 124.58 149.571 124.848 150.315 124.848ZM157.207 121.032C157.439 121.032 157.671 121.016 157.903 120.984C158.135 120.944 158.343 120.88 158.527 120.792C158.711 120.696 158.859 120.572 158.971 120.42C159.083 120.26 159.139 120.06 159.139 119.82C159.139 119.508 159.007 119.26 158.743 119.076C158.487 118.892 158.131 118.8 157.675 118.8C157.235 118.8 156.843 118.852 156.499 118.956C156.163 119.052 155.879 119.168 155.647 119.304L155.155 118.092C155.411 117.932 155.759 117.796 156.199 117.684C156.647 117.564 157.143 117.504 157.687 117.504C158.119 117.504 158.519 117.552 158.887 117.648C159.255 117.736 159.571 117.876 159.835 118.068C160.099 118.26 160.307 118.5 160.459 118.788C160.611 119.076 160.687 119.412 160.687 119.796C160.687 120.148 160.587 120.484 160.387 120.804C160.187 121.116 159.883 121.36 159.475 121.536C159.691 121.616 159.895 121.716 160.087 121.836C160.279 121.956 160.447 122.104 160.591 122.28C160.735 122.456 160.847 122.66 160.927 122.892C161.015 123.116 161.059 123.372 161.059 123.66C161.059 124.108 160.979 124.492 160.819 124.812C160.659 125.124 160.431 125.384 160.135 125.592C159.839 125.792 159.475 125.94 159.043 126.036C158.619 126.132 158.143 126.18 157.615 126.18C157.319 126.18 157.035 126.16 156.763 126.12C156.491 126.08 156.235 126.028 155.995 125.964C155.755 125.9 155.539 125.832 155.347 125.76C155.155 125.68 154.995 125.608 154.867 125.544L155.311 124.332C155.415 124.38 155.543 124.436 155.695 124.5C155.847 124.556 156.019 124.612 156.211 124.668C156.403 124.724 156.611 124.772 156.835 124.812C157.059 124.852 157.287 124.872 157.519 124.872C158.143 124.872 158.623 124.78 158.959 124.596C159.303 124.404 159.475 124.076 159.475 123.612C159.475 123.34 159.415 123.116 159.295 122.94C159.183 122.764 159.023 122.628 158.815 122.532C158.615 122.436 158.375 122.372 158.095 122.34C157.815 122.3 157.515 122.28 157.195 122.28H156.259V121.032H157.207ZM162.629 126V117.684H167.969V118.968H164.141V121.02H167.549V122.28H164.141V124.716H168.257V126H162.629ZM172.012 117.6C173.22 117.6 174.144 117.82 174.784 118.26C175.432 118.7 175.756 119.388 175.756 120.324C175.756 120.812 175.668 121.232 175.492 121.584C175.324 121.928 175.076 122.212 174.748 122.436C174.42 122.652 174.02 122.812 173.548 122.916C173.076 123.02 172.536 123.072 171.928 123.072H171.172V126H169.66V117.804C170.012 117.724 170.4 117.672 170.824 117.648C171.256 117.616 171.652 117.6 172.012 117.6ZM172.12 118.908C171.736 118.908 171.42 118.92 171.172 118.944V121.776H171.904C172.632 121.776 173.192 121.676 173.584 121.476C173.976 121.268 174.172 120.88 174.172 120.312C174.172 120.04 174.12 119.812 174.016 119.628C173.912 119.444 173.768 119.3 173.584 119.196C173.4 119.092 173.18 119.02 172.924 118.98C172.676 118.932 172.408 118.908 172.12 118.908ZM178.373 121.836C178.373 122.292 178.429 122.708 178.541 123.084C178.653 123.452 178.813 123.768 179.021 124.032C179.237 124.288 179.497 124.488 179.801 124.632C180.105 124.776 180.449 124.848 180.833 124.848C181.209 124.848 181.549 124.776 181.853 124.632C182.157 124.488 182.413 124.288 182.621 124.032C182.837 123.768 183.001 123.452 183.113 123.084C183.225 122.708 183.281 122.292 183.281 121.836C183.281 121.38 183.225 120.968 183.113 120.6C183.001 120.224 182.837 119.908 182.621 119.652C182.413 119.388 182.157 119.184 181.853 119.04C181.549 118.896 181.209 118.824 180.833 118.824C180.449 118.824 180.105 118.896 179.801 119.04C179.497 119.184 179.237 119.388 179.021 119.652C178.813 119.916 178.653 120.232 178.541 120.6C178.429 120.968 178.373 121.38 178.373 121.836ZM184.865 121.836C184.865 122.548 184.757 123.176 184.541 123.72C184.333 124.264 184.045 124.72 183.677 125.088C183.317 125.448 182.893 125.72 182.405 125.904C181.917 126.088 181.397 126.18 180.845 126.18C180.293 126.18 179.769 126.088 179.273 125.904C178.785 125.72 178.357 125.448 177.989 125.088C177.629 124.72 177.341 124.264 177.125 123.72C176.909 123.176 176.801 122.548 176.801 121.836C176.801 121.124 176.909 120.5 177.125 119.964C177.341 119.42 177.633 118.964 178.001 118.596C178.377 118.228 178.809 117.952 179.297 117.768C179.785 117.584 180.301 117.492 180.845 117.492C181.389 117.492 181.905 117.584 182.393 117.768C182.881 117.952 183.305 118.228 183.665 118.596C184.033 118.964 184.325 119.42 184.541 119.964C184.757 120.5 184.865 121.124 184.865 121.836ZM189.031 126.096C188.591 126.096 188.147 126.08 187.699 126.048C187.251 126.024 186.859 125.968 186.523 125.88V117.804C186.699 117.772 186.887 117.744 187.087 117.72C187.287 117.688 187.491 117.664 187.699 117.648C187.907 117.632 188.111 117.62 188.311 117.612C188.519 117.604 188.715 117.6 188.899 117.6C189.403 117.6 189.871 117.64 190.303 117.72C190.735 117.792 191.107 117.916 191.419 118.092C191.739 118.268 191.987 118.5 192.163 118.788C192.339 119.076 192.427 119.432 192.427 119.856C192.427 120.248 192.331 120.584 192.139 120.864C191.955 121.144 191.695 121.368 191.359 121.536C191.863 121.704 192.235 121.952 192.475 122.28C192.715 122.608 192.835 123.024 192.835 123.528C192.835 124.384 192.523 125.028 191.899 125.46C191.275 125.884 190.319 126.096 189.031 126.096ZM188.011 122.256V124.788C188.179 124.804 188.359 124.816 188.551 124.824C188.743 124.832 188.919 124.836 189.079 124.836C189.391 124.836 189.679 124.816 189.943 124.776C190.215 124.736 190.447 124.668 190.639 124.572C190.839 124.468 190.995 124.332 191.107 124.164C191.227 123.996 191.287 123.78 191.287 123.516C191.287 123.044 191.115 122.716 190.771 122.532C190.427 122.348 189.951 122.256 189.343 122.256H188.011ZM188.011 121.068H189.079C189.655 121.068 190.107 120.988 190.435 120.828C190.763 120.66 190.927 120.364 190.927 119.94C190.927 119.54 190.755 119.256 190.411 119.088C190.075 118.92 189.635 118.836 189.091 118.836C188.859 118.836 188.651 118.84 188.467 118.848C188.291 118.856 188.139 118.868 188.011 118.884V121.068Z" fill="white"/>
<defs>
<linearGradient id="paint0_linear" x1="130" y1="0" x2="130" y2="170" gradientUnits="userSpaceOnUse">
<stop stop-color="#FF2F01"/>
<stop offset="1" stop-color="#FF055F"/>
</linearGradient>
</defs>
</svg>
