<svg width="260" height="170" viewBox="0 0 260 170" fill="none" xmlns="http://www.w3.org/2000/svg">
<rect width="260" height="170" rx="16" fill="url(#paint0_linear)"/>
<path d="M21.872 82.424C22.96 81.56 23.456 81.16 23.36 81.224C26.496 78.632 28.96 76.504 30.752 74.84C32.576 73.176 34.112 71.432 35.36 69.608C36.608 67.784 37.232 66.008 37.232 64.28C37.232 62.968 36.928 61.944 36.32 61.208C35.712 60.472 34.8 60.104 33.584 60.104C32.368 60.104 31.408 60.568 30.704 61.496C30.032 62.392 29.696 63.672 29.696 65.336H21.776C21.84 62.616 22.416 60.344 23.504 58.52C24.624 56.696 26.08 55.352 27.872 54.488C29.696 53.624 31.712 53.192 33.92 53.192C37.728 53.192 40.592 54.168 42.512 56.12C44.464 58.072 45.44 60.616 45.44 63.752C45.44 67.176 44.272 70.36 41.936 73.304C39.6 76.216 36.624 79.064 33.008 81.848H45.968V88.52H21.872V82.424ZM49.5819 71C49.5819 65.496 50.6379 61.16 52.7499 57.992C54.8939 54.824 58.3339 53.24 63.0699 53.24C67.8059 53.24 71.2299 54.824 73.3419 57.992C75.4859 61.16 76.5579 65.496 76.5579 71C76.5579 76.568 75.4859 80.936 73.3419 84.104C71.2299 87.272 67.8059 88.856 63.0699 88.856C58.3339 88.856 54.8939 87.272 52.7499 84.104C50.6379 80.936 49.5819 76.568 49.5819 71ZM68.4939 71C68.4939 67.768 68.1419 65.288 67.4379 63.56C66.7339 61.8 65.2779 60.92 63.0699 60.92C60.8619 60.92 59.4059 61.8 58.7019 63.56C57.9979 65.288 57.6459 67.768 57.6459 71C57.6459 73.176 57.7739 74.984 58.0299 76.424C58.2859 77.832 58.7979 78.984 59.5659 79.88C60.3659 80.744 61.5339 81.176 63.0699 81.176C64.6059 81.176 65.7579 80.744 66.5259 79.88C67.3259 78.984 67.8539 77.832 68.1099 76.424C68.3659 74.984 68.4939 73.176 68.4939 71ZM80.0304 61.592V53.96H93.3264V89H84.7824V61.592H80.0304ZM121.309 60.104L109.261 89H100.861L113.053 61.016H98.1253V54.008H121.309V60.104Z" fill="white"/>
<path d="M22.652 121.032C22.884 121.032 23.116 121.016 23.348 120.984C23.58 120.944 23.788 120.88 23.972 120.792C24.156 120.696 24.304 120.572 24.416 120.42C24.528 120.26 24.584 120.06 24.584 119.82C24.584 119.508 24.452 119.26 24.188 119.076C23.932 118.892 23.576 118.8 23.12 118.8C22.68 118.8 22.288 118.852 21.944 118.956C21.608 119.052 21.324 119.168 21.092 119.304L20.6 118.092C20.856 117.932 21.204 117.796 21.644 117.684C22.092 117.564 22.588 117.504 23.132 117.504C23.564 117.504 23.964 117.552 24.332 117.648C24.7 117.736 25.016 117.876 25.28 118.068C25.544 118.26 25.752 118.5 25.904 118.788C26.056 119.076 26.132 119.412 26.132 119.796C26.132 120.148 26.032 120.484 25.832 120.804C25.632 121.116 25.328 121.36 24.92 121.536C25.136 121.616 25.34 121.716 25.532 121.836C25.724 121.956 25.892 122.104 26.036 122.28C26.18 122.456 26.292 122.66 26.372 122.892C26.46 123.116 26.504 123.372 26.504 123.66C26.504 124.108 26.424 124.492 26.264 124.812C26.104 125.124 25.876 125.384 25.58 125.592C25.284 125.792 24.92 125.94 24.488 126.036C24.064 126.132 23.588 126.18 23.06 126.18C22.764 126.18 22.48 126.16 22.208 126.12C21.936 126.08 21.68 126.028 21.44 125.964C21.2 125.9 20.984 125.832 20.792 125.76C20.6 125.68 20.44 125.608 20.312 125.544L20.756 124.332C20.86 124.38 20.988 124.436 21.14 124.5C21.292 124.556 21.464 124.612 21.656 124.668C21.848 124.724 22.056 124.772 22.28 124.812C22.504 124.852 22.732 124.872 22.964 124.872C23.588 124.872 24.068 124.78 24.404 124.596C24.748 124.404 24.92 124.076 24.92 123.612C24.92 123.34 24.86 123.116 24.74 122.94C24.628 122.764 24.468 122.628 24.26 122.532C24.06 122.436 23.82 122.372 23.54 122.34C23.26 122.3 22.96 122.28 22.64 122.28H21.704V121.032H22.652ZM33.5941 126C33.4821 125.672 33.3661 125.348 33.2461 125.028C33.1261 124.708 33.0101 124.38 32.8981 124.044H29.3941C29.2821 124.38 29.1661 124.712 29.0461 125.04C28.9341 125.36 28.8221 125.68 28.7101 126H27.1381C27.4501 125.112 27.7461 124.292 28.0261 123.54C28.3061 122.788 28.5781 122.076 28.8421 121.404C29.1141 120.732 29.3821 120.092 29.6461 119.484C29.9101 118.876 30.1821 118.276 30.4621 117.684H31.8901C32.1701 118.276 32.4421 118.876 32.7061 119.484C32.9701 120.092 33.2341 120.732 33.4981 121.404C33.7701 122.076 34.0461 122.788 34.3261 123.54C34.6141 124.292 34.9141 125.112 35.2261 126H33.5941ZM31.1461 119.292C30.9621 119.716 30.7501 120.232 30.5101 120.84C30.2781 121.448 30.0341 122.108 29.7781 122.82H32.5141C32.2581 122.108 32.0101 121.444 31.7701 120.828C31.5301 120.212 31.3221 119.7 31.1461 119.292ZM42.8533 117.684V126H41.3412V118.98H37.7893V126H36.2773V117.684H42.8533ZM48.9117 123.516C48.7117 123.964 48.5037 124.356 48.2877 124.692C48.0797 125.02 47.8477 125.292 47.5917 125.508C47.3437 125.724 47.0637 125.884 46.7517 125.988C46.4477 126.092 46.1037 126.144 45.7197 126.144C45.4877 126.144 45.2437 126.12 44.9877 126.072C44.7397 126.024 44.5357 125.964 44.3757 125.892L44.6517 124.644C44.8037 124.708 44.9637 124.76 45.1317 124.8C45.2997 124.832 45.4717 124.848 45.6477 124.848C46.0157 124.848 46.3197 124.764 46.5597 124.596C46.8077 124.428 47.0357 124.152 47.2437 123.768C46.9077 123.224 46.5837 122.676 46.2717 122.124C45.9677 121.572 45.6837 121.036 45.4197 120.516C45.1557 119.988 44.9117 119.484 44.6877 119.004C44.4717 118.524 44.2757 118.084 44.0997 117.684H45.7917C45.9197 118.012 46.0637 118.364 46.2237 118.74C46.3917 119.116 46.5677 119.504 46.7517 119.904C46.9437 120.304 47.1437 120.712 47.3517 121.128C47.5597 121.544 47.7677 121.96 47.9757 122.376C48.2637 121.664 48.5397 120.904 48.8037 120.096C49.0677 119.288 49.3157 118.484 49.5477 117.684H51.1797C50.9877 118.276 50.7957 118.836 50.6037 119.364C50.4117 119.884 50.2197 120.384 50.0277 120.864C49.8437 121.336 49.6557 121.792 49.4637 122.232C49.2797 122.664 49.0957 123.092 48.9117 123.516ZM55.7584 126.18C55.1344 126.18 54.5744 126.084 54.0784 125.892C53.5824 125.7 53.1624 125.42 52.8184 125.052C52.4744 124.676 52.2104 124.22 52.0264 123.684C51.8424 123.148 51.7504 122.532 51.7504 121.836C51.7504 121.14 51.8544 120.524 52.0624 119.988C52.2784 119.452 52.5704 119 52.9384 118.632C53.3064 118.256 53.7384 117.972 54.2344 117.78C54.7304 117.588 55.2624 117.492 55.8304 117.492C56.1744 117.492 56.4864 117.52 56.7664 117.576C57.0464 117.624 57.2904 117.68 57.4984 117.744C57.7064 117.808 57.8784 117.876 58.0144 117.948C58.1504 118.02 58.2464 118.072 58.3024 118.104L57.8584 119.34C57.6664 119.22 57.3904 119.108 57.0304 119.004C56.6784 118.892 56.2944 118.836 55.8784 118.836C55.5184 118.836 55.1824 118.9 54.8704 119.028C54.5584 119.148 54.2864 119.332 54.0544 119.58C53.8304 119.828 53.6544 120.14 53.5264 120.516C53.3984 120.892 53.3344 121.328 53.3344 121.824C53.3344 122.264 53.3824 122.668 53.4784 123.036C53.5824 123.404 53.7384 123.724 53.9464 123.996C54.1544 124.26 54.4184 124.468 54.7384 124.62C55.0584 124.764 55.4424 124.836 55.8904 124.836C56.4264 124.836 56.8624 124.784 57.1984 124.68C57.5344 124.568 57.7944 124.464 57.9784 124.368L58.3864 125.604C58.2904 125.668 58.1584 125.732 57.9904 125.796C57.8304 125.86 57.6384 125.924 57.4144 125.988C57.1904 126.044 56.9384 126.088 56.6584 126.12C56.3784 126.16 56.0784 126.18 55.7584 126.18ZM65.6865 117.684V118.992H63.1305V126H61.6065V118.992H59.0505V117.684H65.6865ZM66.8398 126V117.684H68.3398V123.204C68.6118 122.772 68.9198 122.308 69.2638 121.812C69.6158 121.308 69.9758 120.808 70.3438 120.312C70.7198 119.816 71.0918 119.34 71.4598 118.884C71.8278 118.42 72.1718 118.02 72.4918 117.684H73.7278V126H72.2398V120.048C71.9038 120.448 71.5478 120.9 71.1718 121.404C70.8038 121.9 70.4398 122.416 70.0798 122.952C69.7198 123.48 69.3718 124.008 69.0358 124.536C68.6998 125.056 68.3958 125.544 68.1238 126H66.8398ZM78.8906 118.98C78.8666 119.524 78.8386 120.08 78.8066 120.648C78.7746 121.208 78.7146 121.752 78.6266 122.28C78.5466 122.8 78.4266 123.292 78.2666 123.756C78.1066 124.22 77.8866 124.628 77.6066 124.98C77.3266 125.324 76.9746 125.6 76.5506 125.808C76.1346 126.016 75.6226 126.128 75.0146 126.144L74.8466 124.824C75.1346 124.792 75.3866 124.736 75.6026 124.656C75.8186 124.576 76.0066 124.472 76.1666 124.344C76.3266 124.208 76.4666 124.044 76.5866 123.852C76.7066 123.652 76.8106 123.42 76.8986 123.156C77.1146 122.532 77.2586 121.752 77.3306 120.816C77.4026 119.88 77.4386 118.836 77.4386 117.684H82.6346V126H81.1106V118.98H78.8906ZM84.6288 126V117.684H86.1288V123.204C86.4008 122.772 86.7088 122.308 87.0528 121.812C87.4048 121.308 87.7648 120.808 88.1328 120.312C88.5088 119.816 88.8808 119.34 89.2488 118.884C89.6168 118.42 89.9608 118.02 90.2808 117.684H91.5168V126H90.0288V120.048C89.6928 120.448 89.3368 120.9 88.9608 121.404C88.5928 121.9 88.2288 122.416 87.8688 122.952C87.5088 123.48 87.1608 124.008 86.8248 124.536C86.4888 125.056 86.1848 125.544 85.9128 126H84.6288ZM97.7884 118.968V120.72H98.6044C99.2044 120.72 99.7404 120.768 100.212 120.864C100.684 120.96 101.084 121.116 101.412 121.332C101.74 121.54 101.988 121.816 102.156 122.16C102.332 122.496 102.42 122.908 102.42 123.396C102.42 124.3 102.092 124.976 101.436 125.424C100.788 125.864 99.8604 126.084 98.6524 126.084C98.3164 126.084 97.9364 126.064 97.5124 126.024C97.0884 125.992 96.6884 125.932 96.3124 125.844V117.684H101.64V118.968H97.7884ZM98.3164 124.776C98.4044 124.776 98.5044 124.776 98.6164 124.776C98.7284 124.776 98.8524 124.772 98.9884 124.764C99.2364 124.756 99.4724 124.728 99.6964 124.68C99.9284 124.632 100.128 124.556 100.296 124.452C100.472 124.348 100.608 124.212 100.704 124.044C100.808 123.876 100.86 123.664 100.86 123.408C100.86 123.12 100.808 122.884 100.704 122.7C100.6 122.516 100.448 122.372 100.248 122.268C100.048 122.156 99.8044 122.08 99.5164 122.04C99.2364 121.992 98.9164 121.968 98.5564 121.968H97.7884V124.752C97.8604 124.76 97.9364 124.768 98.0164 124.776C98.1044 124.776 98.2044 124.776 98.3164 124.776ZM103.859 126V117.684H109.199V118.968H105.371V121.02H108.779V122.28H105.371V124.716H109.487V126H103.859ZM116.687 117.684V118.992H114.131V126H112.607V118.992H110.051V117.684H116.687ZM122.68 126C122.568 125.672 122.452 125.348 122.332 125.028C122.212 124.708 122.096 124.38 121.984 124.044H118.48C118.368 124.38 118.252 124.712 118.132 125.04C118.02 125.36 117.908 125.68 117.796 126H116.224C116.536 125.112 116.832 124.292 117.112 123.54C117.392 122.788 117.664 122.076 117.928 121.404C118.2 120.732 118.468 120.092 118.732 119.484C118.996 118.876 119.268 118.276 119.548 117.684H120.976C121.256 118.276 121.528 118.876 121.792 119.484C122.056 120.092 122.32 120.732 122.584 121.404C122.856 122.076 123.132 122.788 123.412 123.54C123.7 124.292 124 125.112 124.312 126H122.68ZM120.232 119.292C120.048 119.716 119.836 120.232 119.596 120.84C119.364 121.448 119.12 122.108 118.864 122.82H121.6C121.344 122.108 121.096 121.444 120.856 120.828C120.616 120.212 120.408 119.7 120.232 119.292ZM124.643 121.908H127.871V123.24H124.643V121.908ZM131.656 126.096C131.216 126.096 130.772 126.08 130.324 126.048C129.876 126.024 129.484 125.968 129.148 125.88V117.804C129.324 117.772 129.512 117.744 129.712 117.72C129.912 117.688 130.116 117.664 130.324 117.648C130.532 117.632 130.736 117.62 130.936 117.612C131.144 117.604 131.34 117.6 131.524 117.6C132.028 117.6 132.496 117.64 132.928 117.72C133.36 117.792 133.732 117.916 134.044 118.092C134.364 118.268 134.612 118.5 134.788 118.788C134.964 119.076 135.052 119.432 135.052 119.856C135.052 120.248 134.956 120.584 134.764 120.864C134.58 121.144 134.32 121.368 133.984 121.536C134.488 121.704 134.86 121.952 135.1 122.28C135.34 122.608 135.46 123.024 135.46 123.528C135.46 124.384 135.148 125.028 134.524 125.46C133.9 125.884 132.944 126.096 131.656 126.096ZM130.636 122.256V124.788C130.804 124.804 130.984 124.816 131.176 124.824C131.368 124.832 131.544 124.836 131.704 124.836C132.016 124.836 132.304 124.816 132.568 124.776C132.84 124.736 133.072 124.668 133.264 124.572C133.464 124.468 133.62 124.332 133.732 124.164C133.852 123.996 133.912 123.78 133.912 123.516C133.912 123.044 133.74 122.716 133.396 122.532C133.052 122.348 132.576 122.256 131.968 122.256H130.636ZM130.636 121.068H131.704C132.28 121.068 132.732 120.988 133.06 120.828C133.388 120.66 133.552 120.364 133.552 119.94C133.552 119.54 133.38 119.256 133.036 119.088C132.7 118.92 132.26 118.836 131.716 118.836C131.484 118.836 131.276 118.84 131.092 118.848C130.916 118.856 130.764 118.868 130.636 118.884V121.068ZM137.035 126V117.684H142.375V118.968H138.547V121.02H141.955V122.28H138.547V124.716H142.663V126H137.035ZM146.418 117.6C147.626 117.6 148.55 117.82 149.19 118.26C149.838 118.7 150.162 119.388 150.162 120.324C150.162 120.812 150.074 121.232 149.898 121.584C149.73 121.928 149.482 122.212 149.154 122.436C148.826 122.652 148.426 122.812 147.954 122.916C147.482 123.02 146.942 123.072 146.334 123.072H145.578V126H144.066V117.804C144.418 117.724 144.806 117.672 145.23 117.648C145.662 117.616 146.058 117.6 146.418 117.6ZM146.526 118.908C146.142 118.908 145.826 118.92 145.578 118.944V121.776H146.31C147.038 121.776 147.598 121.676 147.99 121.476C148.382 121.268 148.578 120.88 148.578 120.312C148.578 120.04 148.526 119.812 148.422 119.628C148.318 119.444 148.174 119.3 147.99 119.196C147.806 119.092 147.586 119.02 147.33 118.98C147.082 118.932 146.814 118.908 146.526 118.908ZM155.239 126.18C154.615 126.18 154.055 126.084 153.559 125.892C153.063 125.7 152.643 125.42 152.299 125.052C151.955 124.676 151.691 124.22 151.507 123.684C151.323 123.148 151.231 122.532 151.231 121.836C151.231 121.14 151.335 120.524 151.543 119.988C151.759 119.452 152.051 119 152.419 118.632C152.787 118.256 153.219 117.972 153.715 117.78C154.211 117.588 154.743 117.492 155.311 117.492C155.655 117.492 155.967 117.52 156.247 117.576C156.527 117.624 156.771 117.68 156.979 117.744C157.187 117.808 157.359 117.876 157.495 117.948C157.631 118.02 157.727 118.072 157.783 118.104L157.339 119.34C157.147 119.22 156.871 119.108 156.511 119.004C156.159 118.892 155.775 118.836 155.359 118.836C154.999 118.836 154.663 118.9 154.351 119.028C154.039 119.148 153.767 119.332 153.535 119.58C153.311 119.828 153.135 120.14 153.007 120.516C152.879 120.892 152.815 121.328 152.815 121.824C152.815 122.264 152.863 122.668 152.959 123.036C153.063 123.404 153.219 123.724 153.427 123.996C153.635 124.26 153.899 124.468 154.219 124.62C154.539 124.764 154.923 124.836 155.371 124.836C155.907 124.836 156.343 124.784 156.679 124.68C157.015 124.568 157.275 124.464 157.459 124.368L157.867 125.604C157.771 125.668 157.639 125.732 157.471 125.796C157.311 125.86 157.119 125.924 156.895 125.988C156.671 126.044 156.419 126.088 156.139 126.12C155.859 126.16 155.559 126.18 155.239 126.18ZM159.195 126V117.684H160.695V123.204C160.967 122.772 161.275 122.308 161.619 121.812C161.971 121.308 162.331 120.808 162.699 120.312C163.075 119.816 163.447 119.34 163.815 118.884C164.183 118.42 164.527 118.02 164.847 117.684H166.083V126H164.595V120.048C164.259 120.448 163.903 120.9 163.527 121.404C163.159 121.9 162.795 122.416 162.435 122.952C162.075 123.48 161.727 124.008 161.391 124.536C161.055 125.056 160.751 125.544 160.479 126H159.195ZM175.182 117.492C175.71 117.492 176.21 117.584 176.682 117.768C177.154 117.952 177.57 118.228 177.93 118.596C178.29 118.964 178.574 119.42 178.782 119.964C178.99 120.5 179.094 121.124 179.094 121.836C179.094 122.548 178.99 123.176 178.782 123.72C178.574 124.256 178.29 124.708 177.93 125.076C177.578 125.436 177.166 125.708 176.694 125.892C176.222 126.076 175.718 126.168 175.182 126.168C174.678 126.168 174.198 126.088 173.742 125.928C173.294 125.76 172.894 125.516 172.542 125.196C172.198 124.868 171.914 124.464 171.69 123.984C171.466 123.504 171.33 122.944 171.282 122.304H169.59V126H168.078V117.684H169.59V121.02H171.318C171.398 120.444 171.554 119.936 171.786 119.496C172.026 119.056 172.318 118.688 172.662 118.392C173.006 118.096 173.394 117.872 173.826 117.72C174.258 117.568 174.71 117.492 175.182 117.492ZM175.182 124.848C175.926 124.848 176.502 124.58 176.91 124.044C177.318 123.5 177.522 122.764 177.522 121.836C177.522 121.38 177.47 120.968 177.366 120.6C177.262 120.224 177.11 119.904 176.91 119.64C176.71 119.376 176.462 119.176 176.166 119.04C175.878 118.896 175.55 118.824 175.182 118.824C174.814 118.824 174.482 118.896 174.186 119.04C173.898 119.176 173.654 119.376 173.454 119.64C173.254 119.904 173.098 120.224 172.986 120.6C172.882 120.968 172.83 121.38 172.83 121.836C172.83 122.764 173.034 123.5 173.442 124.044C173.858 124.58 174.438 124.848 175.182 124.848Z" fill="white"/>
<defs>
<linearGradient id="paint0_linear" x1="130" y1="0" x2="130" y2="170" gradientUnits="userSpaceOnUse">
<stop stop-color="#FF2F01"/>
<stop offset="1" stop-color="#FF055F"/>
</linearGradient>
</defs>
</svg>
