<svg width="260" height="170" viewBox="0 0 260 170" fill="none" xmlns="http://www.w3.org/2000/svg">
<rect width="260" height="170" rx="16" fill="url(#paint0_linear)"/>
<path d="M21.632 74.472C31.808 67.208 36.896 61.432 36.896 57.144C36.896 54.52 35.76 53.208 33.488 53.208C32.208 53.208 31.264 53.656 30.656 54.552C30.08 55.448 29.76 56.84 29.696 58.728H21.68C21.872 54.6 23.12 51.496 25.424 49.416C27.728 47.336 30.64 46.296 34.16 46.296C37.84 46.296 40.608 47.224 42.464 49.08C44.352 50.936 45.296 53.352 45.296 56.328C45.296 59.624 44.032 62.856 41.504 66.024C38.976 69.16 35.952 71.816 32.432 73.992H45.824V80.616H21.632V74.472ZM49.2035 63.672C49.2035 68.984 50.2755 73.192 52.4195 76.296C54.5635 79.4 57.9875 80.952 62.6915 80.952C67.3635 80.952 70.7715 79.4 72.9155 76.296C75.0915 73.192 76.1795 68.984 76.1795 63.672C76.1795 58.392 75.0915 54.216 72.9155 51.144C70.7715 48.04 67.3635 46.488 62.6915 46.488C57.9875 46.488 54.5635 48.04 52.4195 51.144C50.2755 54.216 49.2035 58.392 49.2035 63.672ZM68.0195 63.672C68.0195 66.712 67.6515 69.064 66.9155 70.728C66.2115 72.36 64.8035 73.176 62.6915 73.176C60.5475 73.176 59.1075 72.36 58.3715 70.728C57.6355 69.064 57.2675 66.712 57.2675 63.672C57.2675 60.664 57.6355 58.344 58.3715 56.712C59.1075 55.08 60.5475 54.264 62.6915 54.264C64.8035 54.264 66.2115 55.08 66.9155 56.712C67.6515 58.312 68.0195 60.632 68.0195 63.672ZM79.7101 74.472C89.8861 67.208 94.9741 61.432 94.9741 57.144C94.9741 54.52 93.8381 53.208 91.5661 53.208C90.2861 53.208 89.3421 53.656 88.7341 54.552C88.1581 55.448 87.8381 56.84 87.7741 58.728H79.7581C79.9501 54.6 81.1981 51.496 83.5021 49.416C85.8061 47.336 88.7181 46.296 92.2381 46.296C95.9181 46.296 98.6861 47.224 100.542 49.08C102.43 50.936 103.374 53.352 103.374 56.328C103.374 59.624 102.11 62.856 99.5821 66.024C97.0541 69.16 94.0301 71.816 90.5101 73.992H103.902V80.616H79.7101V74.472ZM107.282 63.672C107.282 68.984 108.354 73.192 110.498 76.296C112.642 79.4 116.066 80.952 120.77 80.952C125.442 80.952 128.85 79.4 130.994 76.296C133.17 73.192 134.258 68.984 134.258 63.672C134.258 58.392 133.17 54.216 130.994 51.144C128.85 48.04 125.442 46.488 120.77 46.488C116.066 46.488 112.642 48.04 110.498 51.144C108.354 54.216 107.282 58.392 107.282 63.672ZM126.098 63.672C126.098 66.712 125.73 69.064 124.994 70.728C124.29 72.36 122.882 73.176 120.77 73.176C118.626 73.176 117.186 72.36 116.45 70.728C115.714 69.064 115.346 66.712 115.346 63.672C115.346 60.664 115.714 58.344 116.45 56.712C117.186 55.08 118.626 54.264 120.77 54.264C122.882 54.264 124.29 55.08 124.994 56.712C125.73 58.312 126.098 60.632 126.098 63.672Z" fill="white"/>
<path d="M24.692 118.18C24.068 118.18 23.508 118.084 23.012 117.892C22.516 117.7 22.096 117.42 21.752 117.052C21.408 116.676 21.144 116.22 20.96 115.684C20.776 115.148 20.684 114.532 20.684 113.836C20.684 113.14 20.788 112.524 20.996 111.988C21.212 111.452 21.504 111 21.872 110.632C22.24 110.256 22.672 109.972 23.168 109.78C23.664 109.588 24.196 109.492 24.764 109.492C25.108 109.492 25.42 109.52 25.7 109.576C25.98 109.624 26.224 109.68 26.432 109.744C26.64 109.808 26.812 109.876 26.948 109.948C27.084 110.02 27.18 110.072 27.236 110.104L26.792 111.34C26.6 111.22 26.324 111.108 25.964 111.004C25.612 110.892 25.228 110.836 24.812 110.836C24.452 110.836 24.116 110.9 23.804 111.028C23.492 111.148 23.22 111.332 22.988 111.58C22.764 111.828 22.588 112.14 22.46 112.516C22.332 112.892 22.268 113.328 22.268 113.824C22.268 114.264 22.316 114.668 22.412 115.036C22.516 115.404 22.672 115.724 22.88 115.996C23.088 116.26 23.352 116.468 23.672 116.62C23.992 116.764 24.376 116.836 24.824 116.836C25.36 116.836 25.796 116.784 26.132 116.68C26.468 116.568 26.728 116.464 26.912 116.368L27.32 117.604C27.224 117.668 27.092 117.732 26.924 117.796C26.764 117.86 26.572 117.924 26.348 117.988C26.124 118.044 25.872 118.088 25.592 118.12C25.312 118.16 25.012 118.18 24.692 118.18ZM32.0038 110.98C31.9798 111.524 31.9518 112.08 31.9198 112.648C31.8878 113.208 31.8278 113.752 31.7398 114.28C31.6598 114.8 31.5398 115.292 31.3798 115.756C31.2198 116.22 30.9998 116.628 30.7198 116.98C30.4398 117.324 30.0878 117.6 29.6638 117.808C29.2478 118.016 28.7358 118.128 28.1278 118.144L27.9598 116.824C28.2478 116.792 28.4998 116.736 28.7158 116.656C28.9318 116.576 29.1198 116.472 29.2798 116.344C29.4398 116.208 29.5798 116.044 29.6998 115.852C29.8198 115.652 29.9238 115.42 30.0118 115.156C30.2278 114.532 30.3718 113.752 30.4438 112.816C30.5158 111.88 30.5518 110.836 30.5518 109.684H35.7478V118H34.2238V110.98H32.0038ZM37.7421 118V109.684H43.0821V110.968H39.2541V113.02H42.6621V114.28H39.2541V116.716H43.3701V118H37.7421ZM43.9333 116.716H44.9653C45.3253 116.22 45.6013 115.7 45.7933 115.156C45.9933 114.604 46.1373 114.036 46.2253 113.452C46.3213 112.86 46.3773 112.252 46.3933 111.628C46.4093 110.996 46.4173 110.348 46.4173 109.684H51.5173V116.716H52.7533V120.22H51.3013V118H45.3853V120.22H43.9333V116.716ZM47.8693 110.98C47.8453 111.46 47.8173 111.952 47.7853 112.456C47.7533 112.96 47.6933 113.46 47.6053 113.956C47.5253 114.444 47.4093 114.924 47.2573 115.396C47.1053 115.86 46.8973 116.3 46.6333 116.716H50.0293V110.98H47.8693ZM53.9491 118V109.684H55.4491V115.204C55.7211 114.772 56.0291 114.308 56.3731 113.812C56.7251 113.308 57.0851 112.808 57.4531 112.312C57.8291 111.816 58.2011 111.34 58.5691 110.884C58.9371 110.42 59.2811 110.02 59.6011 109.684H60.8371V118H59.3491V112.048C59.0131 112.448 58.6571 112.9 58.2811 113.404C57.9131 113.9 57.5491 114.416 57.1891 114.952C56.8291 115.48 56.4811 116.008 56.1451 116.536C55.8091 117.056 55.5051 117.544 55.2331 118H53.9491ZM67.2887 113.032C67.5207 113.032 67.7527 113.016 67.9847 112.984C68.2167 112.944 68.4247 112.88 68.6087 112.792C68.7927 112.696 68.9407 112.572 69.0527 112.42C69.1647 112.26 69.2207 112.06 69.2207 111.82C69.2207 111.508 69.0887 111.26 68.8247 111.076C68.5687 110.892 68.2127 110.8 67.7567 110.8C67.3167 110.8 66.9247 110.852 66.5807 110.956C66.2447 111.052 65.9607 111.168 65.7287 111.304L65.2367 110.092C65.4927 109.932 65.8407 109.796 66.2807 109.684C66.7287 109.564 67.2247 109.504 67.7687 109.504C68.2007 109.504 68.6007 109.552 68.9687 109.648C69.3367 109.736 69.6527 109.876 69.9167 110.068C70.1807 110.26 70.3887 110.5 70.5407 110.788C70.6927 111.076 70.7687 111.412 70.7687 111.796C70.7687 112.148 70.6687 112.484 70.4687 112.804C70.2687 113.116 69.9647 113.36 69.5567 113.536C69.7727 113.616 69.9767 113.716 70.1687 113.836C70.3607 113.956 70.5287 114.104 70.6727 114.28C70.8167 114.456 70.9287 114.66 71.0087 114.892C71.0967 115.116 71.1407 115.372 71.1407 115.66C71.1407 116.108 71.0607 116.492 70.9007 116.812C70.7407 117.124 70.5127 117.384 70.2167 117.592C69.9207 117.792 69.5567 117.94 69.1247 118.036C68.7007 118.132 68.2247 118.18 67.6967 118.18C67.4007 118.18 67.1167 118.16 66.8447 118.12C66.5727 118.08 66.3167 118.028 66.0767 117.964C65.8367 117.9 65.6207 117.832 65.4287 117.76C65.2367 117.68 65.0767 117.608 64.9487 117.544L65.3927 116.332C65.4967 116.38 65.6247 116.436 65.7767 116.5C65.9287 116.556 66.1007 116.612 66.2927 116.668C66.4847 116.724 66.6927 116.772 66.9167 116.812C67.1407 116.852 67.3687 116.872 67.6007 116.872C68.2247 116.872 68.7047 116.78 69.0407 116.596C69.3847 116.404 69.5567 116.076 69.5567 115.612C69.5567 115.34 69.4967 115.116 69.3767 114.94C69.2647 114.764 69.1047 114.628 68.8967 114.532C68.6967 114.436 68.4567 114.372 68.1767 114.34C67.8967 114.3 67.5967 114.28 67.2767 114.28H66.3407V113.032H67.2887ZM78.2308 118C78.1188 117.672 78.0028 117.348 77.8828 117.028C77.7628 116.708 77.6468 116.38 77.5348 116.044H74.0308C73.9188 116.38 73.8028 116.712 73.6828 117.04C73.5708 117.36 73.4588 117.68 73.3468 118H71.7748C72.0868 117.112 72.3828 116.292 72.6628 115.54C72.9428 114.788 73.2148 114.076 73.4788 113.404C73.7508 112.732 74.0188 112.092 74.2828 111.484C74.5468 110.876 74.8188 110.276 75.0988 109.684H76.5268C76.8068 110.276 77.0788 110.876 77.3428 111.484C77.6068 112.092 77.8708 112.732 78.1348 113.404C78.4068 114.076 78.6828 114.788 78.9628 115.54C79.2508 116.292 79.5508 117.112 79.8628 118H78.2308ZM75.7828 111.292C75.5988 111.716 75.3868 112.232 75.1468 112.84C74.9148 113.448 74.6708 114.108 74.4148 114.82H77.1508C76.8948 114.108 76.6468 113.444 76.4068 112.828C76.1668 112.212 75.9588 111.7 75.7828 111.292ZM88.8388 109.684H90.3508V118H88.8388V114.316H85.2268V118H83.7148V109.684H85.2268V113.008H88.8388V109.684ZM97.8598 118C97.7478 117.672 97.6318 117.348 97.5117 117.028C97.3918 116.708 97.2758 116.38 97.1638 116.044H93.6598C93.5478 116.38 93.4318 116.712 93.3118 117.04C93.1998 117.36 93.0878 117.68 92.9758 118H91.4038C91.7158 117.112 92.0118 116.292 92.2918 115.54C92.5718 114.788 92.8438 114.076 93.1077 113.404C93.3798 112.732 93.6478 112.092 93.9118 111.484C94.1758 110.876 94.4478 110.276 94.7278 109.684H96.1558C96.4358 110.276 96.7078 110.876 96.9718 111.484C97.2358 112.092 97.4998 112.732 97.7638 113.404C98.0358 114.076 98.3118 114.788 98.5918 115.54C98.8798 116.292 99.1798 117.112 99.4918 118H97.8598ZM95.4118 111.292C95.2278 111.716 95.0158 112.232 94.7758 112.84C94.5438 113.448 94.2998 114.108 94.0438 114.82H96.7798C96.5238 114.108 96.2758 113.444 96.0358 112.828C95.7958 112.212 95.5878 111.7 95.4118 111.292ZM102.355 109.684C102.531 109.988 102.727 110.36 102.943 110.8C103.159 111.24 103.379 111.704 103.603 112.192C103.827 112.672 104.047 113.164 104.263 113.668C104.487 114.164 104.691 114.624 104.875 115.048C105.059 114.624 105.259 114.164 105.475 113.668C105.691 113.164 105.911 112.672 106.135 112.192C106.359 111.704 106.579 111.24 106.795 110.8C107.011 110.36 107.207 109.988 107.383 109.684H108.751C108.823 110.292 108.891 110.94 108.955 111.628C109.019 112.308 109.075 113.008 109.123 113.728C109.179 114.44 109.227 115.16 109.267 115.888C109.315 116.608 109.355 117.312 109.387 118H107.899C107.867 117.032 107.827 116.036 107.779 115.012C107.739 113.988 107.675 112.996 107.587 112.036C107.499 112.22 107.395 112.44 107.275 112.696C107.155 112.952 107.027 113.232 106.891 113.536C106.755 113.832 106.615 114.14 106.471 114.46C106.335 114.78 106.199 115.092 106.063 115.396C105.935 115.692 105.815 115.972 105.703 116.236C105.591 116.492 105.495 116.712 105.415 116.896H104.287C104.207 116.712 104.111 116.488 103.999 116.224C103.887 115.96 103.763 115.68 103.627 115.384C103.499 115.08 103.363 114.768 103.219 114.448C103.083 114.128 102.947 113.82 102.811 113.524C102.675 113.228 102.547 112.952 102.427 112.696C102.307 112.432 102.203 112.212 102.115 112.036C102.027 112.996 101.959 113.988 101.911 115.012C101.871 116.036 101.835 117.032 101.803 118H100.315C100.347 117.312 100.383 116.6 100.423 115.864C100.471 115.128 100.519 114.4 100.567 113.68C100.623 112.952 100.683 112.248 100.747 111.568C100.811 110.888 100.879 110.26 100.951 109.684H102.355ZM111.148 118V109.684H112.648V115.204C112.92 114.772 113.228 114.308 113.572 113.812C113.924 113.308 114.284 112.808 114.652 112.312C115.028 111.816 115.4 111.34 115.768 110.884C116.136 110.42 116.48 110.02 116.8 109.684H118.036V118H116.548V112.048C116.212 112.448 115.856 112.9 115.48 113.404C115.112 113.9 114.748 114.416 114.388 114.952C114.028 115.48 113.68 116.008 113.344 116.536C113.008 117.056 112.704 117.544 112.432 118H111.148ZM124.008 112.108C124.008 112.772 124.152 113.24 124.44 113.512C124.728 113.776 125.188 113.908 125.82 113.908C126.076 113.908 126.332 113.892 126.588 113.86C126.852 113.828 127.076 113.796 127.26 113.764V109.684H128.772V118H127.26V115.06C127.052 115.1 126.804 115.136 126.516 115.168C126.228 115.192 125.936 115.204 125.64 115.204C125.08 115.204 124.6 115.148 124.2 115.036C123.808 114.916 123.484 114.732 123.228 114.484C122.98 114.236 122.796 113.92 122.676 113.536C122.556 113.152 122.496 112.692 122.496 112.156V109.684H124.008V112.108ZM136.562 109.684V110.992H134.006V118H132.482V110.992H129.926V109.684H136.562ZM138.658 113.836C138.658 114.292 138.714 114.708 138.826 115.084C138.938 115.452 139.098 115.768 139.306 116.032C139.522 116.288 139.782 116.488 140.086 116.632C140.39 116.776 140.734 116.848 141.118 116.848C141.494 116.848 141.834 116.776 142.138 116.632C142.442 116.488 142.698 116.288 142.906 116.032C143.122 115.768 143.286 115.452 143.398 115.084C143.51 114.708 143.566 114.292 143.566 113.836C143.566 113.38 143.51 112.968 143.398 112.6C143.286 112.224 143.122 111.908 142.906 111.652C142.698 111.388 142.442 111.184 142.138 111.04C141.834 110.896 141.494 110.824 141.118 110.824C140.734 110.824 140.39 110.896 140.086 111.04C139.782 111.184 139.522 111.388 139.306 111.652C139.098 111.916 138.938 112.232 138.826 112.6C138.714 112.968 138.658 113.38 138.658 113.836ZM145.15 113.836C145.15 114.548 145.042 115.176 144.826 115.72C144.618 116.264 144.33 116.72 143.962 117.088C143.602 117.448 143.178 117.72 142.69 117.904C142.202 118.088 141.682 118.18 141.13 118.18C140.578 118.18 140.054 118.088 139.558 117.904C139.07 117.72 138.642 117.448 138.274 117.088C137.914 116.72 137.626 116.264 137.41 115.72C137.194 115.176 137.086 114.548 137.086 113.836C137.086 113.124 137.194 112.5 137.41 111.964C137.626 111.42 137.918 110.964 138.286 110.596C138.662 110.228 139.094 109.952 139.582 109.768C140.07 109.584 140.586 109.492 141.13 109.492C141.674 109.492 142.19 109.584 142.678 109.768C143.166 109.952 143.59 110.228 143.95 110.596C144.318 110.964 144.61 111.42 144.826 111.964C145.042 112.5 145.15 113.124 145.15 113.836ZM148.285 110.968V112.72H149.101C149.701 112.72 150.237 112.768 150.709 112.864C151.181 112.96 151.581 113.116 151.909 113.332C152.237 113.54 152.485 113.816 152.653 114.16C152.829 114.496 152.917 114.908 152.917 115.396C152.917 116.3 152.589 116.976 151.933 117.424C151.285 117.864 150.357 118.084 149.149 118.084C148.813 118.084 148.433 118.064 148.009 118.024C147.585 117.992 147.185 117.932 146.809 117.844V109.684H152.137V110.968H148.285ZM148.812 116.776C148.901 116.776 149.001 116.776 149.113 116.776C149.225 116.776 149.349 116.772 149.485 116.764C149.733 116.756 149.969 116.728 150.193 116.68C150.425 116.632 150.625 116.556 150.793 116.452C150.969 116.348 151.105 116.212 151.201 116.044C151.305 115.876 151.357 115.664 151.357 115.408C151.357 115.12 151.305 114.884 151.201 114.7C151.097 114.516 150.945 114.372 150.745 114.268C150.545 114.156 150.301 114.08 150.013 114.04C149.733 113.992 149.413 113.968 149.053 113.968H148.285V116.752C148.357 116.76 148.433 116.768 148.513 116.776C148.601 116.776 148.701 116.776 148.812 116.776ZM160.391 115.384C160.391 115.832 160.303 116.224 160.127 116.56C159.959 116.896 159.711 117.18 159.383 117.412C159.063 117.636 158.671 117.808 158.207 117.928C157.751 118.04 157.235 118.096 156.659 118.096C156.323 118.096 155.951 118.076 155.543 118.036C155.135 117.996 154.739 117.932 154.355 117.844V109.684H155.867V112.672C155.987 112.656 156.107 112.648 156.227 112.648C156.347 112.648 156.463 112.648 156.575 112.648C157.839 112.648 158.791 112.876 159.431 113.332C160.071 113.78 160.391 114.464 160.391 115.384ZM161.543 109.684H163.055V118H161.543V109.684ZM156.503 113.944C156.415 113.944 156.311 113.944 156.191 113.944C156.079 113.944 155.971 113.952 155.867 113.968V116.776C155.979 116.792 156.099 116.8 156.227 116.8C156.363 116.8 156.543 116.8 156.767 116.8C157.039 116.8 157.299 116.78 157.547 116.74C157.803 116.692 158.023 116.616 158.207 116.512C158.391 116.4 158.539 116.256 158.651 116.08C158.763 115.896 158.819 115.664 158.819 115.384C158.819 115.104 158.763 114.872 158.651 114.688C158.547 114.504 158.395 114.356 158.195 114.244C157.995 114.132 157.751 114.056 157.463 114.016C157.183 113.968 156.863 113.944 156.503 113.944ZM171.912 115.516C171.712 115.964 171.504 116.356 171.288 116.692C171.08 117.02 170.848 117.292 170.592 117.508C170.344 117.724 170.064 117.884 169.752 117.988C169.448 118.092 169.104 118.144 168.72 118.144C168.488 118.144 168.244 118.12 167.988 118.072C167.74 118.024 167.536 117.964 167.376 117.892L167.652 116.644C167.804 116.708 167.964 116.76 168.132 116.8C168.3 116.832 168.472 116.848 168.648 116.848C169.016 116.848 169.32 116.764 169.56 116.596C169.808 116.428 170.036 116.152 170.244 115.768C169.908 115.224 169.584 114.676 169.272 114.124C168.968 113.572 168.684 113.036 168.42 112.516C168.156 111.988 167.912 111.484 167.688 111.004C167.472 110.524 167.276 110.084 167.1 109.684H168.792C168.92 110.012 169.064 110.364 169.224 110.74C169.392 111.116 169.568 111.504 169.752 111.904C169.944 112.304 170.144 112.712 170.352 113.128C170.56 113.544 170.768 113.96 170.976 114.376C171.264 113.664 171.54 112.904 171.804 112.096C172.068 111.288 172.316 110.484 172.548 109.684H174.18C173.988 110.276 173.796 110.836 173.604 111.364C173.412 111.884 173.22 112.384 173.028 112.864C172.844 113.336 172.656 113.792 172.464 114.232C172.28 114.664 172.096 115.092 171.912 115.516ZM176.894 113.032C177.126 113.032 177.358 113.016 177.59 112.984C177.822 112.944 178.03 112.88 178.214 112.792C178.398 112.696 178.546 112.572 178.658 112.42C178.77 112.26 178.826 112.06 178.826 111.82C178.826 111.508 178.694 111.26 178.43 111.076C178.174 110.892 177.818 110.8 177.362 110.8C176.922 110.8 176.53 110.852 176.186 110.956C175.85 111.052 175.566 111.168 175.334 111.304L174.842 110.092C175.098 109.932 175.446 109.796 175.886 109.684C176.334 109.564 176.83 109.504 177.374 109.504C177.806 109.504 178.206 109.552 178.574 109.648C178.942 109.736 179.258 109.876 179.522 110.068C179.786 110.26 179.994 110.5 180.146 110.788C180.298 111.076 180.374 111.412 180.374 111.796C180.374 112.148 180.274 112.484 180.074 112.804C179.874 113.116 179.57 113.36 179.162 113.536C179.378 113.616 179.582 113.716 179.774 113.836C179.966 113.956 180.134 114.104 180.278 114.28C180.422 114.456 180.534 114.66 180.614 114.892C180.702 115.116 180.746 115.372 180.746 115.66C180.746 116.108 180.666 116.492 180.506 116.812C180.346 117.124 180.118 117.384 179.822 117.592C179.526 117.792 179.162 117.94 178.73 118.036C178.306 118.132 177.83 118.18 177.302 118.18C177.006 118.18 176.722 118.16 176.45 118.12C176.178 118.08 175.922 118.028 175.682 117.964C175.442 117.9 175.226 117.832 175.034 117.76C174.842 117.68 174.682 117.608 174.554 117.544L174.998 116.332C175.102 116.38 175.23 116.436 175.382 116.5C175.534 116.556 175.706 116.612 175.898 116.668C176.09 116.724 176.298 116.772 176.522 116.812C176.746 116.852 176.974 116.872 177.206 116.872C177.83 116.872 178.31 116.78 178.646 116.596C178.99 116.404 179.162 116.076 179.162 115.612C179.162 115.34 179.102 115.116 178.982 114.94C178.87 114.764 178.71 114.628 178.502 114.532C178.302 114.436 178.062 114.372 177.782 114.34C177.502 114.3 177.202 114.28 176.882 114.28H175.946V113.032H176.894ZM187.44 109.684H188.952V118H187.44V114.316H183.828V118H182.316V109.684H183.828V113.008H187.44V109.684ZM196.461 118C196.349 117.672 196.233 117.348 196.113 117.028C195.993 116.708 195.877 116.38 195.765 116.044H192.261C192.149 116.38 192.033 116.712 191.913 117.04C191.801 117.36 191.689 117.68 191.577 118H190.005C190.317 117.112 190.613 116.292 190.893 115.54C191.173 114.788 191.445 114.076 191.709 113.404C191.981 112.732 192.249 112.092 192.513 111.484C192.777 110.876 193.049 110.276 193.329 109.684H194.757C195.037 110.276 195.309 110.876 195.573 111.484C195.837 112.092 196.101 112.732 196.365 113.404C196.637 114.076 196.913 114.788 197.193 115.54C197.481 116.292 197.781 117.112 198.093 118H196.461ZM194.013 111.292C193.829 111.716 193.617 112.232 193.377 112.84C193.145 113.448 192.901 114.108 192.645 114.82H195.381C195.125 114.108 194.877 113.444 194.637 112.828C194.397 112.212 194.189 111.7 194.013 111.292ZM204.261 109.684V110.992H201.705V118H200.181V110.992H197.625V109.684H204.261ZM211.57 115.384C211.57 116.272 211.234 116.948 210.562 117.412C209.898 117.868 208.962 118.096 207.754 118.096C207.418 118.096 207.038 118.076 206.614 118.036C206.198 117.996 205.798 117.932 205.414 117.844V109.684H206.926V112.672C207.062 112.656 207.19 112.648 207.31 112.648C207.43 112.648 207.554 112.648 207.682 112.648C210.274 112.648 211.57 113.56 211.57 115.384ZM207.574 113.944C207.478 113.944 207.374 113.944 207.262 113.944C207.15 113.944 207.038 113.952 206.926 113.968V116.776C207.038 116.784 207.166 116.792 207.31 116.8C207.462 116.8 207.642 116.8 207.85 116.8C208.13 116.8 208.398 116.78 208.654 116.74C208.918 116.692 209.146 116.616 209.338 116.512C209.538 116.4 209.698 116.256 209.818 116.08C209.938 115.896 209.998 115.664 209.998 115.384C209.998 115.104 209.938 114.872 209.818 114.688C209.706 114.504 209.542 114.356 209.326 114.244C209.118 114.132 208.866 114.056 208.57 114.016C208.274 113.968 207.942 113.944 207.574 113.944ZM214.424 116.404C214.44 116.54 214.448 116.64 214.448 116.704C214.448 116.768 214.448 116.832 214.448 116.896C214.448 117.392 214.368 117.904 214.208 118.432C214.056 118.96 213.84 119.46 213.56 119.932L212.42 119.62C212.612 119.156 212.74 118.7 212.804 118.252C212.876 117.812 212.912 117.424 212.912 117.088C212.912 116.992 212.908 116.872 212.9 116.728C212.9 116.584 212.896 116.476 212.888 116.404H214.424ZM22.172 128.108C22.172 128.772 22.316 129.24 22.604 129.512C22.892 129.776 23.352 129.908 23.984 129.908C24.24 129.908 24.496 129.892 24.752 129.86C25.016 129.828 25.24 129.796 25.424 129.764V125.684H26.936V134H25.424V131.06C25.216 131.1 24.968 131.136 24.68 131.168C24.392 131.192 24.1 131.204 23.804 131.204C23.244 131.204 22.764 131.148 22.364 131.036C21.972 130.916 21.648 130.732 21.392 130.484C21.144 130.236 20.96 129.92 20.84 129.536C20.72 129.152 20.66 128.692 20.66 128.156V125.684H22.172V128.108ZM34.7256 125.684V126.992H32.1696V134H30.6456V126.992H28.0896V125.684H34.7256ZM36.8218 129.836C36.8218 130.292 36.8778 130.708 36.9898 131.084C37.1018 131.452 37.2618 131.768 37.4698 132.032C37.6858 132.288 37.9458 132.488 38.2498 132.632C38.5538 132.776 38.8978 132.848 39.2818 132.848C39.6578 132.848 39.9978 132.776 40.3018 132.632C40.6058 132.488 40.8618 132.288 41.0698 132.032C41.2858 131.768 41.4498 131.452 41.5618 131.084C41.6738 130.708 41.7298 130.292 41.7298 129.836C41.7298 129.38 41.6738 128.968 41.5618 128.6C41.4498 128.224 41.2858 127.908 41.0698 127.652C40.8618 127.388 40.6058 127.184 40.3018 127.04C39.9978 126.896 39.6578 126.824 39.2818 126.824C38.8978 126.824 38.5538 126.896 38.2498 127.04C37.9458 127.184 37.6858 127.388 37.4698 127.652C37.2618 127.916 37.1018 128.232 36.9898 128.6C36.8778 128.968 36.8218 129.38 36.8218 129.836ZM43.3138 129.836C43.3138 130.548 43.2058 131.176 42.9898 131.72C42.7818 132.264 42.4938 132.72 42.1258 133.088C41.7658 133.448 41.3418 133.72 40.8538 133.904C40.3658 134.088 39.8458 134.18 39.2938 134.18C38.7418 134.18 38.2178 134.088 37.7218 133.904C37.2338 133.72 36.8058 133.448 36.4378 133.088C36.0778 132.72 35.7898 132.264 35.5738 131.72C35.3578 131.176 35.2498 130.548 35.2498 129.836C35.2498 129.124 35.3578 128.5 35.5738 127.964C35.7898 127.42 36.0818 126.964 36.4498 126.596C36.8258 126.228 37.2578 125.952 37.7458 125.768C38.2338 125.584 38.7498 125.492 39.2938 125.492C39.8378 125.492 40.3538 125.584 40.8418 125.768C41.3298 125.952 41.7538 126.228 42.1138 126.596C42.4818 126.964 42.7738 127.42 42.9898 127.964C43.2058 128.5 43.3138 129.124 43.3138 129.836ZM49.2493 126.968V128.72H50.0653C50.6653 128.72 51.2013 128.768 51.6733 128.864C52.1453 128.96 52.5453 129.116 52.8733 129.332C53.2013 129.54 53.4493 129.816 53.6173 130.16C53.7933 130.496 53.8813 130.908 53.8813 131.396C53.8813 132.3 53.5533 132.976 52.8973 133.424C52.2493 133.864 51.3213 134.084 50.1133 134.084C49.7773 134.084 49.3973 134.064 48.9733 134.024C48.5493 133.992 48.1493 133.932 47.7733 133.844V125.684H53.1013V126.968H49.2493ZM49.7773 132.776C49.8653 132.776 49.9653 132.776 50.0773 132.776C50.1893 132.776 50.3133 132.772 50.4493 132.764C50.6973 132.756 50.9333 132.728 51.1573 132.68C51.3893 132.632 51.5893 132.556 51.7573 132.452C51.9333 132.348 52.0693 132.212 52.1653 132.044C52.2693 131.876 52.3213 131.664 52.3213 131.408C52.3213 131.12 52.2693 130.884 52.1653 130.7C52.0613 130.516 51.9093 130.372 51.7093 130.268C51.5093 130.156 51.2653 130.08 50.9773 130.04C50.6973 129.992 50.3773 129.968 50.0173 129.968H49.2493V132.752C49.3213 132.76 49.3973 132.768 49.4773 132.776C49.5653 132.776 49.6653 132.776 49.7773 132.776ZM59.2828 131.516C59.0828 131.964 58.8748 132.356 58.6588 132.692C58.4508 133.02 58.2188 133.292 57.9628 133.508C57.7148 133.724 57.4348 133.884 57.1228 133.988C56.8188 134.092 56.4748 134.144 56.0908 134.144C55.8588 134.144 55.6148 134.12 55.3588 134.072C55.1108 134.024 54.9068 133.964 54.7468 133.892L55.0228 132.644C55.1748 132.708 55.3348 132.76 55.5028 132.8C55.6708 132.832 55.8428 132.848 56.0188 132.848C56.3868 132.848 56.6908 132.764 56.9308 132.596C57.1788 132.428 57.4068 132.152 57.6148 131.768C57.2788 131.224 56.9548 130.676 56.6428 130.124C56.3388 129.572 56.0548 129.036 55.7908 128.516C55.5268 127.988 55.2828 127.484 55.0588 127.004C54.8428 126.524 54.6468 126.084 54.4708 125.684H56.1628C56.2908 126.012 56.4348 126.364 56.5948 126.74C56.7628 127.116 56.9388 127.504 57.1228 127.904C57.3148 128.304 57.5148 128.712 57.7228 129.128C57.9308 129.544 58.1388 129.96 58.3468 130.376C58.6348 129.664 58.9108 128.904 59.1748 128.096C59.4388 127.288 59.6868 126.484 59.9188 125.684H61.5508C61.3588 126.276 61.1668 126.836 60.9748 127.364C60.7828 127.884 60.5908 128.384 60.3988 128.864C60.2148 129.336 60.0268 129.792 59.8348 130.232C59.6508 130.664 59.4668 131.092 59.2828 131.516ZM61.1248 132.716H62.1568C62.5168 132.22 62.7928 131.7 62.9848 131.156C63.1848 130.604 63.3288 130.036 63.4168 129.452C63.5128 128.86 63.5688 128.252 63.5848 127.628C63.6008 126.996 63.6088 126.348 63.6088 125.684H68.7088V132.716H69.9448V136.22H68.4928V134H62.5768V136.22H61.1248V132.716ZM65.0608 126.98C65.0368 127.46 65.0088 127.952 64.9768 128.456C64.9448 128.96 64.8848 129.46 64.7968 129.956C64.7168 130.444 64.6008 130.924 64.4488 131.396C64.2968 131.86 64.0888 132.3 63.8248 132.716H67.2208V126.98H65.0608ZM71.1405 134V125.684H76.4805V126.968H72.6525V129.02H76.0605V130.28H72.6525V132.716H76.7685V134H71.1405ZM83.9678 125.684V126.992H81.4118V134H79.8878V126.992H77.3318V125.684H83.9678ZM87.0818 132.716H88.1138C88.4738 132.22 88.7498 131.7 88.9418 131.156C89.1418 130.604 89.2858 130.036 89.3738 129.452C89.4698 128.86 89.5258 128.252 89.5418 127.628C89.5578 126.996 89.5658 126.348 89.5658 125.684H94.6658V132.716H95.9018V136.22H94.4498V134H88.5338V136.22H87.0818V132.716ZM91.0178 126.98C90.9938 127.46 90.9658 127.952 90.9338 128.456C90.9018 128.96 90.8418 129.46 90.7538 129.956C90.6738 130.444 90.5578 130.924 90.4058 131.396C90.2538 131.86 90.0458 132.3 89.7818 132.716H93.1778V126.98H91.0178ZM102.887 134C102.775 133.672 102.659 133.348 102.539 133.028C102.419 132.708 102.303 132.38 102.191 132.044H98.6871C98.5751 132.38 98.4591 132.712 98.3391 133.04C98.2271 133.36 98.1151 133.68 98.0031 134H96.4311C96.7431 133.112 97.0391 132.292 97.3191 131.54C97.5991 130.788 97.8711 130.076 98.1351 129.404C98.4071 128.732 98.6751 128.092 98.9391 127.484C99.2031 126.876 99.4751 126.276 99.7551 125.684H101.183C101.463 126.276 101.735 126.876 101.999 127.484C102.263 128.092 102.527 128.732 102.791 129.404C103.063 130.076 103.339 130.788 103.619 131.54C103.907 132.292 104.207 133.112 104.519 134H102.887ZM100.439 127.292C100.255 127.716 100.043 128.232 99.8031 128.84C99.5711 129.448 99.3271 130.108 99.0711 130.82H101.807C101.551 130.108 101.303 129.444 101.063 128.828C100.823 128.212 100.615 127.7 100.439 127.292ZM108.996 126.98C108.972 127.524 108.944 128.08 108.912 128.648C108.88 129.208 108.82 129.752 108.732 130.28C108.652 130.8 108.532 131.292 108.372 131.756C108.212 132.22 107.992 132.628 107.712 132.98C107.432 133.324 107.08 133.6 106.656 133.808C106.24 134.016 105.728 134.128 105.12 134.144L104.952 132.824C105.24 132.792 105.492 132.736 105.708 132.656C105.924 132.576 106.112 132.472 106.272 132.344C106.432 132.208 106.572 132.044 106.692 131.852C106.812 131.652 106.916 131.42 107.004 131.156C107.22 130.532 107.364 129.752 107.436 128.816C107.508 127.88 107.544 126.836 107.544 125.684H112.74V134H111.216V126.98H108.996ZM120.89 131.384C120.89 132.272 120.554 132.948 119.882 133.412C119.218 133.868 118.282 134.096 117.074 134.096C116.738 134.096 116.358 134.076 115.934 134.036C115.518 133.996 115.118 133.932 114.734 133.844V125.684H116.246V128.672C116.382 128.656 116.51 128.648 116.63 128.648C116.75 128.648 116.874 128.648 117.002 128.648C119.594 128.648 120.89 129.56 120.89 131.384ZM116.894 129.944C116.798 129.944 116.694 129.944 116.582 129.944C116.47 129.944 116.358 129.952 116.246 129.968V132.776C116.358 132.784 116.486 132.792 116.63 132.8C116.782 132.8 116.962 132.8 117.17 132.8C117.45 132.8 117.718 132.78 117.974 132.74C118.238 132.692 118.466 132.616 118.658 132.512C118.858 132.4 119.018 132.256 119.138 132.08C119.258 131.896 119.318 131.664 119.318 131.384C119.318 131.104 119.258 130.872 119.138 130.688C119.026 130.504 118.862 130.356 118.646 130.244C118.438 130.132 118.186 130.056 117.89 130.016C117.594 129.968 117.262 129.944 116.894 129.944ZM122.316 134V125.684H123.828V132.716H126.564V125.684H128.088V132.716H130.824V125.684H132.336V134H122.316ZM134.328 134V125.684H139.668V126.968H135.84V129.02H139.248V130.28H135.84V132.716H139.956V134H134.328Z" fill="white"/>
<defs>
<linearGradient id="paint0_linear" x1="130" y1="0" x2="130" y2="170" gradientUnits="userSpaceOnUse">
<stop stop-color="#FF2F01"/>
<stop offset="1" stop-color="#FF055F"/>
</linearGradient>
</defs>
</svg>
