<svg width="260" height="170" viewBox="0 0 260 170" fill="none" xmlns="http://www.w3.org/2000/svg">
<rect width="260" height="170" rx="16" fill="url(#paint0_linear)"/>
<path d="M21.632 74.472C31.808 67.208 36.896 61.432 36.896 57.144C36.896 54.52 35.76 53.208 33.488 53.208C32.208 53.208 31.264 53.656 30.656 54.552C30.08 55.448 29.76 56.84 29.696 58.728H21.68C21.872 54.6 23.12 51.496 25.424 49.416C27.728 47.336 30.64 46.296 34.16 46.296C37.84 46.296 40.608 47.224 42.464 49.08C44.352 50.936 45.296 53.352 45.296 56.328C45.296 59.624 44.032 62.856 41.504 66.024C38.976 69.16 35.952 71.816 32.432 73.992H45.824V80.616H21.632V74.472ZM49.2035 63.672C49.2035 68.984 50.2755 73.192 52.4195 76.296C54.5635 79.4 57.9875 80.952 62.6915 80.952C67.3635 80.952 70.7715 79.4 72.9155 76.296C75.0915 73.192 76.1795 68.984 76.1795 63.672C76.1795 58.392 75.0915 54.216 72.9155 51.144C70.7715 48.04 67.3635 46.488 62.6915 46.488C57.9875 46.488 54.5635 48.04 52.4195 51.144C50.2755 54.216 49.2035 58.392 49.2035 63.672ZM68.0195 63.672C68.0195 66.712 67.6515 69.064 66.9155 70.728C66.2115 72.36 64.8035 73.176 62.6915 73.176C60.5475 73.176 59.1075 72.36 58.3715 70.728C57.6355 69.064 57.2675 66.712 57.2675 63.672C57.2675 60.664 57.6355 58.344 58.3715 56.712C59.1075 55.08 60.5475 54.264 62.6915 54.264C64.8035 54.264 66.2115 55.08 66.9155 56.712C67.6515 58.312 68.0195 60.632 68.0195 63.672ZM78.6061 54.744V47.064H92.3341V81H83.6941V54.744H78.6061ZM105.652 70.584C106.1 73.368 107.508 74.76 109.876 74.76C111.732 74.76 113.028 73.912 113.764 72.216C114.532 70.52 114.884 67.88 114.82 64.296C114.276 65.608 113.332 66.648 111.988 67.416C110.676 68.152 109.14 68.52 107.38 68.52C104.18 68.52 101.652 67.56 99.7955 65.64C97.9395 63.688 97.0115 60.904 97.0115 57.288C97.0115 55.016 97.4755 53 98.4035 51.24C99.3315 49.48 100.692 48.12 102.484 47.16C104.308 46.168 106.484 45.672 109.012 45.672C112.436 45.672 115.108 46.392 117.028 47.832C118.948 49.272 120.276 51.24 121.012 53.736C121.748 56.2 122.116 59.176 122.116 62.664C122.116 68.808 121.172 73.464 119.284 76.632C117.428 79.768 114.292 81.336 109.876 81.336C107.444 81.336 105.348 80.856 103.588 79.896C101.86 78.904 100.516 77.592 99.5555 75.96C98.6275 74.328 98.0995 72.536 97.9715 70.584H105.652ZM114.196 57.672C114.196 56.2 113.78 55.016 112.948 54.12C112.116 53.192 110.9 52.728 109.299 52.728C107.86 52.728 106.724 53.128 105.892 53.928C105.092 54.728 104.692 55.896 104.692 57.432C104.692 58.968 105.108 60.152 105.94 60.984C106.772 61.784 107.908 62.184 109.348 62.184C110.724 62.184 111.876 61.8 112.804 61.032C113.732 60.232 114.196 59.112 114.196 57.672Z" fill="white"/>
<path d="M22.232 113.836C22.232 114.292 22.288 114.708 22.4 115.084C22.512 115.452 22.672 115.768 22.88 116.032C23.096 116.288 23.356 116.488 23.66 116.632C23.964 116.776 24.308 116.848 24.692 116.848C25.068 116.848 25.408 116.776 25.712 116.632C26.016 116.488 26.272 116.288 26.48 116.032C26.696 115.768 26.86 115.452 26.972 115.084C27.084 114.708 27.14 114.292 27.14 113.836C27.14 113.38 27.084 112.968 26.972 112.6C26.86 112.224 26.696 111.908 26.48 111.652C26.272 111.388 26.016 111.184 25.712 111.04C25.408 110.896 25.068 110.824 24.692 110.824C24.308 110.824 23.964 110.896 23.66 111.04C23.356 111.184 23.096 111.388 22.88 111.652C22.672 111.916 22.512 112.232 22.4 112.6C22.288 112.968 22.232 113.38 22.232 113.836ZM28.724 113.836C28.724 114.548 28.616 115.176 28.4 115.72C28.192 116.264 27.904 116.72 27.536 117.088C27.176 117.448 26.752 117.72 26.264 117.904C25.776 118.088 25.256 118.18 24.704 118.18C24.152 118.18 23.628 118.088 23.132 117.904C22.644 117.72 22.216 117.448 21.848 117.088C21.488 116.72 21.2 116.264 20.984 115.72C20.768 115.176 20.66 114.548 20.66 113.836C20.66 113.124 20.768 112.5 20.984 111.964C21.2 111.42 21.492 110.964 21.86 110.596C22.236 110.228 22.668 109.952 23.156 109.768C23.644 109.584 24.16 109.492 24.704 109.492C25.248 109.492 25.764 109.584 26.252 109.768C26.74 109.952 27.164 110.228 27.524 110.596C27.892 110.964 28.184 111.42 28.4 111.964C28.616 112.5 28.724 113.124 28.724 113.836ZM38.4395 116.692V118H33.1835V109.684H34.6955V116.692H38.4395ZM40.3492 113.836C40.3492 114.292 40.4052 114.708 40.5172 115.084C40.6292 115.452 40.7892 115.768 40.9972 116.032C41.2132 116.288 41.4732 116.488 41.7772 116.632C42.0812 116.776 42.4252 116.848 42.8092 116.848C43.1852 116.848 43.5252 116.776 43.8292 116.632C44.1332 116.488 44.3892 116.288 44.5972 116.032C44.8132 115.768 44.9772 115.452 45.0892 115.084C45.2012 114.708 45.2572 114.292 45.2572 113.836C45.2572 113.38 45.2012 112.968 45.0892 112.6C44.9772 112.224 44.8132 111.908 44.5972 111.652C44.3892 111.388 44.1332 111.184 43.8292 111.04C43.5252 110.896 43.1852 110.824 42.8092 110.824C42.4252 110.824 42.0812 110.896 41.7772 111.04C41.4732 111.184 41.2132 111.388 40.9972 111.652C40.7892 111.916 40.6292 112.232 40.5172 112.6C40.4052 112.968 40.3492 113.38 40.3492 113.836ZM46.8412 113.836C46.8412 114.548 46.7332 115.176 46.5172 115.72C46.3092 116.264 46.0212 116.72 45.6532 117.088C45.2932 117.448 44.8692 117.72 44.3812 117.904C43.8932 118.088 43.3732 118.18 42.8212 118.18C42.2692 118.18 41.7452 118.088 41.2492 117.904C40.7612 117.72 40.3332 117.448 39.9652 117.088C39.6052 116.72 39.3172 116.264 39.1012 115.72C38.8852 115.176 38.7772 114.548 38.7772 113.836C38.7772 113.124 38.8852 112.5 39.1012 111.964C39.3172 111.42 39.6092 110.964 39.9772 110.596C40.3532 110.228 40.7852 109.952 41.2732 109.768C41.7612 109.584 42.2772 109.492 42.8212 109.492C43.3652 109.492 43.8812 109.584 44.3692 109.768C44.8572 109.952 45.2812 110.228 45.6412 110.596C46.0092 110.964 46.3012 111.42 46.5172 111.964C46.7332 112.5 46.8412 113.124 46.8412 113.836ZM51.7039 118.18C51.1359 118.18 50.6479 118.1 50.2399 117.94C49.8319 117.772 49.4919 117.54 49.2199 117.244C48.9559 116.948 48.7599 116.6 48.6319 116.2C48.5039 115.8 48.4399 115.36 48.4399 114.88V109.684H49.9639V114.736C49.9639 115.112 50.0039 115.436 50.0839 115.708C50.1719 115.972 50.2919 116.188 50.4439 116.356C50.6039 116.524 50.7879 116.648 50.9959 116.728C51.2119 116.808 51.4519 116.848 51.7159 116.848C51.9799 116.848 52.2199 116.808 52.4359 116.728C52.6519 116.648 52.8359 116.524 52.9879 116.356C53.1479 116.188 53.2679 115.972 53.3479 115.708C53.4359 115.436 53.4799 115.112 53.4799 114.736V109.684H55.0039V114.88C55.0039 115.36 54.9359 115.8 54.7999 116.2C54.6719 116.6 54.4719 116.948 54.1999 117.244C53.9359 117.54 53.5959 117.772 53.1799 117.94C52.7639 118.1 52.2719 118.18 51.7039 118.18ZM58.4494 116.752C58.5374 116.76 58.6534 116.768 58.7974 116.776C58.9414 116.776 59.1374 116.776 59.3854 116.776C60.4014 116.776 61.1574 116.52 61.6534 116.008C62.1574 115.488 62.4094 114.764 62.4094 113.836C62.4094 112.892 62.1654 112.168 61.6774 111.664C61.1894 111.16 60.4334 110.908 59.4094 110.908C58.9614 110.908 58.6414 110.92 58.4494 110.944V116.752ZM63.9934 113.836C63.9934 114.556 63.8814 115.184 63.6574 115.72C63.4334 116.248 63.1134 116.692 62.6974 117.052C62.2894 117.404 61.7934 117.668 61.2094 117.844C60.6334 118.012 59.9934 118.096 59.2894 118.096C58.9534 118.096 58.5734 118.08 58.1494 118.048C57.7254 118.024 57.3214 117.968 56.9374 117.88V109.804C57.3214 109.716 57.7294 109.66 58.1614 109.636C58.5934 109.612 58.9774 109.6 59.3134 109.6C60.0094 109.6 60.6454 109.684 61.2214 109.852C61.7974 110.012 62.2894 110.268 62.6974 110.62C63.1134 110.964 63.4334 111.404 63.6574 111.94C63.8814 112.468 63.9934 113.1 63.9934 113.836ZM67.9964 109.6C69.2044 109.6 70.1284 109.82 70.7684 110.26C71.4164 110.7 71.7404 111.388 71.7404 112.324C71.7404 112.812 71.6524 113.232 71.4764 113.584C71.3084 113.928 71.0604 114.212 70.7324 114.436C70.4044 114.652 70.0044 114.812 69.5324 114.916C69.0604 115.02 68.5204 115.072 67.9124 115.072H67.1564V118H65.6444V109.804C65.9964 109.724 66.3844 109.672 66.8084 109.648C67.2404 109.616 67.6364 109.6 67.9964 109.6ZM68.1044 110.908C67.7204 110.908 67.4044 110.92 67.1564 110.944V113.776H67.8884C68.6164 113.776 69.1764 113.676 69.5684 113.476C69.9604 113.268 70.1564 112.88 70.1564 112.312C70.1564 112.04 70.1044 111.812 70.0004 111.628C69.8964 111.444 69.7524 111.3 69.5684 111.196C69.3844 111.092 69.1644 111.02 68.9084 110.98C68.6604 110.932 68.3924 110.908 68.1044 110.908ZM78.377 116.692V118H73.121V109.684H74.633V116.692H78.377ZM85.3558 118C85.2438 117.672 85.1278 117.348 85.0078 117.028C84.8878 116.708 84.7718 116.38 84.6598 116.044H81.1558C81.0438 116.38 80.9278 116.712 80.8078 117.04C80.6958 117.36 80.5838 117.68 80.4718 118H78.8998C79.2118 117.112 79.5078 116.292 79.7878 115.54C80.0678 114.788 80.3398 114.076 80.6038 113.404C80.8758 112.732 81.1438 112.092 81.4078 111.484C81.6718 110.876 81.9438 110.276 82.2238 109.684H83.6518C83.9318 110.276 84.2038 110.876 84.4678 111.484C84.7318 112.092 84.9958 112.732 85.2598 113.404C85.5318 114.076 85.8078 114.788 86.0878 115.54C86.3758 116.292 86.6758 117.112 86.9878 118H85.3558ZM82.9078 111.292C82.7238 111.716 82.5118 112.232 82.2718 112.84C82.0398 113.448 81.7958 114.108 81.5398 114.82H84.2758C84.0198 114.108 83.7718 113.444 83.5318 112.828C83.2918 112.212 83.0838 111.7 82.9078 111.292ZM89.9795 113.368C90.3395 112.768 90.6915 112.16 91.0355 111.544C91.3795 110.928 91.6915 110.308 91.9715 109.684H93.6515C93.2035 110.532 92.7355 111.376 92.2475 112.216C91.7675 113.048 91.2515 113.888 90.6995 114.736V118H89.1875V114.76C88.6355 113.904 88.1155 113.056 87.6275 112.216C87.1395 111.376 86.6715 110.532 86.2235 109.684H87.9995C88.2795 110.308 88.5875 110.928 88.9235 111.544C89.2595 112.16 89.6115 112.768 89.9795 113.368ZM104.06 109.684V118H102.548V110.98H98.9963V118H97.4843V109.684H104.06ZM106.051 118V109.684H107.551V115.204C107.823 114.772 108.131 114.308 108.475 113.812C108.827 113.308 109.187 112.808 109.555 112.312C109.931 111.816 110.303 111.34 110.671 110.884C111.039 110.42 111.383 110.02 111.703 109.684H112.939V118H111.451V112.048C111.115 112.448 110.759 112.9 110.383 113.404C110.015 113.9 109.651 114.416 109.291 114.952C108.931 115.48 108.583 116.008 108.247 116.536C107.911 117.056 107.607 117.544 107.335 118H106.051ZM114.934 118V109.684H116.446V116.716H119.182V109.684H120.706V116.716H123.442V109.684H124.954V118H114.934ZM131.013 115.516C130.813 115.964 130.605 116.356 130.389 116.692C130.181 117.02 129.949 117.292 129.693 117.508C129.445 117.724 129.165 117.884 128.853 117.988C128.549 118.092 128.205 118.144 127.821 118.144C127.589 118.144 127.345 118.12 127.089 118.072C126.841 118.024 126.637 117.964 126.477 117.892L126.753 116.644C126.905 116.708 127.065 116.76 127.233 116.8C127.401 116.832 127.573 116.848 127.749 116.848C128.117 116.848 128.421 116.764 128.661 116.596C128.909 116.428 129.137 116.152 129.345 115.768C129.009 115.224 128.685 114.676 128.373 114.124C128.069 113.572 127.785 113.036 127.521 112.516C127.257 111.988 127.013 111.484 126.789 111.004C126.573 110.524 126.377 110.084 126.201 109.684H127.893C128.021 110.012 128.165 110.364 128.325 110.74C128.493 111.116 128.669 111.504 128.853 111.904C129.045 112.304 129.245 112.712 129.453 113.128C129.661 113.544 129.869 113.96 130.077 114.376C130.365 113.664 130.641 112.904 130.905 112.096C131.169 111.288 131.417 110.484 131.649 109.684H133.281C133.089 110.276 132.897 110.836 132.705 111.364C132.513 111.884 132.321 112.384 132.129 112.864C131.945 113.336 131.757 113.792 131.565 114.232C131.381 114.664 131.197 115.092 131.013 115.516ZM140.44 109.684V110.992H137.884V118H136.36V110.992H133.804V109.684H140.44ZM144.394 118V109.684H149.65V110.968H145.906V113.092H149.23V114.376H145.906V118H144.394ZM152.111 113.836C152.111 114.292 152.167 114.708 152.279 115.084C152.391 115.452 152.551 115.768 152.759 116.032C152.975 116.288 153.235 116.488 153.539 116.632C153.843 116.776 154.187 116.848 154.571 116.848C154.947 116.848 155.287 116.776 155.591 116.632C155.895 116.488 156.151 116.288 156.359 116.032C156.575 115.768 156.739 115.452 156.851 115.084C156.963 114.708 157.019 114.292 157.019 113.836C157.019 113.38 156.963 112.968 156.851 112.6C156.739 112.224 156.575 111.908 156.359 111.652C156.151 111.388 155.895 111.184 155.591 111.04C155.287 110.896 154.947 110.824 154.571 110.824C154.187 110.824 153.843 110.896 153.539 111.04C153.235 111.184 152.975 111.388 152.759 111.652C152.551 111.916 152.391 112.232 152.279 112.6C152.167 112.968 152.111 113.38 152.111 113.836ZM158.603 113.836C158.603 114.548 158.495 115.176 158.279 115.72C158.071 116.264 157.783 116.72 157.415 117.088C157.055 117.448 156.631 117.72 156.143 117.904C155.655 118.088 155.135 118.18 154.583 118.18C154.031 118.18 153.507 118.088 153.011 117.904C152.523 117.72 152.095 117.448 151.727 117.088C151.367 116.72 151.079 116.264 150.863 115.72C150.647 115.176 150.539 114.548 150.539 113.836C150.539 113.124 150.647 112.5 150.863 111.964C151.079 111.42 151.371 110.964 151.739 110.596C152.115 110.228 152.547 109.952 153.035 109.768C153.523 109.584 154.039 109.492 154.583 109.492C155.127 109.492 155.643 109.584 156.131 109.768C156.619 109.952 157.043 110.228 157.403 110.596C157.771 110.964 158.063 111.42 158.279 111.964C158.495 112.5 158.603 113.124 158.603 113.836ZM162.554 109.6C163.754 109.6 164.67 109.82 165.302 110.26C165.942 110.7 166.262 111.372 166.262 112.276C166.262 113.404 165.706 114.168 164.594 114.568C164.746 114.752 164.918 114.976 165.11 115.24C165.302 115.504 165.498 115.792 165.698 116.104C165.898 116.408 166.09 116.724 166.274 117.052C166.458 117.372 166.622 117.688 166.766 118H165.074C164.922 117.712 164.758 117.424 164.582 117.136C164.406 116.84 164.226 116.556 164.042 116.284C163.866 116.004 163.69 115.744 163.514 115.504C163.338 115.256 163.174 115.036 163.022 114.844C162.91 114.852 162.814 114.856 162.734 114.856C162.654 114.856 162.578 114.856 162.506 114.856H161.774V118H160.262V109.804C160.63 109.724 161.022 109.672 161.438 109.648C161.854 109.616 162.226 109.6 162.554 109.6ZM162.662 110.908C162.342 110.908 162.046 110.92 161.774 110.944V113.632H162.434C162.802 113.632 163.126 113.612 163.406 113.572C163.686 113.532 163.918 113.46 164.102 113.356C164.294 113.252 164.438 113.112 164.534 112.936C164.63 112.76 164.678 112.536 164.678 112.264C164.678 112.008 164.63 111.792 164.534 111.616C164.438 111.44 164.298 111.3 164.114 111.196C163.938 111.092 163.726 111.02 163.478 110.98C163.23 110.932 162.958 110.908 162.662 110.908ZM170.445 118.096C170.005 118.096 169.561 118.08 169.113 118.048C168.665 118.024 168.273 117.968 167.937 117.88V109.804C168.113 109.772 168.301 109.744 168.501 109.72C168.701 109.688 168.905 109.664 169.113 109.648C169.321 109.632 169.525 109.62 169.725 109.612C169.933 109.604 170.129 109.6 170.313 109.6C170.817 109.6 171.285 109.64 171.717 109.72C172.149 109.792 172.521 109.916 172.833 110.092C173.153 110.268 173.401 110.5 173.577 110.788C173.753 111.076 173.841 111.432 173.841 111.856C173.841 112.248 173.745 112.584 173.553 112.864C173.369 113.144 173.109 113.368 172.773 113.536C173.277 113.704 173.649 113.952 173.889 114.28C174.129 114.608 174.249 115.024 174.249 115.528C174.249 116.384 173.937 117.028 173.313 117.46C172.689 117.884 171.733 118.096 170.445 118.096ZM169.425 114.256V116.788C169.593 116.804 169.773 116.816 169.965 116.824C170.157 116.832 170.333 116.836 170.493 116.836C170.805 116.836 171.093 116.816 171.357 116.776C171.629 116.736 171.861 116.668 172.053 116.572C172.253 116.468 172.409 116.332 172.521 116.164C172.641 115.996 172.701 115.78 172.701 115.516C172.701 115.044 172.529 114.716 172.185 114.532C171.841 114.348 171.365 114.256 170.757 114.256H169.425ZM169.425 113.068H170.493C171.069 113.068 171.521 112.988 171.849 112.828C172.177 112.66 172.341 112.364 172.341 111.94C172.341 111.54 172.169 111.256 171.825 111.088C171.489 110.92 171.049 110.836 170.505 110.836C170.273 110.836 170.065 110.84 169.881 110.848C169.705 110.856 169.553 110.868 169.425 110.884V113.068ZM175.824 118V109.684H181.164V110.968H177.336V113.02H180.744V114.28H177.336V116.716H181.452V118H175.824ZM184.871 116.872C185.415 116.872 185.811 116.78 186.059 116.596C186.307 116.412 186.431 116.152 186.431 115.816C186.431 115.616 186.387 115.444 186.299 115.3C186.219 115.156 186.099 115.028 185.939 114.916C185.787 114.796 185.599 114.688 185.375 114.592C185.151 114.488 184.895 114.388 184.607 114.292C184.319 114.188 184.039 114.076 183.767 113.956C183.503 113.828 183.267 113.672 183.059 113.488C182.859 113.304 182.695 113.084 182.567 112.828C182.447 112.572 182.387 112.264 182.387 111.904C182.387 111.152 182.647 110.564 183.167 110.14C183.687 109.708 184.395 109.492 185.291 109.492C185.811 109.492 186.271 109.552 186.671 109.672C187.079 109.784 187.399 109.908 187.631 110.044L187.163 111.268C186.891 111.116 186.591 111 186.263 110.92C185.943 110.84 185.611 110.8 185.267 110.8C184.859 110.8 184.539 110.884 184.307 111.052C184.083 111.22 183.971 111.456 183.971 111.76C183.971 111.944 184.007 112.104 184.079 112.24C184.159 112.368 184.267 112.484 184.403 112.588C184.547 112.692 184.711 112.788 184.895 112.876C185.087 112.964 185.295 113.048 185.519 113.128C185.911 113.272 186.259 113.42 186.563 113.572C186.875 113.716 187.135 113.892 187.343 114.1C187.559 114.3 187.723 114.54 187.835 114.82C187.947 115.092 188.003 115.424 188.003 115.816C188.003 116.568 187.735 117.152 187.199 117.568C186.671 117.976 185.895 118.18 184.871 118.18C184.527 118.18 184.211 118.156 183.923 118.108C183.643 118.068 183.391 118.016 183.167 117.952C182.951 117.888 182.763 117.824 182.603 117.76C182.443 117.688 182.315 117.624 182.219 117.568L182.663 116.332C182.879 116.452 183.171 116.572 183.539 116.692C183.907 116.812 184.351 116.872 184.871 116.872ZM190.764 116.404C190.78 116.54 190.788 116.64 190.788 116.704C190.788 116.768 190.788 116.832 190.788 116.896C190.788 117.392 190.708 117.904 190.548 118.432C190.396 118.96 190.18 119.46 189.9 119.932L188.76 119.62C188.952 119.156 189.08 118.7 189.144 118.252C189.216 117.812 189.252 117.424 189.252 117.088C189.252 116.992 189.248 116.872 189.24 116.728C189.24 116.584 189.236 116.476 189.228 116.404H190.764ZM20.996 134V125.684H26.336V126.968H22.508V129.02H25.916V130.28H22.508V132.716H26.624V134H20.996ZM31.4186 134.18C30.7946 134.18 30.2346 134.084 29.7386 133.892C29.2426 133.7 28.8226 133.42 28.4786 133.052C28.1346 132.676 27.8706 132.22 27.6866 131.684C27.5026 131.148 27.4106 130.532 27.4106 129.836C27.4106 129.14 27.5146 128.524 27.7226 127.988C27.9386 127.452 28.2306 127 28.5986 126.632C28.9666 126.256 29.3986 125.972 29.8946 125.78C30.3906 125.588 30.9226 125.492 31.4906 125.492C31.8346 125.492 32.1466 125.52 32.4266 125.576C32.7066 125.624 32.9506 125.68 33.1586 125.744C33.3666 125.808 33.5386 125.876 33.6746 125.948C33.8106 126.02 33.9066 126.072 33.9626 126.104L33.5186 127.34C33.3266 127.22 33.0506 127.108 32.6906 127.004C32.3386 126.892 31.9546 126.836 31.5386 126.836C31.1786 126.836 30.8426 126.9 30.5306 127.028C30.2186 127.148 29.9466 127.332 29.7146 127.58C29.4906 127.828 29.3146 128.14 29.1866 128.516C29.0586 128.892 28.9946 129.328 28.9946 129.824C28.9946 130.264 29.0426 130.668 29.1386 131.036C29.2426 131.404 29.3986 131.724 29.6066 131.996C29.8146 132.26 30.0786 132.468 30.3986 132.62C30.7186 132.764 31.1026 132.836 31.5506 132.836C32.0866 132.836 32.5226 132.784 32.8586 132.68C33.1946 132.568 33.4546 132.464 33.6386 132.368L34.0466 133.604C33.9506 133.668 33.8186 133.732 33.6506 133.796C33.4906 133.86 33.2986 133.924 33.0746 133.988C32.8506 134.044 32.5986 134.088 32.3186 134.12C32.0386 134.16 31.7386 134.18 31.4186 134.18ZM36.4 129.836C36.4 130.292 36.456 130.708 36.568 131.084C36.68 131.452 36.84 131.768 37.048 132.032C37.264 132.288 37.524 132.488 37.828 132.632C38.132 132.776 38.476 132.848 38.86 132.848C39.236 132.848 39.576 132.776 39.88 132.632C40.184 132.488 40.44 132.288 40.648 132.032C40.864 131.768 41.028 131.452 41.14 131.084C41.252 130.708 41.308 130.292 41.308 129.836C41.308 129.38 41.252 128.968 41.14 128.6C41.028 128.224 40.864 127.908 40.648 127.652C40.44 127.388 40.184 127.184 39.88 127.04C39.576 126.896 39.236 126.824 38.86 126.824C38.476 126.824 38.132 126.896 37.828 127.04C37.524 127.184 37.264 127.388 37.048 127.652C36.84 127.916 36.68 128.232 36.568 128.6C36.456 128.968 36.4 129.38 36.4 129.836ZM42.892 129.836C42.892 130.548 42.784 131.176 42.568 131.72C42.36 132.264 42.072 132.72 41.704 133.088C41.344 133.448 40.92 133.72 40.432 133.904C39.944 134.088 39.424 134.18 38.872 134.18C38.32 134.18 37.796 134.088 37.3 133.904C36.812 133.72 36.384 133.448 36.016 133.088C35.656 132.72 35.368 132.264 35.152 131.72C34.936 131.176 34.828 130.548 34.828 129.836C34.828 129.124 34.936 128.5 35.152 127.964C35.368 127.42 35.66 126.964 36.028 126.596C36.404 126.228 36.836 125.952 37.324 125.768C37.812 125.584 38.328 125.492 38.872 125.492C39.416 125.492 39.932 125.584 40.42 125.768C40.908 125.952 41.332 126.228 41.692 126.596C42.06 126.964 42.352 127.42 42.568 127.964C42.784 128.5 42.892 129.124 42.892 129.836ZM50.1547 134C49.8827 133.544 49.5787 133.056 49.2427 132.536C48.9067 132.008 48.5587 131.48 48.1987 130.952C47.8387 130.416 47.4707 129.9 47.0947 129.404C46.7267 128.9 46.3747 128.448 46.0387 128.048V134H44.5507V125.684H45.7867C46.1067 126.02 46.4507 126.42 46.8187 126.884C47.1867 127.34 47.5547 127.816 47.9227 128.312C48.2987 128.808 48.6587 129.308 49.0027 129.812C49.3547 130.308 49.6667 130.772 49.9387 131.204V125.684H51.4387V134H50.1547ZM54.6695 129.836C54.6695 130.292 54.7255 130.708 54.8375 131.084C54.9495 131.452 55.1095 131.768 55.3175 132.032C55.5335 132.288 55.7935 132.488 56.0975 132.632C56.4015 132.776 56.7455 132.848 57.1295 132.848C57.5055 132.848 57.8455 132.776 58.1495 132.632C58.4535 132.488 58.7095 132.288 58.9175 132.032C59.1335 131.768 59.2975 131.452 59.4095 131.084C59.5215 130.708 59.5775 130.292 59.5775 129.836C59.5775 129.38 59.5215 128.968 59.4095 128.6C59.2975 128.224 59.1335 127.908 58.9175 127.652C58.7095 127.388 58.4535 127.184 58.1495 127.04C57.8455 126.896 57.5055 126.824 57.1295 126.824C56.7455 126.824 56.4015 126.896 56.0975 127.04C55.7935 127.184 55.5335 127.388 55.3175 127.652C55.1095 127.916 54.9495 128.232 54.8375 128.6C54.7255 128.968 54.6695 129.38 54.6695 129.836ZM61.1615 129.836C61.1615 130.548 61.0535 131.176 60.8375 131.72C60.6295 132.264 60.3415 132.72 59.9735 133.088C59.6135 133.448 59.1895 133.72 58.7015 133.904C58.2135 134.088 57.6935 134.18 57.1415 134.18C56.5895 134.18 56.0655 134.088 55.5695 133.904C55.0815 133.72 54.6535 133.448 54.2855 133.088C53.9255 132.72 53.6375 132.264 53.4215 131.72C53.2055 131.176 53.0975 130.548 53.0975 129.836C53.0975 129.124 53.2055 128.5 53.4215 127.964C53.6375 127.42 53.9295 126.964 54.2975 126.596C54.6735 126.228 55.1055 125.952 55.5935 125.768C56.0815 125.584 56.5975 125.492 57.1415 125.492C57.6855 125.492 58.2015 125.584 58.6895 125.768C59.1775 125.952 59.6015 126.228 59.9615 126.596C60.3295 126.964 60.6215 127.42 60.8375 127.964C61.0535 128.5 61.1615 129.124 61.1615 129.836ZM64.6322 125.684C64.8082 125.988 65.0042 126.36 65.2202 126.8C65.4362 127.24 65.6562 127.704 65.8802 128.192C66.1042 128.672 66.3242 129.164 66.5402 129.668C66.7642 130.164 66.9682 130.624 67.1522 131.048C67.3362 130.624 67.5362 130.164 67.7522 129.668C67.9682 129.164 68.1882 128.672 68.4122 128.192C68.6362 127.704 68.8562 127.24 69.0722 126.8C69.2882 126.36 69.4842 125.988 69.6602 125.684H71.0282C71.1002 126.292 71.1682 126.94 71.2322 127.628C71.2962 128.308 71.3522 129.008 71.4002 129.728C71.4562 130.44 71.5042 131.16 71.5442 131.888C71.5922 132.608 71.6322 133.312 71.6642 134H70.1762C70.1442 133.032 70.1042 132.036 70.0562 131.012C70.0162 129.988 69.9522 128.996 69.8642 128.036C69.7762 128.22 69.6722 128.44 69.5522 128.696C69.4322 128.952 69.3042 129.232 69.1682 129.536C69.0322 129.832 68.8922 130.14 68.7482 130.46C68.6122 130.78 68.4762 131.092 68.3402 131.396C68.2122 131.692 68.0922 131.972 67.9802 132.236C67.8682 132.492 67.7722 132.712 67.6922 132.896H66.5642C66.4842 132.712 66.3882 132.488 66.2762 132.224C66.1642 131.96 66.0402 131.68 65.9042 131.384C65.7762 131.08 65.6402 130.768 65.4962 130.448C65.3602 130.128 65.2242 129.82 65.0882 129.524C64.9522 129.228 64.8242 128.952 64.7042 128.696C64.5842 128.432 64.4802 128.212 64.3922 128.036C64.3042 128.996 64.2362 129.988 64.1882 131.012C64.1482 132.036 64.1122 133.032 64.0802 134H62.5922C62.6242 133.312 62.6602 132.6 62.7002 131.864C62.7482 131.128 62.7962 130.4 62.8442 129.68C62.9002 128.952 62.9602 128.248 63.0242 127.568C63.0882 126.888 63.1562 126.26 63.2282 125.684H64.6322ZM73.4257 125.684H74.9377V134H73.4257V125.684ZM78.9456 132.872C79.4896 132.872 79.8856 132.78 80.1336 132.596C80.3816 132.412 80.5056 132.152 80.5056 131.816C80.5056 131.616 80.4616 131.444 80.3736 131.3C80.2936 131.156 80.1736 131.028 80.0136 130.916C79.8616 130.796 79.6736 130.688 79.4496 130.592C79.2256 130.488 78.9696 130.388 78.6816 130.292C78.3936 130.188 78.1136 130.076 77.8416 129.956C77.5776 129.828 77.3416 129.672 77.1336 129.488C76.9336 129.304 76.7696 129.084 76.6416 128.828C76.5216 128.572 76.4616 128.264 76.4616 127.904C76.4616 127.152 76.7216 126.564 77.2416 126.14C77.7616 125.708 78.4696 125.492 79.3656 125.492C79.8856 125.492 80.3456 125.552 80.7456 125.672C81.1536 125.784 81.4736 125.908 81.7056 126.044L81.2376 127.268C80.9656 127.116 80.6656 127 80.3376 126.92C80.0176 126.84 79.6856 126.8 79.3416 126.8C78.9336 126.8 78.6136 126.884 78.3816 127.052C78.1576 127.22 78.0456 127.456 78.0456 127.76C78.0456 127.944 78.0816 128.104 78.1536 128.24C78.2336 128.368 78.3416 128.484 78.4776 128.588C78.6216 128.692 78.7856 128.788 78.9696 128.876C79.1616 128.964 79.3696 129.048 79.5936 129.128C79.9856 129.272 80.3336 129.42 80.6376 129.572C80.9496 129.716 81.2096 129.892 81.4176 130.1C81.6336 130.3 81.7976 130.54 81.9096 130.82C82.0216 131.092 82.0776 131.424 82.0776 131.816C82.0776 132.568 81.8096 133.152 81.2736 133.568C80.7456 133.976 79.9696 134.18 78.9456 134.18C78.6016 134.18 78.2856 134.156 77.9976 134.108C77.7176 134.068 77.4656 134.016 77.2416 133.952C77.0256 133.888 76.8376 133.824 76.6776 133.76C76.5176 133.688 76.3896 133.624 76.2936 133.568L76.7376 132.332C76.9536 132.452 77.2456 132.572 77.6136 132.692C77.9816 132.812 78.4256 132.872 78.9456 132.872ZM89.2061 125.684V126.992H86.6501V134H85.1261V126.992H82.5701V125.684H89.2061ZM93.1601 134V125.684H94.6601V131.204C94.9321 130.772 95.2401 130.308 95.5841 129.812C95.9361 129.308 96.2961 128.808 96.6641 128.312C97.0401 127.816 97.4121 127.34 97.7801 126.884C98.1481 126.42 98.4921 126.02 98.8121 125.684H100.048V134H98.5601V128.048C98.2241 128.448 97.8681 128.9 97.4921 129.404C97.1241 129.9 96.7601 130.416 96.4001 130.952C96.0401 131.48 95.6921 132.008 95.3561 132.536C95.0201 133.056 94.7161 133.544 94.4441 134H93.1601ZM108.732 126.824C107.876 126.824 107.22 127.092 106.764 127.628C106.316 128.156 106.092 128.892 106.092 129.836C106.092 130.284 106.144 130.696 106.248 131.072C106.36 131.44 106.52 131.756 106.728 132.02C106.944 132.284 107.208 132.492 107.52 132.644C107.84 132.788 108.212 132.86 108.636 132.86C108.9 132.86 109.128 132.852 109.32 132.836C109.512 132.812 109.664 132.784 109.776 132.752V129.764H111.288V133.76C111.08 133.84 110.728 133.928 110.232 134.024C109.736 134.12 109.164 134.168 108.516 134.168C107.916 134.168 107.368 134.072 106.872 133.88C106.376 133.688 105.952 133.408 105.6 133.04C105.256 132.672 104.988 132.22 104.796 131.684C104.604 131.148 104.508 130.532 104.508 129.836C104.508 129.14 104.612 128.524 104.82 127.988C105.036 127.452 105.328 127 105.696 126.632C106.064 126.256 106.496 125.972 106.992 125.78C107.488 125.588 108.016 125.492 108.576 125.492C108.96 125.492 109.3 125.52 109.596 125.576C109.9 125.624 110.16 125.68 110.376 125.744C110.592 125.808 110.768 125.876 110.904 125.948C111.048 126.02 111.148 126.072 111.204 126.104L110.748 127.34C110.508 127.196 110.208 127.076 109.848 126.98C109.496 126.876 109.124 126.824 108.732 126.824ZM116.239 134.18C115.671 134.18 115.183 134.1 114.775 133.94C114.367 133.772 114.027 133.54 113.755 133.244C113.491 132.948 113.295 132.6 113.167 132.2C113.039 131.8 112.975 131.36 112.975 130.88V125.684H114.499V130.736C114.499 131.112 114.539 131.436 114.619 131.708C114.707 131.972 114.827 132.188 114.979 132.356C115.139 132.524 115.323 132.648 115.531 132.728C115.747 132.808 115.987 132.848 116.251 132.848C116.515 132.848 116.755 132.808 116.971 132.728C117.187 132.648 117.371 132.524 117.523 132.356C117.683 132.188 117.803 131.972 117.883 131.708C117.971 131.436 118.015 131.112 118.015 130.736V125.684H119.539V130.88C119.539 131.36 119.471 131.8 119.335 132.2C119.207 132.6 119.007 132.948 118.735 133.244C118.471 133.54 118.131 133.772 117.715 133.94C117.299 134.1 116.807 134.18 116.239 134.18ZM126.887 134C126.775 133.672 126.659 133.348 126.539 133.028C126.419 132.708 126.303 132.38 126.191 132.044H122.687C122.575 132.38 122.459 132.712 122.339 133.04C122.227 133.36 122.115 133.68 122.003 134H120.431C120.743 133.112 121.039 132.292 121.319 131.54C121.599 130.788 121.871 130.076 122.135 129.404C122.407 128.732 122.675 128.092 122.939 127.484C123.203 126.876 123.475 126.276 123.755 125.684H125.183C125.463 126.276 125.735 126.876 125.999 127.484C126.263 128.092 126.527 128.732 126.791 129.404C127.063 130.076 127.339 130.788 127.619 131.54C127.907 132.292 128.207 133.112 128.519 134H126.887ZM124.439 127.292C124.255 127.716 124.043 128.232 123.803 128.84C123.571 129.448 123.327 130.108 123.071 130.82H125.807C125.551 130.108 125.303 129.444 125.063 128.828C124.823 128.212 124.615 127.7 124.439 127.292ZM131.862 125.6C133.062 125.6 133.978 125.82 134.61 126.26C135.25 126.7 135.57 127.372 135.57 128.276C135.57 129.404 135.014 130.168 133.902 130.568C134.054 130.752 134.226 130.976 134.418 131.24C134.61 131.504 134.806 131.792 135.006 132.104C135.206 132.408 135.398 132.724 135.582 133.052C135.766 133.372 135.93 133.688 136.074 134H134.382C134.23 133.712 134.066 133.424 133.89 133.136C133.714 132.84 133.534 132.556 133.35 132.284C133.174 132.004 132.998 131.744 132.822 131.504C132.646 131.256 132.482 131.036 132.33 130.844C132.218 130.852 132.122 130.856 132.042 130.856C131.962 130.856 131.886 130.856 131.814 130.856H131.082V134H129.57V125.804C129.938 125.724 130.33 125.672 130.746 125.648C131.162 125.616 131.534 125.6 131.862 125.6ZM131.97 126.908C131.65 126.908 131.354 126.92 131.082 126.944V129.632H131.742C132.11 129.632 132.434 129.612 132.714 129.572C132.994 129.532 133.226 129.46 133.41 129.356C133.602 129.252 133.746 129.112 133.842 128.936C133.938 128.76 133.986 128.536 133.986 128.264C133.986 128.008 133.938 127.792 133.842 127.616C133.746 127.44 133.606 127.3 133.422 127.196C133.246 127.092 133.034 127.02 132.786 126.98C132.538 126.932 132.266 126.908 131.97 126.908ZM138.758 132.752C138.846 132.76 138.962 132.768 139.106 132.776C139.25 132.776 139.446 132.776 139.694 132.776C140.71 132.776 141.466 132.52 141.962 132.008C142.466 131.488 142.718 130.764 142.718 129.836C142.718 128.892 142.474 128.168 141.986 127.664C141.498 127.16 140.742 126.908 139.718 126.908C139.27 126.908 138.95 126.92 138.758 126.944V132.752ZM144.302 129.836C144.302 130.556 144.19 131.184 143.966 131.72C143.742 132.248 143.422 132.692 143.006 133.052C142.598 133.404 142.102 133.668 141.518 133.844C140.942 134.012 140.302 134.096 139.598 134.096C139.262 134.096 138.882 134.08 138.458 134.048C138.034 134.024 137.63 133.968 137.246 133.88V125.804C137.63 125.716 138.038 125.66 138.47 125.636C138.902 125.612 139.286 125.6 139.622 125.6C140.318 125.6 140.954 125.684 141.53 125.852C142.106 126.012 142.598 126.268 143.006 126.62C143.422 126.964 143.742 127.404 143.966 127.94C144.19 128.468 144.302 129.1 144.302 129.836ZM145.953 125.684H147.465V134H145.953V125.684ZM154.977 134C154.865 133.672 154.749 133.348 154.629 133.028C154.509 132.708 154.393 132.38 154.281 132.044H150.777C150.665 132.38 150.549 132.712 150.429 133.04C150.317 133.36 150.205 133.68 150.093 134H148.521C148.833 133.112 149.129 132.292 149.409 131.54C149.689 130.788 149.961 130.076 150.225 129.404C150.497 128.732 150.765 128.092 151.029 127.484C151.293 126.876 151.565 126.276 151.845 125.684H153.273C153.553 126.276 153.825 126.876 154.089 127.484C154.353 128.092 154.617 128.732 154.881 129.404C155.153 130.076 155.429 130.788 155.709 131.54C155.997 132.292 156.297 133.112 156.609 134H154.977ZM152.529 127.292C152.345 127.716 152.133 128.232 151.893 128.84C151.661 129.448 151.417 130.108 151.161 130.82H153.897C153.641 130.108 153.393 129.444 153.153 128.828C152.913 128.212 152.705 127.7 152.529 127.292ZM163.264 134C162.992 133.544 162.688 133.056 162.352 132.536C162.016 132.008 161.668 131.48 161.308 130.952C160.948 130.416 160.58 129.9 160.204 129.404C159.836 128.9 159.484 128.448 159.148 128.048V134H157.66V125.684H158.896C159.216 126.02 159.56 126.42 159.928 126.884C160.296 127.34 160.664 127.816 161.032 128.312C161.408 128.808 161.768 129.308 162.112 129.812C162.464 130.308 162.776 130.772 163.048 131.204V125.684H164.548V134H163.264Z" fill="white"/>
<defs>
<linearGradient id="paint0_linear" x1="130" y1="0" x2="130" y2="170" gradientUnits="userSpaceOnUse">
<stop stop-color="#FF2F01"/>
<stop offset="1" stop-color="#FF055F"/>
</linearGradient>
</defs>
</svg>
