<svg width="18" height="20" viewBox="0 0 18 20" fill="none" xmlns="http://www.w3.org/2000/svg">
<g clip-path="url(#clip0)">
<path d="M16.125 1.25H2.375C1.87772 1.25 1.40081 1.44754 1.04917 1.79917C0.697544 2.15081 0.5 2.62772 0.5 3.125L0.5 16.875C0.5 17.3723 0.697544 17.8492 1.04917 18.2008C1.40081 18.5525 1.87772 18.75 2.375 18.75H7.73633V12.8004H5.27539V10H7.73633V7.86562C7.73633 5.43789 9.18164 4.09687 11.3953 4.09687C12.4555 4.09687 13.5641 4.28594 13.5641 4.28594V6.66875H12.3426C11.1391 6.66875 10.7637 7.41562 10.7637 8.18164V10H13.4504L13.0207 12.8004H10.7637V18.75H16.125C16.6223 18.75 17.0992 18.5525 17.4508 18.2008C17.8025 17.8492 18 17.3723 18 16.875V3.125C18 2.62772 17.8025 2.15081 17.4508 1.79917C17.0992 1.44754 16.6223 1.25 16.125 1.25Z" fill="white"/>
</g>
<defs>
<clipPath id="clip0">
<rect width="17.5" height="20" fill="white" transform="translate(0.5)"/>
</clipPath>
</defs>
</svg>
