<svg width="18" height="20" viewBox="0 0 18 20" fill="none" xmlns="http://www.w3.org/2000/svg">
<g clip-path="url(#clip0)">
<path d="M8.75356 5.72696C6.38828 5.72696 4.48043 7.6348 4.48043 10.0001C4.48043 12.3654 6.38828 14.2732 8.75356 14.2732C11.1188 14.2732 13.0267 12.3654 13.0267 10.0001C13.0267 7.6348 11.1188 5.72696 8.75356 5.72696ZM8.75356 12.7782C7.22505 12.7782 5.97547 11.5323 5.97547 10.0001C5.97547 8.46786 7.22133 7.22199 8.75356 7.22199C10.2858 7.22199 11.5316 8.46786 11.5316 10.0001C11.5316 11.5323 10.2821 12.7782 8.75356 12.7782ZM14.1982 5.55217C14.1982 6.1063 13.7519 6.54886 13.2015 6.54886C12.6473 6.54886 12.2048 6.10258 12.2048 5.55217C12.2048 5.00175 12.6511 4.55548 13.2015 4.55548C13.7519 4.55548 14.1982 5.00175 14.1982 5.55217ZM17.0283 6.56373C16.9651 5.22861 16.6601 4.04597 15.682 3.0716C14.7077 2.09722 13.525 1.79226 12.1899 1.72532C10.8139 1.64722 6.68952 1.64722 5.31349 1.72532C3.98209 1.78855 2.79945 2.0935 1.82135 3.06788C0.843259 4.04225 0.54202 5.22489 0.475078 6.56001C0.396979 7.93604 0.396979 12.0604 0.475078 13.4364C0.538301 14.7715 0.843259 15.9542 1.82135 16.9286C2.79945 17.9029 3.97837 18.2079 5.31349 18.2748C6.68952 18.3529 10.8139 18.3529 12.1899 18.2748C13.525 18.2116 14.7077 17.9067 15.682 16.9286C16.6564 15.9542 16.9614 14.7715 17.0283 13.4364C17.1064 12.0604 17.1064 7.93976 17.0283 6.56373ZM15.2506 14.9129C14.9606 15.6418 14.399 16.2034 13.6663 16.4972C12.5692 16.9323 9.96595 16.8319 8.75356 16.8319C7.54117 16.8319 4.93415 16.9286 3.84077 16.4972C3.11184 16.2071 2.55028 15.6455 2.25648 14.9129C1.82135 13.8158 1.92177 11.2125 1.92177 10.0001C1.92177 8.78769 1.82507 6.18068 2.25648 5.08729C2.54656 4.35837 3.10813 3.7968 3.84077 3.503C4.93787 3.06788 7.54117 3.16829 8.75356 3.16829C9.96595 3.16829 12.573 3.0716 13.6663 3.503C14.3953 3.79308 14.9568 4.35465 15.2506 5.08729C15.6858 6.18439 15.5853 8.78769 15.5853 10.0001C15.5853 11.2125 15.6858 13.8195 15.2506 14.9129Z" fill="white"/>
</g>
<defs>
<clipPath id="clip0">
<rect width="17.5" height="20" fill="white"/>
</clipPath>
</defs>
</svg>
