<svg width="130" height="52" viewBox="0 0 130 52" fill="none" xmlns="http://www.w3.org/2000/svg">
<path d="M17.2454 36.9985C17.16 36.9985 17.0732 36.9735 16.9995 36.9235C16.8465 36.8204 16.7728 36.6335 16.8155 36.4553L16.9731 35.7944L14.5971 32.5381L14.2247 33.1697C14.1776 33.2462 14.1099 33.3051 14.0318 33.3419L8.36729 35.9902C8.30694 36.0181 8.24364 36.0314 8.18034 36.0314C8.05668 36.0314 7.93597 35.9799 7.84912 35.8827C7.71958 35.737 7.70191 35.522 7.80496 35.3557L9.00028 33.4405L7.52085 33.8645L6.80542 35.2011C6.72887 35.3454 6.57872 35.4337 6.41679 35.4337C6.40501 35.4337 6.39324 35.4337 6.38146 35.4322C6.20628 35.419 6.05613 35.3027 5.99872 35.1364L4.25725 30.1195L1.74883 32.0435C1.66934 32.1039 1.57513 32.1348 1.47944 32.1348C1.38523 32.1348 1.29102 32.1039 1.21153 32.0435C1.05254 31.9228 0.995131 31.7108 1.07021 31.5254L4.12329 24.0487L3.09431 24.4255L2.21107 25.2631C2.12716 25.3426 2.01822 25.3838 1.90635 25.3838C1.83716 25.3838 1.7665 25.3677 1.70173 25.3338C1.53391 25.2469 1.44117 25.0629 1.46914 24.876L2.23315 19.8341L0.471072 19.9519C0.460768 19.9519 0.451935 19.9534 0.441631 19.9534C0.281174 19.9534 0.132494 19.8665 0.0544744 19.7252C-0.0279619 19.575 -0.0161852 19.3896 0.085388 19.2512L2.06386 16.547C2.06386 16.547 1.75178 16.5587 1.74589 16.5587C1.54422 16.5587 1.36757 16.4218 1.31752 16.2246C1.26599 16.0229 1.36315 15.8124 1.5501 15.7211L4.31319 14.3595L2.94858 13.6764C2.78665 13.5955 2.68949 13.4232 2.70568 13.2422C2.72188 13.0611 2.847 12.9095 3.02218 12.8579L4.83284 12.3309L6.97618 10.2906L5.4776 9.66354C5.28771 9.58405 5.1773 9.38237 5.2141 9.17922C5.25091 8.97608 5.42314 8.82445 5.62923 8.81562L8.97231 8.66694L8.69262 7.84111C8.64551 7.70126 8.67054 7.54669 8.76181 7.4304C8.84572 7.32146 8.97526 7.25817 9.11216 7.25817C9.12247 7.25817 9.13277 7.25816 9.14308 7.25963L12.3066 7.48045L12.3066 5.44162C12.3066 5.28264 12.3934 5.13543 12.5318 5.05594C12.5995 5.01766 12.6731 5 12.7482 5C12.8277 5 12.9072 5.02208 12.9778 5.06477L15.7409 6.74882C15.7409 6.74882 15.7409 6.74735 15.7424 6.74735C15.8101 6.58837 15.9632 6.48238 16.1369 6.47796C16.1369 6.47796 20.1572 6.35872 20.1616 6.35872C20.3559 6.35872 20.5266 6.48532 20.5841 6.6708L20.7798 7.31263L24.2201 8.10608C24.2245 8.10608 24.2289 8.10608 24.2333 8.10608C24.2584 8.10608 24.2849 8.10903 24.3099 8.11344C24.4924 8.14583 24.6337 8.28714 24.6676 8.46527C24.6779 8.5109 24.6823 8.55654 24.6779 8.60217L24.8207 11.8908L26.6799 16.6427L29.4813 19.0598C29.6094 19.1702 29.6624 19.3454 29.6197 19.5073L28.9558 22.8828L29.0352 24.9452C29.0367 24.9731 29.0352 25.0026 29.0308 25.0305C29.0308 25.0305 28.7997 26.5056 28.7982 26.5159L28.3228 29.2009C28.3007 29.3246 28.2271 29.4321 28.1211 29.4983L26.2133 30.6877L22.645 36.7821C22.5684 36.9146 22.4271 36.9971 22.2755 37C22.2725 37 22.2681 37 22.2637 37C22.115 37 21.9752 36.9249 21.8942 36.7998L20.5443 34.7374L17.4986 36.9176C17.425 36.9706 17.3352 36.9985 17.2454 36.9985Z" fill="white"/>
<path d="M8.4498 15.9124L3.26367 13.3171L10.4135 11.2371L8.4498 15.9124Z" fill="white"/>
<path d="M5.17725 12.7607L7.88734 10.1787L10.4134 11.2371L5.17725 12.7607Z" fill="#102938"/>
<path d="M5.76611 9.29114L9.69656 9.11597L10.4135 11.2372L5.76611 9.29114Z" fill="#FE003A"/>
<path d="M1.59424 31.727L5.02565 23.3258L12.9675 23.002L1.59424 31.727Z" fill="#102938"/>
<path d="M1.86084 16.1524L5.4321 14.3933L8.44985 15.9125L1.86084 16.1524Z" fill="#102938"/>
<path d="M12.9677 23.002L5.02588 23.3259L11.6443 20.8984L12.9677 23.002Z" fill="white"/>
<path d="M6.52858 35.0259L4.58691 29.432L12.9674 23.002L6.52858 35.0259Z" fill="#FE003A"/>
<path d="M0.556152 19.5486L3.07193 16.1099L8.44943 15.9126L0.556152 19.5486Z" fill="#FE003A"/>
<path d="M15.383 24.259L8.29346 35.622L13.9595 32.9737L15.383 24.259Z" fill="#FE003A"/>
<path d="M10.0971 32.7324L7.33252 33.5244L12.9676 23.002L10.0971 32.7324Z" fill="white"/>
<path d="M12.8647 7.98695L12.8647 5.47412L17.5195 8.31228L12.8647 7.98695Z" fill="#FE003A"/>
<path d="M10.4136 11.2373L17.5193 8.31226L16.4594 12.3605L10.4136 11.2373Z" fill="#FE003A"/>
<path d="M20.5576 7.72046L24.3526 8.59635L22.3167 13.5175L20.5576 7.72046Z" fill="#102938"/>
<path d="M24.3484 8.58008L24.497 12.0174L22.3169 13.5174L24.3484 8.58008Z" fill="#FE003A"/>
<path d="M10.4135 11.2372L9.22852 7.73364L17.5193 8.31217L10.4135 11.2372Z" fill="white"/>
<path d="M16.4595 12.3605L17.5194 8.31226L22.3169 13.5175L16.4595 12.3605Z" fill="#102938"/>
<path d="M26.0041 30.4036L22.3813 27.3888L26.9301 24.1812C27.4468 24.9452 27.9635 25.7092 28.4802 26.4717C28.3212 27.3667 28.1637 28.2617 28.0047 29.1568L26.0041 30.4036Z" fill="white"/>
<path d="M28.7096 24.9951L27.3022 23.791L29.3072 19.4277C29.0805 20.5789 28.8538 21.7301 28.6286 22.8812C28.6551 23.5849 28.6816 24.29 28.7096 24.9951Z" fill="white"/>
<path d="M17.3455 22.525L15.6187 23.8425L13.5563 22.0687C13.2914 21.2605 13.0249 20.4523 12.7599 19.6442C11.6073 19.1922 10.4561 18.7388 9.30351 18.2869C9.0194 17.4949 8.73382 16.7044 8.44971 15.9125C9.25346 15.2485 10.0587 14.5846 10.8624 13.9193C11.7575 14.1003 12.6525 14.2814 13.5475 14.4625C14.1908 14.9954 14.366 15.1396 15.0093 15.671L14.9165 14.6818C15.4303 13.9075 15.9455 13.1332 16.4593 12.3589C18.4113 12.7445 20.3647 13.1302 22.3167 13.5159C23.0439 13.0154 23.7711 12.5164 24.4983 12.0159C25.1401 13.6558 25.7819 15.2957 26.4238 16.9355C27.385 17.7658 28.3463 18.5946 29.3076 19.4248C27.7869 19.5249 26.2663 19.625 24.7456 19.7251C25.7054 20.339 26.6652 20.9528 27.625 21.5667C27.2113 22.313 26.7991 23.0594 26.387 23.8057C25.1489 24.4902 23.9109 25.1733 22.6714 25.8578L22.3814 27.3858C21.4835 27.6405 20.587 27.8952 19.689 28.1498L17.8371 24.3386L17.3455 22.525Z" fill="white"/>
<path d="M26.4238 16.9384L25.7879 15.3132L25.4302 16.3702L26.4238 16.9384Z" fill="#102938"/>
<path d="M19.4197 14.9084C20.2235 15.0468 21.0272 15.1867 21.831 15.3265C21.8486 15.4678 21.884 15.6253 21.9473 15.7902C21.9473 15.7902 22.8555 16.8722 23.1073 16.9959L17.874 16.0272L19.4197 14.9084Z" fill="#102938"/>
<path d="M10.0571 16.0612C10.8609 16.1996 11.7412 15.9228 12.5449 16.0612C12.5626 16.204 12.2932 17.8954 12.5449 18.0205L10.3869 17.417L10.0571 16.0612Z" fill="#102938"/>
<path d="M24.7455 19.728C25.7053 20.3419 26.6651 20.9558 27.6249 21.5696C27.2112 22.316 26.799 23.0623 26.3869 23.8086C25.1488 24.4932 23.9108 25.1762 22.6728 25.8607L22.3828 27.3887C23.8991 26.32 25.4153 25.2498 26.9315 24.1811C27.4482 24.9451 27.9649 25.7091 28.4816 26.4716C28.5582 25.9799 28.6362 25.4868 28.7127 24.9951C28.2432 24.5933 27.7736 24.1928 27.3054 23.791C27.9738 22.3366 28.6421 20.8821 29.3104 19.4277L24.7455 19.728Z" fill="#102938"/>
<path d="M16.4593 12.3603L10.4149 11.2371C10.4149 11.2371 9.10184 14.3623 8.44971 15.9124C9.25346 15.2485 10.0587 14.5846 10.8624 13.9192C11.7575 14.1002 12.6525 14.2813 13.5475 14.4624C14.1908 14.9953 14.366 15.1395 15.0093 15.671L14.9165 14.6817L16.4593 12.3603Z" fill="#102938"/>
<path d="M16.2651 6.95054L20.2751 6.8313L22.3168 13.5175L16.2651 6.95054Z" fill="white"/>
<path d="M22.3814 36.5922L20.7783 34.1441L26.0042 30.4036L22.3814 36.5922Z" fill="#FE003A"/>
<path d="M17.409 27.1311L14.6724 31.7681L17.5635 35.7324L18.9664 29.8382L17.409 27.1311Z" fill="white"/>
<path d="M26.0043 30.4037L22.3815 27.3889C21.4836 27.6436 20.5871 27.8982 19.6891 28.1529L17.8372 24.3417L17.3455 22.5266L15.6188 23.8441C14.9313 23.2524 14.2439 22.6621 13.5564 22.0703C13.2914 21.2621 13.025 20.4539 12.76 19.6458C11.6074 19.1939 10.4562 18.7405 9.30359 18.2885C9.01948 17.4965 8.7339 16.706 8.44979 15.9141C8.39826 16.9533 8.34527 17.9912 8.29375 19.0305L2.96777 24.0811L11.6442 20.9C12.0858 21.6007 12.5274 22.3029 12.9691 23.0036L10.097 32.734L15.3833 24.2607L13.9612 32.9769L17.4088 27.1342C17.9285 28.0366 18.4481 28.939 18.9663 29.8414L17.3588 36.5953L26.0043 30.4037Z" fill="#102938"/>
<path d="M2.02246 24.9789L2.86743 19.3939L8.29351 19.0288L2.02246 24.9789Z" fill="#FE003A"/>
<path d="M0.556152 19.5486L8.44943 15.9126L8.29339 19.029L0.556152 19.5486Z" fill="white"/>
<g filter="url(#filter0_d)">
<path d="M36.9831 19.1171L35.5861 18.9095L35.5861 18.0469H40.5396L40.5396 18.9095L38.8306 19.1171L38.8306 29.8515L43.2836 29.6954L44.3023 26.7969L45.3548 26.9515L44.7513 30.8687H35.5508L35.5508 30.0237L36.9831 29.8515L36.9831 19.1171Z" fill="white"/>
<path d="M47.0788 23.3628C47.5043 22.6032 48.0651 22.0246 48.7614 21.6287C49.4577 21.2312 50.2026 21.0325 50.996 21.0325C52.446 21.0325 53.5354 21.4932 54.267 22.4133C54.9971 23.3333 55.3622 24.5419 55.3622 26.0375C55.3622 27.0842 55.1488 27.988 54.7233 28.7476C54.2979 29.5072 53.737 30.0828 53.0407 30.4729C52.3444 30.8645 51.5996 31.0603 50.8061 31.0603C49.3561 31.0603 48.2668 30.601 47.5352 29.6794C46.805 28.7594 46.4399 27.5508 46.4399 26.0552C46.4399 25.0203 46.6519 24.1224 47.0788 23.3628ZM52.739 29.0921C53.1644 28.4355 53.3778 27.464 53.3778 26.1759C53.3778 24.8981 53.1821 23.8868 52.792 23.139C52.4004 22.3912 51.7733 22.0173 50.9106 22.0173C50.1172 22.0173 49.5048 22.3456 49.072 23.0006C48.6407 23.6572 48.4243 24.6288 48.4243 25.9168C48.4243 27.1946 48.626 28.2059 49.0279 28.9537C49.4297 29.7015 50.0568 30.0754 50.9092 30.0754C51.7041 30.0769 52.3135 29.7486 52.739 29.0921Z" fill="white"/>
<path d="M64.0676 30.835C63.913 30.7084 63.835 30.5023 63.835 30.2138L63.835 29.6264C63.4552 30.0062 62.9812 30.3404 62.4115 30.6275C61.8418 30.9145 61.2691 31.0588 60.695 31.0588C59.6248 31.0588 58.8652 30.7717 58.4177 30.1961C57.9687 29.6206 57.745 28.6725 57.745 27.3491L57.745 22.3441L56.7778 22.0673L56.7778 21.3077L59.192 21.0854H59.2097L59.538 21.293L59.538 27.2122C59.538 27.8791 59.5866 28.4002 59.6852 28.7741C59.7823 29.148 59.956 29.4248 60.2034 29.6029C60.4507 29.781 60.8099 29.8708 61.2824 29.8708C61.7417 29.8708 62.1745 29.7736 62.5763 29.5779C62.9797 29.3821 63.33 29.1524 63.6289 28.8875L63.6289 22.3455L62.3864 22.0688L62.3864 21.3092L65.0097 21.0854H65.0274L65.4248 21.293L65.4248 29.9915H66.4597L66.442 30.7673C66.1196 30.8483 65.8414 30.9116 65.6044 30.9572C65.3689 31.0028 65.0951 31.0264 64.7845 31.0264C64.4621 31.0264 64.2236 30.9616 64.0676 30.835Z" fill="white"/>
<path d="M69.6679 30.542C69.0924 30.1975 68.6345 29.6675 68.296 28.9536C67.9559 28.2396 67.7866 27.3593 67.7866 26.3127C67.7866 25.3352 67.9883 24.4431 68.3902 23.6379C68.7935 22.8327 69.3706 22.1968 70.1243 21.7316C70.878 21.2664 71.7656 21.0323 72.7902 21.0323C73.3776 21.0323 73.9119 21.0956 74.3948 21.2222L74.3948 17.9954L72.6342 17.7879L72.6342 17.046L75.7403 16.7354H75.7918L76.1716 17.0106L76.1716 29.9885H77.1726L77.1726 30.7819C76.8046 30.8629 76.4851 30.9262 76.2143 30.9718C75.9434 31.0174 75.6593 31.041 75.3605 31.041C75.0616 31.041 74.8482 30.9895 74.7216 30.885C74.595 30.7819 74.5317 30.5626 74.5317 30.2284V29.6764C74.2093 30.0679 73.7868 30.3947 73.2627 30.6597C72.7387 30.9247 72.1734 31.0572 71.5625 31.0572C70.8765 31.0601 70.2435 30.8879 69.6679 30.542ZM73.5174 29.5321C73.9075 29.3304 74.2019 29.0978 74.3977 28.8329L74.3977 22.5162C74.305 22.3778 74.0901 22.2542 73.75 22.1452C73.41 22.0363 73.0508 21.9818 72.671 21.9818C71.773 21.9818 71.0576 22.3248 70.5217 23.0093C69.9874 23.6939 69.7195 24.7493 69.7195 26.1758C69.7195 27.4182 69.955 28.3383 70.4275 28.9374C70.8986 29.5365 71.5095 29.8339 72.2573 29.8339C72.7063 29.8339 73.1258 29.7338 73.5174 29.5321Z" fill="white"/>
<path d="M87.2884 28.4282C86.8851 29.2393 86.3109 29.8811 85.5631 30.3522C84.8153 30.8247 83.9409 31.0603 82.9399 31.0603C82.6646 31.0603 82.3643 31.0367 82.0434 30.9911C81.721 30.9454 81.4619 30.888 81.2676 30.8188L81.3191 32.2688L81.3191 34.0118L83.1136 34.2017L83.1136 35.0466H78.2984L78.2984 34.2017L79.5409 34.0118L79.5409 22.6223L78.2808 22.3117L78.2808 21.3799L80.7318 21.0693H80.7656L81.1278 21.3799L81.1278 22.3986C81.4722 22.0188 81.9021 21.6978 82.4129 21.4314C82.9252 21.1664 83.4978 21.0339 84.1293 21.0339C84.8079 21.0339 85.4321 21.2003 86.0018 21.5344C86.5715 21.8686 87.0293 22.3868 87.3738 23.0875C87.7197 23.7897 87.8919 24.6759 87.8919 25.7446C87.8919 26.722 87.6903 27.6171 87.2884 28.4282ZM82.1965 22.5178C81.8167 22.7018 81.5237 22.9035 81.3162 23.1213L81.3162 29.6279C81.3971 29.7663 81.6003 29.8899 81.9286 29.9989C82.2568 30.1078 82.616 30.1623 83.0076 30.1623C83.8938 30.1623 84.6092 29.8119 85.1568 29.1097C85.703 28.409 85.9768 27.3491 85.9768 25.9345C85.9768 24.692 85.7383 23.7661 85.2599 23.1552C84.7829 22.5458 84.1691 22.241 83.4213 22.241C82.9855 22.241 82.5763 22.3338 82.1965 22.5178Z" fill="white"/>
<path d="M90.6538 17.9954L89.2554 17.8055L89.2554 17.0636L92.0332 16.7354H92.0685L92.4483 16.9944L92.4483 29.8854L93.9145 30.0238L93.9145 30.8688H89.2554L89.2554 30.0238L90.6538 29.8677L90.6538 17.9954Z" fill="white"/>
<path d="M96.7629 25.8918C97.8434 25.3795 99.2139 25.1072 100.87 25.0718L100.87 24.589C100.87 24.0487 100.813 23.6218 100.698 23.3112C100.583 23.0006 100.384 22.7739 100.103 22.6297C99.8204 22.4854 99.4214 22.4147 98.9032 22.4147C98.3159 22.4147 97.7904 22.4986 97.3237 22.665C96.8571 22.8313 96.3948 23.036 95.9341 23.2774L95.5028 22.3794C95.6514 22.2528 95.9282 22.0865 96.3315 21.8789C96.7349 21.6713 97.2001 21.4873 97.73 21.3269C98.26 21.1649 98.7884 21.0854 99.3184 21.0854C100.135 21.0854 100.782 21.1973 101.26 21.4226C101.737 21.6463 102.08 22.007 102.288 22.5016C102.495 22.9962 102.598 23.6572 102.598 24.4859L102.598 30.0254H103.617L103.617 30.785C103.386 30.8424 103.096 30.8998 102.745 30.9572C102.395 31.0146 102.087 31.044 101.822 31.044C101.5 31.044 101.282 30.9955 101.166 30.8968C101.051 30.7997 100.994 30.5833 100.994 30.2491L100.994 29.6794C100.648 30.0254 100.225 30.3404 99.7247 30.6289C99.2242 30.916 98.6574 31.0602 98.0244 31.0602C97.1956 31.0602 96.5082 30.8218 95.962 30.3433C95.4159 29.8664 95.1421 29.1789 95.1421 28.281C95.1406 27.2005 95.6809 26.4026 96.7629 25.8918ZM99.7997 29.6102C100.191 29.4262 100.548 29.2084 100.87 28.9537L100.87 25.986C99.6157 25.986 98.6692 26.1788 98.0318 26.5645C97.3929 26.9502 97.0735 27.4537 97.0735 28.0749C97.0735 28.6961 97.2266 29.1539 97.5313 29.4468C97.836 29.7398 98.2482 29.887 98.7649 29.887C99.0637 29.887 99.4082 29.7943 99.7997 29.6102Z" fill="white"/>
<path d="M105.641 35.132C105.451 35.1084 105.316 35.0745 105.236 35.0289L105.236 33.5274C105.305 33.573 105.441 33.6069 105.641 33.6304C105.843 33.6525 106.035 33.6658 106.219 33.6658C106.771 33.6658 107.257 33.4729 107.678 33.0872C108.098 32.7016 108.504 31.9626 108.896 30.8703H108.067L104.789 22.3278L103.995 22.1041L103.995 21.293H108.154L108.154 22.1041L106.824 22.3116L108.516 27.4021L109.309 29.9223L110.051 27.3859L111.588 22.3116L110.431 22.1041L110.431 21.293H113.899L113.899 22.1041L113.037 22.3116C111.345 27.4889 110.35 30.4287 110.051 31.1294C109.66 32.1186 109.303 32.8929 108.981 33.4508C108.659 34.0088 108.279 34.4342 107.842 34.7286C107.404 35.0216 106.864 35.1688 106.219 35.1688C106.024 35.1673 105.831 35.1555 105.641 35.132Z" fill="white"/>
</g>
<defs>
<filter id="filter0_d" x="19.5508" y="0.735352" width="110.348" height="50.4334" filterUnits="userSpaceOnUse" color-interpolation-filters="sRGB">
<feFlood flood-opacity="0" result="BackgroundImageFix"/>
<feColorMatrix in="SourceAlpha" type="matrix" values="0 0 0 0 0 0 0 0 0 0 0 0 0 0 0 0 0 0 127 0"/>
<feOffset/>
<feGaussianBlur stdDeviation="8"/>
<feColorMatrix type="matrix" values="0 0 0 0 1 0 0 0 0 0.105882 0 0 0 0 0.180392 0 0 0 1 0"/>
<feBlend mode="normal" in2="BackgroundImageFix" result="effect1_dropShadow"/>
<feBlend mode="normal" in="SourceGraphic" in2="effect1_dropShadow" result="shape"/>
</filter>
</defs>
</svg>
