<svg width="80" height="20" viewBox="0 0 80 20" fill="none" xmlns="http://www.w3.org/2000/svg">
<g clip-path="url(#clip0)">
<path d="M9.63445 0.0126953C4.27961 0.0126953 -0.0429688 4.33528 -0.0429688 9.69011C-0.0429688 9.70288 -0.0404977 9.71516 -0.0404486 9.72792L3.33279 11.0838L9.62941 9.58931L15.9273 11.0838L19.3106 9.72414C19.3106 9.71267 19.3119 9.70159 19.3119 9.69011C19.3119 4.33528 14.9893 0.0126953 9.63445 0.0126953ZM9.63445 0.39954C10.3441 0.39954 10.9248 0.980185 10.9248 1.68986C10.9248 2.39954 10.3441 2.98019 9.63445 2.98019C8.92477 2.98019 8.34413 2.39954 8.34413 1.68986C8.34413 0.980185 8.92477 0.39954 9.63445 0.39954ZM9.18334 3.36703V6.72263C7.85084 6.90433 6.81419 7.99928 6.6909 9.35997L3.34161 10.2887C3.32295 10.0914 3.31137 9.89212 3.31137 9.69011C3.31137 6.33528 5.89302 3.62509 9.18334 3.36703ZM10.0856 3.36703C13.3759 3.56058 15.9575 6.33528 15.9575 9.69011C15.9575 9.8917 15.9459 10.0906 15.9273 10.2874L12.5818 9.40408C12.4774 8.02287 11.4325 6.90629 10.0856 6.72263V3.36703ZM19.2627 10.6566L16.4313 11.802L14.8298 16.109L16.1768 16.8146C17.879 15.2512 19.0226 13.0921 19.2627 10.6566ZM0.00617439 10.6616C0.247247 13.0939 1.38999 15.2499 3.08959 16.8121L4.42906 16.109L2.82875 11.802L0.00617439 10.6616ZM5.12462 16.6987L3.79146 17.398C5.41483 18.6291 7.4344 19.3675 9.63445 19.3675C11.8329 19.3675 13.8509 18.63 15.4737 17.4005L14.1355 16.6987L9.62941 17.5996L5.12462 16.6987Z" fill="white"/>
<path d="M25.8063 11.8066H23.0321C22.5805 11.8066 22.3224 11.5485 22.3224 11.0969V8.32271C22.3224 7.80658 22.5805 7.61303 23.0321 7.61303H25.8063C26.2579 7.61303 26.516 7.87109 26.516 8.32271V11.0969C26.516 11.5485 26.2579 11.8066 25.8063 11.8066ZM28.1934 8.19367C28.1934 6.64529 27.4192 5.87109 25.9353 5.87109H22.9031C21.3547 5.87109 20.645 6.64529 20.645 8.19367V11.0969C20.645 12.6453 21.4192 13.4195 22.9031 13.4195H25.9353C27.4192 13.4195 28.1934 12.6453 28.1934 11.0969V8.19367Z" fill="white"/>
<path d="M36.5806 5.87109H29.0322V7.54851H32V13.484H33.6774V7.54851H36.5806V5.87109Z" fill="white"/>
<path d="M45.0323 8.19361C45.0323 6.70974 44.3227 5.93555 42.9033 5.93555H37.4194V7.61297H42.5807C43.0969 7.61297 43.3549 7.80651 43.3549 8.25813C43.3549 8.70974 43.0969 8.90329 42.5807 8.90329H40.3872V10.5807H42.5807C43.0969 10.5807 43.3549 10.7743 43.3549 11.2259C43.3549 11.6775 43.0969 11.871 42.5807 11.871H37.4194V13.5484H42.5807C44.1936 13.5484 45.0323 12.9033 45.0323 11.5484C45.0323 10.9033 44.9033 10.2581 44.5807 9.80651C44.9033 9.16135 45.0323 8.64522 45.0323 8.19361Z" fill="white"/>
<path d="M51.0324 11.8066H48.2582C47.8066 11.8066 47.5485 11.5485 47.5485 11.0969V8.32271C47.5485 7.80658 47.8066 7.61303 48.2582 7.61303H51.0324C51.484 7.61303 51.7421 7.87109 51.7421 8.32271V11.0969C51.7421 11.5485 51.484 11.8066 51.0324 11.8066ZM53.4195 8.19367C53.4195 6.64529 52.6453 5.87109 51.1614 5.87109H48.1292C46.5808 5.87109 45.8711 6.64529 45.8711 8.19367V11.0969C45.8711 12.6453 46.6453 13.4195 48.1292 13.4195H51.1614C52.6453 13.4195 53.4195 12.6453 53.4195 11.0969V8.19367Z" fill="white"/>
<path d="M60.1932 11.1614C60.1932 10.7098 59.9352 10.5163 59.4836 10.5163H55.9997V11.8066H59.4836C59.9352 11.8066 60.1932 11.5485 60.1932 11.1614ZM60.1932 8.19367C60.1932 7.74206 59.9352 7.54851 59.4836 7.54851H55.9997V8.83884H59.4836C59.9352 8.83884 60.1932 8.64529 60.1932 8.19367ZM61.8707 11.1614C61.8707 12.7098 61.0965 13.4195 59.6126 13.4195H54.3223V5.87109H59.6126C61.0965 5.87109 61.8707 6.64529 61.8707 8.12916C61.8707 8.83884 61.6771 9.35496 61.419 9.61303C61.6771 10.0001 61.8707 10.5163 61.8707 11.1614Z" fill="white"/>
<path d="M70.2579 13.484H68.5804V8.19367L64.3869 13.484H62.7095V5.87109H64.3869V11.1614L68.5804 5.87109H70.2579V13.484Z" fill="white"/>
<path d="M75.8064 9.67755L78.8386 5.87109H76.9031L74.516 8.83884H72.7741V5.87109H71.0967V13.484H72.7741V10.5163H74.516L76.9031 13.484H78.8386L75.8064 9.67755Z" fill="white"/>
</g>
<defs>
<clipPath id="clip0">
<rect width="79.3548" height="20" fill="white"/>
</clipPath>
</defs>
</svg>
