<svg width="20" height="20" viewBox="0 0 20 20" fill="none" xmlns="http://www.w3.org/2000/svg">
<g clip-path="url(#clip0)">
<path d="M19.375 10C19.375 15.3516 15.0312 19.6875 9.67188 19.6875C5.22656 19.6875 1.48438 16.707 0.335938 12.6406L4.05469 14.1758C4.30469 15.4297 5.41797 16.3789 6.74609 16.3789C8.27734 16.3789 9.55469 15.1133 9.48828 13.5078L12.7891 11.1562C14.8242 11.207 16.5312 9.55859 16.5312 7.50391C16.5312 5.48828 14.8906 3.85156 12.8711 3.85156C10.8516 3.85156 9.21094 5.49219 9.21094 7.50391V7.55078L6.89844 10.8984C6.29297 10.8633 5.69922 11.0312 5.19922 11.3711L0 9.22266C0.398438 4.23438 4.57422 0.3125 9.67188 0.3125C15.0312 0.3125 19.375 4.64844 19.375 10ZM6.08203 15.0117L4.89062 14.5195C5.10956 14.9741 5.48758 15.3327 5.95312 15.5273C7.00391 15.9648 8.21094 15.4648 8.64844 14.418C8.85938 13.9102 8.86328 13.3516 8.65234 12.8438C8.44141 12.3359 8.04688 11.9375 7.53906 11.7266C7.03516 11.5156 6.49609 11.5234 6.01953 11.7031L7.25 12.2109C8.02344 12.5312 8.39062 13.418 8.06641 14.1914C7.74219 14.9687 6.85547 15.332 6.08203 15.0117ZM12.8711 9.9375C11.5273 9.9375 10.4336 8.84375 10.4336 7.50391C10.4336 6.16406 11.5273 5.07031 12.8711 5.07031C14.2148 5.07031 15.3086 6.16406 15.3086 7.50391C15.3086 8.84375 14.2188 9.9375 12.8711 9.9375ZM12.875 9.32812C13.8867 9.32812 14.707 8.50781 14.707 7.5C14.707 6.48828 13.8867 5.67188 12.875 5.67188C11.8633 5.67188 11.043 6.49219 11.043 7.5C11.0469 8.50781 11.8672 9.32812 12.875 9.32812Z" fill="white"/>
</g>
<defs>
<clipPath id="clip0">
<rect width="19.375" height="20" fill="white"/>
</clipPath>
</defs>
</svg>
