<svg width="23" height="20" viewBox="0 0 23 20" fill="none" xmlns="http://www.w3.org/2000/svg">
<path d="M21.7891 4.59766C21.9336 4.10937 21.7891 3.75 21.0937 3.75H18.793C18.207 3.75 17.9375 4.05859 17.793 4.40234C17.793 4.40234 16.6211 7.25781 14.9648 9.10938C14.4297 9.64453 14.1836 9.81641 13.8906 9.81641C13.7461 9.81641 13.5234 9.64453 13.5234 9.15625V4.59766C13.5234 4.01172 13.3594 3.75 12.875 3.75H9.25781C8.89062 3.75 8.67187 4.02344 8.67187 4.27734C8.67187 4.83203 9.5 4.96094 9.58594 6.52344V9.91406C9.58594 10.6562 9.45312 10.793 9.16016 10.793C8.37891 10.793 6.48047 7.92578 5.35547 4.64453C5.12891 4.00781 4.90625 3.75 4.31641 3.75H2.01562C1.35937 3.75 1.22656 4.05859 1.22656 4.40234C1.22656 5.01172 2.00781 8.03906 4.86328 12.0391C6.76562 14.7695 9.44531 16.25 11.8828 16.25C13.3477 16.25 13.5273 15.9219 13.5273 15.3555C13.5273 12.7461 13.3945 12.5 14.1289 12.5C14.4687 12.5 15.0547 12.6719 16.4219 13.9883C17.9844 15.5508 18.2422 16.25 19.1172 16.25H21.418C22.0742 16.25 22.4062 15.9219 22.2148 15.2734C21.7773 13.9102 18.8203 11.1055 18.6875 10.918C18.3477 10.4805 18.4453 10.2852 18.6875 9.89453C18.6914 9.89062 21.5 5.9375 21.7891 4.59766Z" fill="white"/>
</svg>
